MontserratZ-SemiBold.ufo
<glyph name="exclam" format="2">
  <advance width="278"/>
  <unicode hex="0021"/>
  <outline>
    <contour>
      <point x="89.6358" y="232.305" type="line"/>
      <point x="65.5304" y="700" type="line"/>
      <point x="213.645" y="700" type="line"/>
      <point x="188.669" y="232.305" type="line"/>
    </contour>
    <contour>
      <point x="139.588" y="-6.51757" type="qcurve" smooth="yes"/>
      <point x="105.094" y="-6.51757"/>
      <point x="58.9537" y="39.2348"/>
      <point x="58.9537" y="70.8227" type="qcurve" smooth="yes"/>
      <point x="58.9537" y="103.411"/>
      <point x="105.094" y="147.904"/>
      <point x="139.588" y="147.904" type="qcurve" smooth="yes"/>
      <point x="175.081" y="147.904"/>
      <point x="219.351" y="103.411"/>
      <point x="219.351" y="70.8227" type="qcurve" smooth="yes"/>
      <point x="219.351" y="39.2348"/>
      <point x="175.081" y="-6.51757"/>
    </contour>
  </outline>
</glyph>
<glyph name="numbersign" format="2">
  <advance width="711"/>
  <unicode hex="0023"/>
  <outline>
    <contour>
      <point x="396.895" y="0" type="line"/>
      <point x="483.024" y="700" type="line"/>
      <point x="574.246" y="700" type="line"/>
      <point x="488.117" y="0" type="line"/>
    </contour>
    <contour>
      <point x="23.4473" y="170.083" type="line"/>
      <point x="23.4473" y="260.882" type="line"/>
      <point x="654.693" y="260.882" type="line"/>
      <point x="654.693" y="170.083" type="line"/>
    </contour>
    <contour>
      <point x="137.024" y="0" type="line"/>
      <point x="224.024" y="700" type="line"/>
      <point x="315.246" y="700" type="line"/>
      <point x="228.246" y="0" type="line"/>
    </contour>
    <contour>
      <point x="56.5767" y="439.118" type="line"/>
      <point x="56.5767" y="529.917" type="line"/>
      <point x="686.952" y="529.917" type="line"/>
      <point x="687.823" y="439.118" type="line"/>
    </contour>
  </outline>
</glyph>
<glyph name="percent" format="2">
  <advance width="860"/>
  <unicode hex="0025"/>
  <outline>
    <contour>
      <point x="141.965" y="0" type="line"/>
      <point x="619.965" y="700" type="line"/>
      <point x="717.575" y="700" type="line"/>
      <point x="239.575" y="0" type="line"/>
    </contour>
    <contour>
      <point x="200.259" y="323.482" type="qcurve" smooth="yes"/>
      <point x="150.741" y="323.482"/>
      <point x="74.5767" y="371.094"/>
      <point x="32.5415" y="457.353"/>
      <point x="32.5415" y="515" type="qcurve" smooth="yes"/>
      <point x="32.5415" y="572.647"/>
      <point x="74.5767" y="658.776"/>
      <point x="150.741" y="706.518"/>
      <point x="200.259" y="706.518" type="qcurve" smooth="yes"/>
      <point x="250.647" y="706.518"/>
      <point x="325.941" y="658.776"/>
      <point x="367.976" y="573.518"/>
      <point x="367.976" y="515" type="qcurve" smooth="yes"/>
      <point x="367.976" y="457.353"/>
      <point x="325.941" y="371.094"/>
      <point x="250.647" y="323.482"/>
    </contour>
    <contour>
      <point x="201.129" y="393.176" type="qcurve" smooth="yes"/>
      <point x="240.765" y="393.176"/>
      <point x="286.048" y="456.294"/>
      <point x="286.048" y="515" type="qcurve" smooth="yes"/>
      <point x="286.048" y="573.706"/>
      <point x="240.765" y="636.824"/>
      <point x="201.129" y="636.824" type="qcurve" smooth="yes"/>
      <point x="160.752" y="636.824"/>
      <point x="114.47" y="573.706"/>
      <point x="114.47" y="515" type="qcurve" smooth="yes"/>
      <point x="114.47" y="457.165"/>
      <point x="160.752" y="393.176"/>
    </contour>
    <contour>
      <point x="659.281" y="-6.51757" type="qcurve" smooth="yes"/>
      <point x="609.764" y="-6.51757"/>
      <point x="533.599" y="41.0943"/>
      <point x="491.564" y="127.353"/>
      <point x="491.564" y="185" type="qcurve" smooth="yes"/>
      <point x="491.564" y="242.647"/>
      <point x="533.599" y="328.776"/>
      <point x="609.764" y="376.518"/>
      <point x="659.281" y="376.518" type="qcurve" smooth="yes"/>
      <point x="709.669" y="376.518"/>
      <point x="784.963" y="328.776"/>
      <point x="826.998" y="242.647"/>
      <point x="826.998" y="185" type="qcurve" smooth="yes"/>
      <point x="826.998" y="127.353"/>
      <point x="784.963" y="41.0943"/>
      <point x="709.669" y="-6.51757"/>
    </contour>
    <contour>
      <point x="659.281" y="63.1757" type="qcurve" smooth="yes"/>
      <point x="698.917" y="63.1757"/>
      <point x="745.07" y="127.165"/>
      <point x="745.07" y="185" type="qcurve" smooth="yes"/>
      <point x="745.07" y="242.835"/>
      <point x="698.917" y="306.824"/>
      <point x="659.281" y="306.824" type="qcurve" smooth="yes"/>
      <point x="619.775" y="306.824"/>
      <point x="573.492" y="243.706"/>
      <point x="573.492" y="185" type="qcurve" smooth="yes"/>
      <point x="573.492" y="126.294"/>
      <point x="619.775" y="63.1757"/>
    </contour>
  </outline>
</glyph>
<glyph name="ampersand" format="2">
  <advance width="706"/>
  <unicode hex="0026"/>
  <outline>
    <contour>
      <point x="296.235" y="-9.90575" type="qcurve" smooth="yes"/>
      <point x="222.682" y="-9.90575"/>
      <point x="107.224" y="37.8706"/>
      <point x="40.8003" y="122.035"/>
      <point x="40.8003" y="176.553" type="qcurve" smooth="yes"/>
      <point x="40.8003" y="226.717"/>
      <point x="84.8355" y="307.011"/>
      <point x="180.518" y="379.752"/>
      <point x="256.423" y="416.847" type="qcurve" smooth="yes"/>
      <point x="315.129" y="446.294"/>
      <point x="381.706" y="490.482"/>
      <point x="409.189" y="529.93"/>
      <point x="409.189" y="551.765" type="qcurve" smooth="yes"/>
      <point x="409.189" y="581.695"/>
      <point x="367.294" y="619.107"/>
      <point x="328.011" y="619.107" type="qcurve" smooth="yes"/>
      <point x="285.858" y="619.107"/>
      <point x="239.093" y="577.824"/>
      <point x="239.093" y="545.153" type="qcurve" smooth="yes"/>
      <point x="239.093" y="528.059"/>
      <point x="251.834" y="496.482"/>
      <point x="286.446" y="455.906"/>
      <point x="318.057" y="424.811" type="qcurve" smooth="yes"/>
      <point x="687.799" y="70.0223" type="line"/>
      <point x="619.035" y="-11.2588" type="line"/>
      <point x="219.412" y="372.765" type="line" smooth="yes"/>
      <point x="184.542" y="405.989"/>
      <point x="143.153" y="462.118"/>
      <point x="124.636" y="514.895"/>
      <point x="124.636" y="543.024" type="qcurve" smooth="yes"/>
      <point x="124.636" y="592.059"/>
      <point x="174.577" y="666.612"/>
      <point x="266.682" y="707.647"/>
      <point x="327.882" y="707.647" type="qcurve" smooth="yes"/>
      <point x="384.823" y="707.647"/>
      <point x="467.928" y="670.741"/>
      <point x="514.61" y="602.059"/>
      <point x="514.61" y="554.153" type="qcurve" smooth="yes"/>
      <point x="514.61" y="512.248"/>
      <point x="473.446" y="441.212"/>
      <point x="383.764" y="377.212"/>
      <point x="310.246" y="342.118" type="qcurve" smooth="yes"/>
      <point x="254.575" y="314.93"/>
      <point x="190.645" y="267.259"/>
      <point x="163.422" y="219.2"/>
      <point x="163.422" y="190.235" type="qcurve" smooth="yes"/>
      <point x="163.422" y="161.176"/>
      <point x="198.351" y="116.634"/>
      <point x="261.728" y="91.9281"/>
      <point x="304.529" y="91.9281" type="qcurve" smooth="yes"/>
      <point x="368.976" y="91.9281"/>
      <point x="473.553" y="148.928"/>
      <point x="546.035" y="263.022"/>
      <point x="561.647" y="346.728" type="qcurve"/>
      <point x="662.551" y="314.494" type="line"/>
      <point x="642.163" y="213.235"/>
      <point x="539.446" y="68.0351"/>
      <point x="389.434" y="-9.90575"/>
    </contour>
  </outline>
</glyph>
<glyph name="quotesingle" format="2">
  <advance width="220"/>
  <unicode hex="0027"/>
  <outline>
    <contour>
      <point x="64.4122" y="422.636" type="line"/>
      <point x="56.377" y="700" type="line"/>
      <point x="163.669" y="700" type="line"/>
      <point x="154.764" y="422.636" type="line"/>
    </contour>
  </outline>
</glyph>
<glyph name="parenleft" format="2">
  <advance width="347"/>
  <unicode hex="0028"/>
  <outline>
    <contour>
      <point x="206.118" y="-194" type="line"/>
      <point x="147.342" y="-103.129"/>
      <point x="84.4361" y="136.129"/>
      <point x="84.4361" y="274" type="qcurve" smooth="yes"/>
      <point x="84.4361" y="411.871"/>
      <point x="147.342" y="652.871"/>
      <point x="206.118" y="742" type="qcurve"/>
      <point x="325.481" y="742" type="line"/>
      <point x="263.704" y="632.447"/>
      <point x="207.057" y="402.835"/>
      <point x="207.057" y="274" type="qcurve" smooth="yes"/>
      <point x="207.057" y="145.165"/>
      <point x="263.704" y="-84.4473"/>
      <point x="325.481" y="-194" type="qcurve"/>
    </contour>
  </outline>
</glyph>
<glyph name="parenright" format="2">
  <advance width="348"/>
  <unicode hex="0029"/>
  <outline>
    <contour>
      <point x="140.928" y="-194" type="qcurve"/>
      <point x="21.5655" y="-194" type="line"/>
      <point x="84.3419" y="-84.4473"/>
      <point x="140.859" y="145.165"/>
      <point x="140.859" y="274" type="qcurve" smooth="yes"/>
      <point x="140.859" y="402.835"/>
      <point x="84.3419" y="632.447"/>
      <point x="21.5655" y="742" type="qcurve"/>
      <point x="140.928" y="742" type="line"/>
      <point x="200.704" y="652.871"/>
      <point x="263.481" y="411.871"/>
      <point x="263.481" y="274" type="qcurve" smooth="yes"/>
      <point x="263.481" y="136.129"/>
      <point x="200.704" y="-103.129"/>
    </contour>
  </outline>
</glyph>
<glyph name="asterisk" format="2">
  <advance width="416"/>
  <unicode hex="002A"/>
  <outline>
    <contour>
      <point x="399.963" y="612.601" type="line"/>
      <point x="265.869" y="538.506" type="line"/>
      <point x="265.869" y="561.189" type="line"/>
      <point x="399.963" y="487.094" type="line"/>
      <point x="360.564" y="418.625" type="line"/>
      <point x="232.505" y="493.978" type="line"/>
      <point x="245.152" y="501.366" type="line"/>
      <point x="246.411" y="357.695" type="line"/>
      <point x="169.871" y="357.695" type="line"/>
      <point x="171.129" y="501.366" type="line"/>
      <point x="183.776" y="493.978" type="line"/>
      <point x="55.7172" y="418.625" type="line"/>
      <point x="16.4473" y="487.094" type="line"/>
      <point x="151.412" y="561.189" type="line"/>
      <point x="151.412" y="538.506" type="line"/>
      <point x="16.4473" y="612.601" type="line"/>
      <point x="55.7172" y="681.941" type="line"/>
      <point x="183.776" y="605.717" type="line"/>
      <point x="171.129" y="598.329" type="line"/>
      <point x="169.871" y="742" type="line"/>
      <point x="246.411" y="742" type="line"/>
      <point x="245.152" y="598.329" type="line"/>
      <point x="232.505" y="605.717" type="line"/>
      <point x="360.564" y="681.941" type="line"/>
    </contour>
  </outline>
</glyph>
<glyph name="plus" format="2">
  <advance width="590"/>
  <unicode hex="002B"/>
  <outline>
    <contour>
      <point x="241.765" y="125.024" type="line"/>
      <point x="241.765" y="574.976" type="line"/>
      <point x="348.634" y="574.976" type="line"/>
      <point x="348.634" y="125.024" type="line"/>
    </contour>
    <contour>
      <point x="64.5767" y="299.824" type="line"/>
      <point x="64.5767" y="400.176" type="line"/>
      <point x="525.823" y="400.176" type="line"/>
      <point x="525.823" y="299.824" type="line"/>
    </contour>
  </outline>
</glyph>
<glyph name="hyphen" format="2">
  <advance width="385"/>
  <unicode hex="002D"/>
  <outline>
    <contour>
      <point x="54.5767" y="225.765" type="line"/>
      <point x="54.5767" y="330.47" type="line"/>
      <point x="330.2" y="330.47" type="line"/>
      <point x="330.2" y="225.765" type="line"/>
    </contour>
  </outline>
</glyph>
<glyph name="period" format="2">
  <advance width="244"/>
  <unicode hex="002E"/>
  <outline>
    <contour>
      <point x="122.399" y="-6.51757" type="qcurve" smooth="yes"/>
      <point x="88.1645" y="-6.51757"/>
      <point x="40.024" y="40.3642"/>
      <point x="40.024" y="76.4696" type="qcurve" smooth="yes"/>
      <point x="40.024" y="113.575"/>
      <point x="88.1645" y="159.198"/>
      <point x="122.399" y="159.198" type="qcurve" smooth="yes"/>
      <point x="155.764" y="159.198"/>
      <point x="203.904" y="113.575"/>
      <point x="203.904" y="76.4696" type="qcurve" smooth="yes"/>
      <point x="203.904" y="40.3642"/>
      <point x="155.764" y="-6.51757"/>
    </contour>
  </outline>
</glyph>
<glyph name="slash" format="2">
  <advance width="371"/>
  <unicode hex="002F"/>
  <outline>
    <contour>
      <point x="-30.4233" y="-100" type="line"/>
      <point x="299.577" y="842" type="line"/>
      <point x="411.645" y="842" type="line"/>
      <point x="81.6453" y="-100" type="line"/>
    </contour>
  </outline>
</glyph>
<glyph name="zero" format="2">
  <advance width="673"/>
  <unicode hex="0030"/>
  <outline>
    <contour>
      <point x="336.423" y="-9.90575" type="qcurve" smooth="yes"/>
      <point x="253" y="-9.90575"/>
      <point x="120.447" y="74.353"/>
      <point x="43.8003" y="234.871"/>
      <point x="43.8003" y="350" type="qcurve" smooth="yes"/>
      <point x="43.8003" y="465.129"/>
      <point x="120.447" y="625.647"/>
      <point x="253" y="709.906"/>
      <point x="336.423" y="709.906" type="qcurve" smooth="yes"/>
      <point x="419.847" y="709.906"/>
      <point x="552.399" y="625.647"/>
      <point x="629.046" y="465.129"/>
      <point x="629.046" y="350" type="qcurve" smooth="yes"/>
      <point x="629.046" y="234.871"/>
      <point x="552.399" y="74.353"/>
      <point x="419.847" y="-9.90575"/>
    </contour>
    <contour>
      <point x="336.423" y="103.351" type="qcurve" smooth="yes"/>
      <point x="384.671" y="103.351"/>
      <point x="457.236" y="156.246"/>
      <point x="498.26" y="265.588"/>
      <point x="498.26" y="350" type="qcurve" smooth="yes"/>
      <point x="498.26" y="434.542"/>
      <point x="457.236" y="543.754"/>
      <point x="384.671" y="596.649"/>
      <point x="336.423" y="596.649" type="qcurve" smooth="yes"/>
      <point x="289.046" y="596.649"/>
      <point x="215.61" y="543.754"/>
      <point x="174.586" y="434.542"/>
      <point x="174.586" y="350" type="qcurve" smooth="yes"/>
      <point x="174.586" y="265.588"/>
      <point x="215.61" y="156.246"/>
      <point x="289.046" y="103.351"/>
    </contour>
  </outline>
</glyph>
<glyph name="one" format="2">
  <advance width="381"/>
  <unicode hex="0031"/>
  <outline>
    <contour>
      <point x="156.342" y="0" type="line"/>
      <point x="156.342" y="650.212" type="line"/>
      <point x="212.941" y="590.778" type="line"/>
      <point x="7.61182" y="590.778" type="line"/>
      <point x="7.61182" y="700" type="line"/>
      <point x="286.128" y="700" type="line"/>
      <point x="286.128" y="0" type="line"/>
    </contour>
  </outline>
</glyph>
<glyph name="two" format="2">
  <advance width="582"/>
  <unicode hex="0032"/>
  <outline>
    <contour>
      <point x="34.9649" y="0" type="line"/>
      <point x="34.9649" y="86.6693" type="line"/>
      <point x="313.212" y="351.141" type="line" smooth="yes"/>
      <point x="347.66" y="383.717"/>
      <point x="381.978" y="434.259"/>
      <point x="393.46" y="476.93"/>
      <point x="393.46" y="495.895" type="qcurve" smooth="yes"/>
      <point x="393.46" y="543.66"/>
      <point x="327.248" y="597.037"/>
      <point x="262.776" y="597.037" type="qcurve" smooth="yes"/>
      <point x="211.752" y="597.037"/>
      <point x="128.764" y="561.425"/>
      <point x="98.8338" y="524.201" type="qcurve"/>
      <point x="7.89458" y="594.048" type="line"/>
      <point x="48.5064" y="648.636"/>
      <point x="188.318" y="709.906"/>
      <point x="274.329" y="709.906" type="qcurve" smooth="yes"/>
      <point x="350.364" y="709.906"/>
      <point x="462.693" y="661.129"/>
      <point x="524.246" y="570.965"/>
      <point x="524.246" y="509.189" type="qcurve" smooth="yes"/>
      <point x="524.246" y="475.189"/>
      <point x="506.375" y="408.059"/>
      <point x="456.117" y="333.93"/>
      <point x="407.728" y="287.93" type="qcurve" smooth="yes"/>
      <point x="168.974" y="60.9521" type="line"/>
      <point x="141.551" y="109.869" type="line"/>
      <point x="550.693" y="109.869" type="line"/>
      <point x="550.693" y="0" type="line"/>
    </contour>
  </outline>
</glyph>
<glyph name="three" format="2">
  <advance width="582"/>
  <unicode hex="0033"/>
  <outline>
    <contour>
      <point x="263.906" y="-9.90575" type="qcurve" smooth="yes"/>
      <point x="190.165" y="-9.90575"/>
      <point x="49.1294" y="32.5415"/>
      <point x="0.964861" y="70.5064" type="qcurve"/>
      <point x="56.5878" y="172.246" type="line"/>
      <point x="94.623" y="141.022"/>
      <point x="203.2" y="102.963"/>
      <point x="262" y="102.963" type="qcurve" smooth="yes"/>
      <point x="331.601" y="102.963"/>
      <point x="410.46" y="160.434"/>
      <point x="410.46" y="209.2" type="qcurve" smooth="yes"/>
      <point x="410.46" y="256.577"/>
      <point x="337.636" y="312.919"/>
      <point x="257.811" y="312.919" type="qcurve" smooth="yes"/>
      <point x="193.542" y="312.919" type="line"/>
      <point x="193.542" y="402.2" type="line"/>
      <point x="393.695" y="640.177" type="line"/>
      <point x="411.212" y="590.778" type="line"/>
      <point x="35.2236" y="590.778" type="line"/>
      <point x="35.2236" y="700" type="line"/>
      <point x="511.952" y="700" type="line"/>
      <point x="511.952" y="613.331" type="line"/>
      <point x="311.799" y="375.353" type="line"/>
      <point x="244.07" y="414.976" type="line"/>
      <point x="283.434" y="414.976" type="line" smooth="yes"/>
      <point x="411.952" y="414.976"/>
      <point x="541.246" y="299.588"/>
      <point x="541.246" y="210.07" type="qcurve" smooth="yes"/>
      <point x="541.246" y="150.941"/>
      <point x="481.211" y="50.5176"/>
      <point x="358.494" y="-9.90575"/>
    </contour>
  </outline>
</glyph>
<glyph name="four" format="2">
  <advance width="679"/>
  <unicode hex="0034"/>
  <outline>
    <contour>
      <point x="34.3179" y="159.177" type="line"/>
      <point x="34.3179" y="249.105" type="line"/>
      <point x="379.201" y="700" type="line"/>
      <point x="517.599" y="700" type="line"/>
      <point x="178.492" y="249.105" type="line"/>
      <point x="112.893" y="269.046" type="line"/>
      <point x="667.952" y="269.046" type="line"/>
      <point x="667.952" y="159.177" type="line"/>
    </contour>
    <contour>
      <point x="418.212" y="0" type="line"/>
      <point x="418.212" y="159.177" type="line"/>
      <point x="421.73" y="269.046" type="line"/>
      <point x="421.73" y="410" type="line"/>
      <point x="544.481" y="410" type="line"/>
      <point x="544.481" y="0" type="line"/>
    </contour>
  </outline>
</glyph>
<glyph name="five" format="2">
  <advance width="584"/>
  <unicode hex="0035"/>
  <outline>
    <contour>
      <point x="275.776" y="-9.90575" type="qcurve" smooth="yes"/>
      <point x="202.035" y="-9.90575"/>
      <point x="61" y="32.5415"/>
      <point x="12.8355" y="70.5064" type="qcurve"/>
      <point x="68.4585" y="172.246" type="line"/>
      <point x="106.494" y="141.022"/>
      <point x="214.941" y="102.963"/>
      <point x="273.741" y="102.963" type="qcurve" smooth="yes"/>
      <point x="343.342" y="102.963"/>
      <point x="422.331" y="160.564"/>
      <point x="422.331" y="210.2" type="qcurve" smooth="yes"/>
      <point x="422.331" y="243.482"/>
      <point x="388.66" y="292.601"/>
      <point x="306.224" y="319.401"/>
      <point x="233.623" y="319.401" type="qcurve" smooth="yes"/>
      <point x="65.4473" y="319.401" type="line"/>
      <point x="101.318" y="700" type="line"/>
      <point x="512.34" y="700" type="line"/>
      <point x="512.34" y="590.778" type="line"/>
      <point x="148.623" y="590.778" type="line"/>
      <point x="217.128" y="652.601" type="line"/>
      <point x="190.033" y="367.671" type="line"/>
      <point x="121.529" y="429.494" type="line"/>
      <point x="262.764" y="429.494" type="line" smooth="yes"/>
      <point x="366.764" y="429.494"/>
      <point x="494.375" y="373.847"/>
      <point x="553.117" y="277.2"/>
      <point x="553.117" y="215.2" type="qcurve" smooth="yes"/>
      <point x="553.117" y="154.07"/>
      <point x="493.081" y="51.5176"/>
      <point x="370.364" y="-9.90575"/>
    </contour>
  </outline>
</glyph>
<glyph name="six" format="2">
  <advance width="627"/>
  <unicode hex="0036"/>
  <outline>
    <contour>
      <point x="346.717" y="-9.90575" type="qcurve" smooth="yes"/>
      <point x="251.941" y="-9.90575"/>
      <point x="115.741" y="70.5767"/>
      <point x="43.8003" y="225.318"/>
      <point x="43.8003" y="337.577" type="qcurve" smooth="yes"/>
      <point x="43.8003" y="457.965"/>
      <point x="131.353" y="624"/>
      <point x="286.329" y="709.906"/>
      <point x="387.399" y="709.906" type="qcurve" smooth="yes"/>
      <point x="439.823" y="709.906"/>
      <point x="536.54" y="687.871"/>
      <point x="571.316" y="665.353" type="qcurve"/>
      <point x="522.882" y="566.519" type="line"/>
      <point x="494.494" y="585.907"/>
      <point x="427.141" y="600.907"/>
      <point x="389.788" y="600.907" type="qcurve" smooth="yes"/>
      <point x="290.928" y="600.907"/>
      <point x="174.586" y="479.342"/>
      <point x="174.586" y="360.035" type="qcurve" smooth="yes"/>
      <point x="174.586" y="340.682"/>
      <point x="177.198" y="289.917"/>
      <point x="183.292" y="264.47" type="qcurve"/>
      <point x="143.222" y="307.823" type="line"/>
      <point x="160.61" y="348.788"/>
      <point x="224.187" y="404.494"/>
      <point x="311.246" y="432.105"/>
      <point x="361.987" y="432.105" type="qcurve" smooth="yes"/>
      <point x="431.211" y="432.105"/>
      <point x="539.34" y="378.847"/>
      <point x="602.858" y="282.329"/>
      <point x="602.858" y="216.811" type="qcurve" smooth="yes"/>
      <point x="602.858" y="147.906"/>
      <point x="534.693" y="45.7412"/>
      <point x="418.752" y="-9.90575"/>
    </contour>
    <contour>
      <point x="340.294" y="92.1517" type="qcurve" smooth="yes"/>
      <point x="380.447" y="92.1517"/>
      <point x="442.177" y="121.34"/>
      <point x="476.719" y="175.105"/>
      <point x="476.719" y="211.035" type="qcurve" smooth="yes"/>
      <point x="476.719" y="265.8"/>
      <point x="401.024" y="330.048"/>
      <point x="336.811" y="330.048" type="qcurve" smooth="yes"/>
      <point x="294.917" y="330.048"/>
      <point x="231.575" y="298.989"/>
      <point x="195.163" y="245.224"/>
      <point x="195.163" y="210.165" type="qcurve" smooth="yes"/>
      <point x="195.163" y="177.717"/>
      <point x="228.963" y="123.952"/>
      <point x="294.046" y="92.1517"/>
    </contour>
  </outline>
</glyph>
<glyph name="seven" format="2">
  <advance width="608"/>
  <unicode hex="0037"/>
  <outline>
    <contour>
      <point x="161.212" y="0" type="line"/>
      <point x="450.46" y="648.212" type="line"/>
      <point x="483.859" y="590.131" type="line"/>
      <point x="86.5639" y="590.131" type="line"/>
      <point x="148.963" y="652.73" type="line"/>
      <point x="148.963" y="470.719" type="line"/>
      <point x="27.9649" y="470.719" type="line"/>
      <point x="27.9649" y="700" type="line"/>
      <point x="572.117" y="700" type="line"/>
      <point x="572.117" y="613.331" type="line"/>
      <point x="299.939" y="0" type="line"/>
    </contour>
  </outline>
</glyph>
<glyph name="eight" format="2">
  <advance width="652"/>
  <unicode hex="0038"/>
  <outline>
    <contour>
      <point x="325.07" y="-9.90575" type="qcurve" smooth="yes"/>
      <point x="238.165" y="-9.90575"/>
      <point x="110.224" y="41.6118"/>
      <point x="39.8003" y="136.518"/>
      <point x="39.8003" y="201.035" type="qcurve" smooth="yes"/>
      <point x="39.8003" y="264.682"/>
      <point x="107.871" y="352.847"/>
      <point x="235.941" y="399.364"/>
      <point x="325.07" y="399.364" type="qcurve" smooth="yes"/>
      <point x="414.2" y="399.364"/>
      <point x="543.141" y="352.847"/>
      <point x="612.081" y="263.811"/>
      <point x="612.081" y="201.035" type="qcurve" smooth="yes"/>
      <point x="612.081" y="136.518"/>
      <point x="540.788" y="41.6118"/>
      <point x="411.976" y="-9.90575"/>
    </contour>
    <contour>
      <point x="325.07" y="91.6342" type="qcurve" smooth="yes"/>
      <point x="397.377" y="91.6342"/>
      <point x="481.296" y="152.399"/>
      <point x="481.296" y="204.682" type="qcurve" smooth="yes"/>
      <point x="481.296" y="256.965"/>
      <point x="397.377" y="316.859"/>
      <point x="325.07" y="316.859" type="qcurve" smooth="yes"/>
      <point x="252.764" y="316.859"/>
      <point x="170.586" y="256.965"/>
      <point x="170.586" y="204.682" type="qcurve" smooth="yes"/>
      <point x="170.586" y="152.399"/>
      <point x="252.764" y="91.6342"/>
    </contour>
    <contour>
      <point x="325.07" y="330.636" type="qcurve" smooth="yes"/>
      <point x="243.941" y="330.636"/>
      <point x="127.741" y="374.153"/>
      <point x="64.8003" y="457.059"/>
      <point x="64.8003" y="514.835" type="qcurve" smooth="yes"/>
      <point x="64.8003" y="575.353"/>
      <point x="130.094" y="662.259"/>
      <point x="247.906" y="709.906"/>
      <point x="325.07" y="709.906" type="qcurve" smooth="yes"/>
      <point x="403.105" y="709.906"/>
      <point x="520.917" y="662.259"/>
      <point x="587.081" y="575.353"/>
      <point x="587.081" y="514.835" type="qcurve" smooth="yes"/>
      <point x="587.081" y="457.059"/>
      <point x="524.141" y="374.153"/>
      <point x="406.329" y="330.636"/>
    </contour>
    <contour>
      <point x="325.07" y="410.882" type="qcurve" smooth="yes"/>
      <point x="387.377" y="410.882"/>
      <point x="458.554" y="463.776"/>
      <point x="458.554" y="509.189" type="qcurve" smooth="yes"/>
      <point x="458.554" y="556.471"/>
      <point x="384.765" y="608.366"/>
      <point x="325.07" y="608.366" type="qcurve" smooth="yes"/>
      <point x="265.375" y="608.366"/>
      <point x="193.327" y="556.471"/>
      <point x="193.327" y="509.189" type="qcurve" smooth="yes"/>
      <point x="193.327" y="463.776"/>
      <point x="263.634" y="410.882"/>
    </contour>
  </outline>
</glyph>
<glyph name="nine" format="2">
  <advance width="627"/>
  <unicode hex="0039"/>
  <outline>
    <contour>
      <point x="280.329" y="709.906" type="qcurve" smooth="yes"/>
      <point x="375.976" y="709.906"/>
      <point x="511.305" y="629.423"/>
      <point x="583.246" y="474.811"/>
      <point x="583.246" y="362.423" type="qcurve" smooth="yes"/>
      <point x="583.246" y="242.035"/>
      <point x="495.693" y="76"/>
      <point x="341.717" y="-9.90575"/>
      <point x="239.647" y="-9.90575" type="qcurve" smooth="yes"/>
      <point x="187.224" y="-9.90575"/>
      <point x="91.377" y="12.1294"/>
      <point x="55.7301" y="34.647" type="qcurve"/>
      <point x="104.165" y="133.481" type="line"/>
      <point x="132.553" y="114.093"/>
      <point x="200.776" y="99.0926"/>
      <point x="237.259" y="99.0926" type="qcurve" smooth="yes"/>
      <point x="336.118" y="99.0926"/>
      <point x="452.46" y="220.658"/>
      <point x="452.46" y="339.965" type="qcurve" smooth="yes"/>
      <point x="452.46" y="359.318"/>
      <point x="449.848" y="410.083"/>
      <point x="443.754" y="435.53" type="qcurve"/>
      <point x="483.824" y="392.177" type="line"/>
      <point x="467.436" y="351.212"/>
      <point x="402.859" y="295.506"/>
      <point x="316.671" y="267.895"/>
      <point x="265.059" y="267.895" type="qcurve" smooth="yes"/>
      <point x="196.706" y="267.895"/>
      <point x="87.7061" y="321.153"/>
      <point x="24.1885" y="417.8"/>
      <point x="24.1885" y="483.189" type="qcurve" smooth="yes"/>
      <point x="24.1885" y="552.965"/>
      <point x="92.353" y="654.259"/>
      <point x="209.165" y="709.906"/>
    </contour>
    <contour>
      <point x="286.752" y="607.848" type="qcurve" smooth="yes"/>
      <point x="246.599" y="607.848"/>
      <point x="184.998" y="578.66"/>
      <point x="150.327" y="525.765"/>
      <point x="150.327" y="488.965" type="qcurve" smooth="yes"/>
      <point x="150.327" y="434.2"/>
      <point x="226.152" y="369.952"/>
      <point x="290.235" y="369.952" type="qcurve" smooth="yes"/>
      <point x="332.129" y="369.952"/>
      <point x="396.471" y="401.011"/>
      <point x="431.883" y="455.647"/>
      <point x="431.883" y="489.835" type="qcurve" smooth="yes"/>
      <point x="431.883" y="523.153"/>
      <point x="398.212" y="576.048"/>
      <point x="333.871" y="607.848"/>
    </contour>
  </outline>
</glyph>
<glyph name="less" format="2">
  <advance width="590"/>
  <unicode hex="003C"/>
  <outline>
    <contour>
      <point x="525.823" y="116.919" type="line"/>
      <point x="64.5767" y="295.824" type="line"/>
      <point x="64.5767" y="404.176" type="line"/>
      <point x="525.823" y="583.081" type="line"/>
      <point x="525.823" y="479.248" type="line"/>
      <point x="104.2" y="321.024" type="line"/>
      <point x="104.2" y="378.976" type="line"/>
      <point x="525.823" y="220.752" type="line"/>
    </contour>
  </outline>
</glyph>
<glyph name="equal" format="2">
  <advance width="590"/>
  <unicode hex="003D"/>
  <outline>
    <contour>
      <point x="64.5767" y="421.118" type="line"/>
      <point x="64.5767" y="521.47" type="line"/>
      <point x="525.823" y="521.47" type="line"/>
      <point x="525.823" y="421.118" type="line"/>
    </contour>
    <contour>
      <point x="64.5767" y="178.53" type="line"/>
      <point x="64.5767" y="278.882" type="line"/>
      <point x="525.823" y="278.882" type="line"/>
      <point x="525.823" y="178.53" type="line"/>
    </contour>
  </outline>
</glyph>
<glyph name="greater" format="2">
  <advance width="590"/>
  <unicode hex="003E"/>
  <outline>
    <contour>
      <point x="64.5767" y="116.919" type="line"/>
      <point x="64.5767" y="220.752" type="line"/>
      <point x="487.07" y="378.976" type="line"/>
      <point x="487.07" y="321.024" type="line"/>
      <point x="64.5767" y="479.248" type="line"/>
      <point x="64.5767" y="583.081" type="line"/>
      <point x="525.823" y="404.176" type="line"/>
      <point x="525.823" y="295.824" type="line"/>
    </contour>
  </outline>
</glyph>
<glyph name="question" format="2">
  <advance width="581"/>
  <unicode hex="003F"/>
  <outline>
    <contour>
      <point x="221.8" y="232.305" type="line"/>
      <point x="221.8" y="269.27"/>
      <point x="246.024" y="325.105"/>
      <point x="283.73" y="369.2"/>
      <point x="327.177" y="407.165"/>
      <point x="364.883" y="443"/>
      <point x="389.107" y="483.189"/>
      <point x="389.107" y="507.765" type="qcurve" smooth="yes"/>
      <point x="389.107" y="549.919"/>
      <point x="321.377" y="601.778"/>
      <point x="263.776" y="601.778" type="qcurve" smooth="yes"/>
      <point x="209.141" y="601.778"/>
      <point x="127.893" y="562.296"/>
      <point x="100.575" y="525.072" type="qcurve"/>
      <point x="4.41215" y="587.954" type="line"/>
      <point x="45.8946" y="645.153"/>
      <point x="181.612" y="709.906"/>
      <point x="274.623" y="709.906" type="qcurve" smooth="yes"/>
      <point x="348.399" y="709.906"/>
      <point x="458.34" y="666.906"/>
      <point x="519.893" y="586.259"/>
      <point x="519.893" y="528.482" type="qcurve" smooth="yes"/>
      <point x="519.893" y="487.871"/>
      <point x="495.152" y="428.129"/>
      <point x="456.411" y="382.518"/>
      <point x="412.057" y="343.906"/>
      <point x="373.316" y="305.941"/>
      <point x="348.575" y="261.752"/>
      <point x="348.575" y="232.305" type="qcurve"/>
    </contour>
    <contour>
      <point x="285.623" y="-6.51757" type="qcurve" smooth="yes"/>
      <point x="251.129" y="-6.51757"/>
      <point x="205.859" y="39.2348"/>
      <point x="205.859" y="70.8227" type="qcurve" smooth="yes"/>
      <point x="205.859" y="103.411"/>
      <point x="251.129" y="147.904"/>
      <point x="285.623" y="147.904" type="qcurve" smooth="yes"/>
      <point x="321.117" y="147.904"/>
      <point x="365.387" y="103.411"/>
      <point x="365.387" y="70.8227" type="qcurve" smooth="yes"/>
      <point x="365.387" y="39.2348"/>
      <point x="321.117" y="-6.51757"/>
    </contour>
  </outline>
</glyph>
<glyph name="at" format="2">
  <advance width="1034"/>
  <unicode hex="0040"/>
  <outline>
    <contour>
      <point x="517.776" y="-203.906" type="qcurve" smooth="yes"/>
      <point x="411.741" y="-203.906"/>
      <point x="237.577" y="-135.647"/>
      <point x="111.93" y="-12.2588"/>
      <point x="43.8003" y="155"/>
      <point x="43.8003" y="253.871" type="qcurve" smooth="yes"/>
      <point x="43.8003" y="352.612"/>
      <point x="111.93" y="518.741"/>
      <point x="238.577" y="641.259"/>
      <point x="414.741" y="708.776"/>
      <point x="521.776" y="708.776" type="qcurve" smooth="yes"/>
      <point x="625.423" y="708.776"/>
      <point x="797.2" y="644.388"/>
      <point x="922.458" y="527.129"/>
      <point x="990.588" y="366.647"/>
      <point x="990.588" y="271.423" type="qcurve" smooth="yes"/>
      <point x="990.588" y="185.129"/>
      <point x="944.871" y="60.353"/>
      <point x="859.636" y="-6.38818"/>
      <point x="799.118" y="-6.38818" type="qcurve" smooth="yes"/>
      <point x="737.142" y="-6.38818"/>
      <point x="663.778" y="67.5878"/>
      <point x="663.778" y="137.823" type="qcurve" smooth="yes"/>
      <point x="663.778" y="194.518" type="line"/>
      <point x="668.131" y="251.965" type="line"/>
      <point x="659.131" y="382.211" type="line"/>
      <point x="659.131" y="496.412" type="line"/>
      <point x="770.165" y="496.412" type="line"/>
      <point x="770.165" y="155.564" type="line" smooth="yes"/>
      <point x="770.165" y="117.599"/>
      <point x="801" y="87.5048"/>
      <point x="822.224" y="87.5048" type="qcurve" smooth="yes"/>
      <point x="849.283" y="87.5048"/>
      <point x="887.083" y="128.788"/>
      <point x="906.307" y="210.682"/>
      <point x="906.307" y="269.294" type="qcurve" smooth="yes"/>
      <point x="906.307" y="349.482"/>
      <point x="851.342" y="480.765"/>
      <point x="748.283" y="575.954"/>
      <point x="607.482" y="627.048"/>
      <point x="521.776" y="627.048" type="qcurve" smooth="yes"/>
      <point x="435.2" y="627.048"/>
      <point x="292.658" y="571.824"/>
      <point x="191.211" y="472.118"/>
      <point x="136.117" y="335.318"/>
      <point x="136.117" y="253.871" type="qcurve" smooth="yes"/>
      <point x="136.117" y="171.294"/>
      <point x="190.211" y="33.4936"/>
      <point x="290.658" y="-66.2125"/>
      <point x="431.329" y="-121.307"/>
      <point x="517.776" y="-121.307" type="qcurve" smooth="yes"/>
      <point x="564.294" y="-121.307"/>
      <point x="666.165" y="-100.307"/>
      <point x="711.941" y="-77.3067" type="qcurve"/>
      <point x="739.141" y="-156.776" type="line"/>
      <point x="693.27" y="-179.647"/>
      <point x="573.458" y="-203.906"/>
    </contour>
    <contour>
      <point x="491.73" y="-6.38818" type="qcurve" smooth="yes"/>
      <point x="422.93" y="-6.38818"/>
      <point x="314.612" y="58.8355"/>
      <point x="251.871" y="174.318"/>
      <point x="251.871" y="248.706" type="qcurve" smooth="yes"/>
      <point x="251.871" y="323.094"/>
      <point x="314.482" y="437.577"/>
      <point x="422.8" y="501.93"/>
      <point x="491.73" y="501.93" type="qcurve" smooth="yes"/>
      <point x="559.212" y="501.93"/>
      <point x="659.236" y="443.412"/>
      <point x="714.649" y="330.671"/>
      <point x="714.649" y="248.706" type="qcurve" smooth="yes"/>
      <point x="714.649" y="166.871"/>
      <point x="660.495" y="53"/>
      <point x="561.471" y="-6.38818"/>
    </contour>
    <contour>
      <point x="512.776" y="90.5399" type="qcurve" smooth="yes"/>
      <point x="555.542" y="90.5399"/>
      <point x="622.366" y="128.081"/>
      <point x="661.39" y="199.553"/>
      <point x="661.39" y="248.706" type="qcurve" smooth="yes"/>
      <point x="661.39" y="298.73"/>
      <point x="622.366" y="368.331"/>
      <point x="555.542" y="405.002"/>
      <point x="512.776" y="405.002" type="qcurve" smooth="yes"/>
      <point x="469.27" y="405.002"/>
      <point x="402.316" y="367.46"/>
      <point x="365.163" y="296.989"/>
      <point x="365.163" y="248.706" type="qcurve" smooth="yes"/>
      <point x="365.163" y="200.423"/>
      <point x="402.316" y="129.823"/>
      <point x="469.27" y="90.5399"/>
    </contour>
  </outline>
</glyph>
<glyph name="A" format="2">
  <advance width="749"/>
  <unicode hex="0041"/>
  <anchor x="425.636" y="700" name="t.uni0308"/>
  <anchor x="425.636" y="0" name="b.uni0324_3"/>
  <anchor x="880.719" y="0" name="m.uni0328_4"/>
  <outline>
    <contour>
      <point x="-5.07028" y="0" type="line"/>
      <point x="309.636" y="700" type="line"/>
      <point x="438.033" y="700" type="line"/>
      <point x="753.61" y="0" type="line"/>
      <point x="617.566" y="0" type="line"/>
      <point x="347.165" y="630.66" type="line"/>
      <point x="399.117" y="630.66" type="line"/>
      <point x="128.716" y="0" type="line"/>
    </contour>
    <contour>
      <point x="140.364" y="162.048" type="line"/>
      <point x="175.117" y="264.141" type="line"/>
      <point x="552.835" y="264.141" type="line"/>
      <point x="588.458" y="162.048" type="line"/>
    </contour>
  </outline>
</glyph>
<glyph name="B" format="2">
  <advance width="761"/>
  <unicode hex="0042"/>
  <anchor x="383.741" y="700" name="t.uni0308"/>
  <anchor x="383.741" y="0" name="b.uni0324_3"/>
  <outline>
    <contour>
      <point x="94.4361" y="0" type="line"/>
      <point x="94.4361" y="700" type="line"/>
      <point x="422.294" y="700" type="line" smooth="yes"/>
      <point x="548.141" y="700"/>
      <point x="680.046" y="601.353"/>
      <point x="680.046" y="517.871" type="qcurve" smooth="yes"/>
      <point x="680.046" y="462.259"/>
      <point x="628.011" y="382.741"/>
      <point x="541.259" y="339.965"/>
      <point x="489.73" y="339.965" type="qcurve"/>
      <point x="507.989" y="375.682" type="line"/>
      <point x="567.353" y="375.682"/>
      <point x="661.105" y="333.165"/>
      <point x="715.658" y="250.518"/>
      <point x="715.658" y="190.388" type="qcurve" smooth="yes"/>
      <point x="715.658" y="100.259"/>
      <point x="577.717" y="0"/>
      <point x="442.294" y="0" type="qcurve" smooth="yes"/>
    </contour>
    <contour>
      <point x="223.704" y="102.316" type="line"/>
      <point x="434.482" y="102.316" type="line" smooth="yes"/>
      <point x="507.436" y="102.316"/>
      <point x="584.743" y="150.34"/>
      <point x="584.743" y="202.588" type="qcurve" smooth="yes"/>
      <point x="584.743" y="254.835"/>
      <point x="507.436" y="303.73"/>
      <point x="434.482" y="303.73" type="qcurve" smooth="yes"/>
      <point x="213.799" y="303.73" type="line"/>
      <point x="213.799" y="404.882" type="line"/>
      <point x="407.706" y="404.882" type="line" smooth="yes"/>
      <point x="475.566" y="404.882"/>
      <point x="549.131" y="452.776"/>
      <point x="549.131" y="501.283" type="qcurve" smooth="yes"/>
      <point x="549.131" y="549.919"/>
      <point x="475.566" y="597.684"/>
      <point x="407.706" y="597.684" type="qcurve" smooth="yes"/>
      <point x="223.704" y="597.684" type="line"/>
    </contour>
  </outline>
</glyph>
<glyph name="D" format="2">
  <advance width="826"/>
  <unicode hex="0044"/>
  <anchor x="346.811" y="700" name="t.uni0308"/>
  <anchor x="208.612" y="355" name="t.uni0307_1"/>
  <anchor x="347.941" y="0" name="b.uni0324_3"/>
  <outline>
    <contour>
      <point x="94.4361" y="0" type="line"/>
      <point x="94.4361" y="700" type="line"/>
      <point x="400.259" y="700" type="line" smooth="yes"/>
      <point x="513.776" y="700"/>
      <point x="685.682" y="612.388"/>
      <point x="782.2" y="455.518"/>
      <point x="782.2" y="350.129" type="qcurve" smooth="yes"/>
      <point x="782.2" y="244.612"/>
      <point x="685.682" y="87.6118"/>
      <point x="513.776" y="0"/>
      <point x="400.259" y="0" type="qcurve" smooth="yes"/>
    </contour>
    <contour>
      <point x="224.222" y="109.998" type="line"/>
      <point x="393.741" y="109.998" type="line" smooth="yes"/>
      <point x="472.471" y="109.998"/>
      <point x="587.519" y="169.764"/>
      <point x="651.284" y="277.847"/>
      <point x="651.284" y="350.129" type="qcurve" smooth="yes"/>
      <point x="651.284" y="423.153"/>
      <point x="587.519" y="530.236"/>
      <point x="472.471" y="590.002"/>
      <point x="393.741" y="590.002" type="qcurve" smooth="yes"/>
      <point x="224.222" y="590.002" type="line"/>
    </contour>
  </outline>
</glyph>
<glyph name="E" format="2">
  <advance width="670"/>
  <unicode hex="0045"/>
  <anchor x="335.906" y="700" name="t.uni0308"/>
  <anchor x="328.941" y="0" name="b.uni0324_3"/>
  <anchor x="653.8" y="0" name="m.uni0328_4"/>
  <outline>
    <contour>
      <point x="213.799" y="408.658" type="line"/>
      <point x="562.364" y="408.658" type="line"/>
      <point x="562.364" y="302.212" type="line"/>
      <point x="213.799" y="302.212" type="line"/>
    </contour>
    <contour>
      <point x="223.704" y="109.222" type="line"/>
      <point x="618.976" y="109.222" type="line"/>
      <point x="618.976" y="0" type="line"/>
      <point x="94.4361" y="0" type="line"/>
      <point x="94.4361" y="700" type="line"/>
      <point x="605.105" y="700" type="line"/>
      <point x="605.105" y="590.778" type="line"/>
      <point x="223.704" y="590.778" type="line"/>
    </contour>
  </outline>
</glyph>
<glyph name="F" format="2">
  <advance width="637"/>
  <unicode hex="0046"/>
  <outline>
    <contour>
      <point x="213.446" y="377.623" type="line"/>
      <point x="562.364" y="377.623" type="line"/>
      <point x="562.364" y="268.401" type="line"/>
      <point x="213.446" y="268.401" type="line"/>
    </contour>
    <contour>
      <point x="224.222" y="0" type="line"/>
      <point x="94.4361" y="0" type="line"/>
      <point x="94.4361" y="700" type="line"/>
      <point x="605.105" y="700" type="line"/>
      <point x="605.105" y="590.778" type="line"/>
      <point x="224.222" y="590.778" type="line"/>
    </contour>
  </outline>
</glyph>
<glyph name="G" format="2">
  <advance width="772"/>
  <unicode hex="0047"/>
  <anchor x="432.706" y="701.871" name="t.uni0308"/>
  <anchor x="412.612" y="0" name="b.uni0324_3"/>
  <outline>
    <contour>
      <point x="420.871" y="-9.90575" type="qcurve" smooth="yes"/>
      <point x="339.353" y="-9.90575"/>
      <point x="201.577" y="43.0943"/>
      <point x="100.059" y="140.224"/>
      <point x="43.8003" y="271.612"/>
      <point x="43.8003" y="350" type="qcurve" smooth="yes"/>
      <point x="43.8003" y="428.388"/>
      <point x="100.059" y="559.776"/>
      <point x="202.577" y="656.906"/>
      <point x="340.612" y="709.906"/>
      <point x="423.259" y="709.906" type="qcurve" smooth="yes"/>
      <point x="511.588" y="709.906"/>
      <point x="654.564" y="652.094"/>
      <point x="704.081" y="595.8" type="qcurve"/>
      <point x="621.859" y="515.907" type="line"/>
      <point x="581.024" y="557.39"/>
      <point x="485.741" y="596.39"/>
      <point x="429.165" y="596.39" type="qcurve" smooth="yes"/>
      <point x="373.623" y="596.39"/>
      <point x="280.152" y="560.201"/>
      <point x="211.775" y="494.177"/>
      <point x="174.716" y="404.059"/>
      <point x="174.716" y="350" type="qcurve" smooth="yes"/>
      <point x="174.716" y="297.07"/>
      <point x="211.775" y="206.823"/>
      <point x="280.152" y="139.928"/>
      <point x="372.494" y="103.61"/>
      <point x="427.906" y="103.61" type="qcurve" smooth="yes"/>
      <point x="480.094" y="103.61"/>
      <point x="576.989" y="136.704"/>
      <point x="620.859" y="175.799" type="qcurve"/>
      <point x="694.529" y="79.0943" type="line"/>
      <point x="640.105" y="35.2236"/>
      <point x="495.259" y="-9.90575"/>
    </contour>
    <contour>
      <point x="572.236" y="96.0351" type="line"/>
      <point x="572.236" y="357.682" type="line"/>
      <point x="694.529" y="357.682" type="line"/>
      <point x="694.529" y="79.0943" type="line"/>
    </contour>
  </outline>
</glyph>
<glyph name="I" format="2">
  <advance width="319"/>
  <unicode hex="0049"/>
  <anchor x="187.189" y="700" name="t.uni0308"/>
  <anchor x="187.189" y="0" name="b.uni0324_3"/>
  <anchor x="346.107" y="0" name="m.uni0328_4"/>
  <outline>
    <contour>
      <point x="94.4361" y="0" type="line"/>
      <point x="94.4361" y="700" type="line"/>
      <point x="224.222" y="700" type="line"/>
      <point x="224.222" y="0" type="line"/>
    </contour>
  </outline>
</glyph>
<glyph name="J" format="2">
  <advance width="527"/>
  <unicode hex="004A"/>
  <anchor x="318.471" y="700" name="t.uni0308"/>
  <outline>
    <contour>
      <point x="202.658" y="-9.90575" type="qcurve" smooth="yes"/>
      <point x="136.329" y="-9.90575"/>
      <point x="23.4824" y="42.2236"/>
      <point x="-12.6821" y="91.4824" type="qcurve"/>
      <point x="61.2108" y="179.669" type="line"/>
      <point x="90.0814" y="140.446"/>
      <point x="158.882" y="100.222"/>
      <point x="200.07" y="100.222" type="qcurve" smooth="yes"/>
      <point x="309.153" y="100.222"/>
      <point x="309.153" y="229.011" type="qcurve" smooth="yes"/>
      <point x="309.153" y="590.778" type="line"/>
      <point x="59.8355" y="590.778" type="line"/>
      <point x="59.8355" y="700" type="line"/>
      <point x="438.551" y="700" type="line"/>
      <point x="438.551" y="236.046" type="line" smooth="yes"/>
      <point x="438.551" y="112.07"/>
      <point x="318.411" y="-9.90575"/>
    </contour>
  </outline>
</glyph>
<glyph name="L" format="2">
  <advance width="599"/>
  <unicode hex="004C"/>
  <anchor x="187.189" y="700" name="t.uni0308"/>
  <anchor x="503.153" y="474.954" name="t.periodcentered.loclCAT"/>
  <anchor x="187.189" y="416.542" name="t.uni0307_1"/>
  <anchor x="414.294" y="700" name="t.uni031B_2"/>
  <anchor x="338.906" y="0" name="b.uni0324_3"/>
  <outline>
    <contour>
      <point x="94.4361" y="0" type="line"/>
      <point x="94.4361" y="700" type="line"/>
      <point x="224.222" y="700" type="line"/>
      <point x="224.222" y="109.869" type="line"/>
      <point x="589.847" y="109.869" type="line"/>
      <point x="589.847" y="0" type="line"/>
    </contour>
  </outline>
</glyph>
<glyph name="M" format="2">
  <advance width="955"/>
  <unicode hex="004D"/>
  <anchor x="475.129" y="700" name="t.uni0308"/>
  <anchor x="475.129" y="0" name="b.uni0324_3"/>
  <outline>
    <contour>
      <point x="94.4361" y="0" type="line"/>
      <point x="94.4361" y="700" type="line"/>
      <point x="201.375" y="700" type="line"/>
      <point x="507.494" y="189.022" type="line"/>
      <point x="450.765" y="189.022" type="line"/>
      <point x="752.366" y="700" type="line"/>
      <point x="859.305" y="700" type="line"/>
      <point x="860.434" y="0" type="line"/>
      <point x="736.848" y="0" type="line"/>
      <point x="735.719" y="506.591" type="line"/>
      <point x="761.883" y="506.591" type="line"/>
      <point x="506.235" y="79.5415" type="line"/>
      <point x="447.506" y="79.5415" type="line"/>
      <point x="188.211" y="506.591" type="line"/>
      <point x="218.022" y="506.591" type="line"/>
      <point x="218.022" y="0" type="line"/>
    </contour>
  </outline>
</glyph>
<glyph name="N" format="2">
  <advance width="810"/>
  <unicode hex="004E"/>
  <anchor x="399.388" y="700" name="t.uni0308"/>
  <anchor x="399.388" y="0" name="b.uni0324_3"/>
  <outline>
    <contour>
      <point x="94.4361" y="0" type="line"/>
      <point x="94.4361" y="700" type="line"/>
      <point x="201.375" y="700" type="line"/>
      <point x="640.083" y="160.821" type="line"/>
      <point x="586.649" y="160.821" type="line"/>
      <point x="586.649" y="700" type="line"/>
      <point x="715.658" y="700" type="line"/>
      <point x="715.658" y="0" type="line"/>
      <point x="608.719" y="0" type="line"/>
      <point x="170.011" y="539.179" type="line"/>
      <point x="223.446" y="539.179" type="line"/>
      <point x="223.446" y="0" type="line"/>
    </contour>
  </outline>
</glyph>
<glyph name="Q" format="2">
  <advance width="842"/>
  <unicode hex="0051"/>
  <anchor x="427.612" y="700" name="t.uni0308"/>
  <outline>
    <contour>
      <point x="421.388" y="-9.90575" type="qcurve" smooth="yes"/>
      <point x="339.871" y="-9.90575"/>
      <point x="201.835" y="44.0943"/>
      <point x="100.189" y="141.353"/>
      <point x="43.8003" y="272.741"/>
      <point x="43.8003" y="350" type="qcurve" smooth="yes"/>
      <point x="43.8003" y="427.388"/>
      <point x="100.189" y="558.647"/>
      <point x="201.835" y="655.906"/>
      <point x="339.871" y="709.906"/>
      <point x="421.388" y="709.906" type="qcurve" smooth="yes"/>
      <point x="503.035" y="709.906"/>
      <point x="640.07" y="656.776"/>
      <point x="741.717" y="559.518"/>
      <point x="798.105" y="428.259"/>
      <point x="798.105" y="350" type="qcurve" smooth="yes"/>
      <point x="798.105" y="271.871"/>
      <point x="741.717" y="140.482"/>
      <point x="640.07" y="43.2236"/>
      <point x="503.035" y="-9.90575"/>
    </contour>
    <contour>
      <point x="650.388" y="-153.494" type="qcurve" smooth="yes"/>
      <point x="612.706" y="-153.494"/>
      <point x="544.377" y="-136.235"/>
      <point x="476.695" y="-97.4585"/>
      <point x="404.625" y="-34.3882"/>
      <point x="362.072" y="12.1645" type="qcurve"/>
      <point x="499.858" y="47.7875" type="line"/>
      <point x="528.211" y="10.7875"/>
      <point x="578.752" y="-34.4361"/>
      <point x="627.423" y="-53.9186"/>
      <point x="652.776" y="-53.9186" type="qcurve" smooth="yes"/>
      <point x="722.189" y="-53.9186"/>
      <point x="773.283" y="2.39934" type="qcurve"/>
      <point x="832.623" y="-69.7172" type="line"/>
      <point x="762.847" y="-153.494"/>
    </contour>
    <contour>
      <point x="421.388" y="103.61" type="qcurve" smooth="yes"/>
      <point x="474.412" y="103.61"/>
      <point x="563.625" y="139.799"/>
      <point x="630.131" y="206.564"/>
      <point x="667.19" y="296.811"/>
      <point x="667.19" y="350" type="qcurve" smooth="yes"/>
      <point x="667.19" y="404.059"/>
      <point x="630.131" y="493.436"/>
      <point x="563.625" y="560.201"/>
      <point x="474.412" y="596.39"/>
      <point x="421.388" y="596.39" type="qcurve" smooth="yes"/>
      <point x="368.364" y="596.39"/>
      <point x="278.281" y="560.201"/>
      <point x="211.775" y="493.436"/>
      <point x="174.716" y="404.059"/>
      <point x="174.716" y="350" type="qcurve" smooth="yes"/>
      <point x="174.716" y="296.811"/>
      <point x="211.775" y="206.564"/>
      <point x="278.281" y="139.799"/>
      <point x="368.364" y="103.61"/>
    </contour>
  </outline>
</glyph>
<glyph name="R" format="2">
  <advance width="731"/>
  <unicode hex="0052"/>
  <anchor x="384.224" y="700" name="t.uni0308"/>
  <anchor x="384.224" y="0" name="b.uni0324_3"/>
  <outline>
    <contour>
      <point x="94.4361" y="0" type="line"/>
      <point x="94.4361" y="700" type="line"/>
      <point x="381.811" y="700" type="line" smooth="yes"/>
      <point x="474.588" y="700"/>
      <point x="608.011" y="640.353"/>
      <point x="679.917" y="528.318"/>
      <point x="679.917" y="450.8" type="qcurve" smooth="yes"/>
      <point x="679.917" y="374.153"/>
      <point x="608.011" y="263.248"/>
      <point x="474.588" y="203.859"/>
      <point x="381.811" y="203.859" type="qcurve" smooth="yes"/>
      <point x="166.235" y="203.859" type="line"/>
      <point x="224.222" y="262.553" type="line"/>
      <point x="224.222" y="0" type="line"/>
    </contour>
    <contour>
      <point x="551.743" y="0" type="line"/>
      <point x="374.519" y="254.129" type="line"/>
      <point x="513.952" y="254.129" type="line"/>
      <point x="692.305" y="0" type="line"/>
    </contour>
    <contour>
      <point x="224.222" y="248.741" type="line"/>
      <point x="166.235" y="311.34" type="line"/>
      <point x="376.388" y="311.34" type="line" smooth="yes"/>
      <point x="461.954" y="311.34"/>
      <point x="549.002" y="384.941"/>
      <point x="549.002" y="450.8" type="qcurve" smooth="yes"/>
      <point x="549.002" y="517.53"/>
      <point x="461.954" y="590.26"/>
      <point x="376.388" y="590.26" type="qcurve" smooth="yes"/>
      <point x="166.235" y="590.26" type="line"/>
      <point x="224.222" y="653.73" type="line"/>
    </contour>
  </outline>
</glyph>
<glyph name="U" format="2">
  <advance width="789"/>
  <unicode hex="0055"/>
  <anchor x="393.129" y="700" name="t.uni0308"/>
  <anchor x="627.811" y="700" name="t.uni031B_2"/>
  <anchor x="393.129" y="0" name="b.uni0324_3"/>
  <anchor x="633.93" y="0" name="m.uni0328_4"/>
  <outline>
    <contour>
      <point x="394.612" y="-9.90575" type="qcurve" smooth="yes"/>
      <point x="251.024" y="-9.90575"/>
      <point x="88.4361" y="151.906"/>
      <point x="88.4361" y="305.423" type="qcurve" smooth="yes"/>
      <point x="88.4361" y="700" type="line"/>
      <point x="218.222" y="700" type="line"/>
      <point x="218.222" y="309.811" type="line" smooth="yes"/>
      <point x="218.222" y="201.952"/>
      <point x="311.046" y="103.61"/>
      <point x="395.741" y="103.61" type="qcurve" smooth="yes"/>
      <point x="480.566" y="103.61"/>
      <point x="573.26" y="201.952"/>
      <point x="573.26" y="309.811" type="qcurve" smooth="yes"/>
      <point x="573.26" y="700" type="line"/>
      <point x="700.788" y="700" type="line"/>
      <point x="700.788" y="305.423" type="line" smooth="yes"/>
      <point x="700.788" y="151.906"/>
      <point x="538.2" y="-9.90575"/>
    </contour>
  </outline>
</glyph>
<glyph name="V" format="2">
  <advance width="729"/>
  <unicode hex="0056"/>
  <outline>
    <contour>
      <point x="300.506" y="0" type="line"/>
      <point x="-5.07028" y="700" type="line"/>
      <point x="135.751" y="700" type="line"/>
      <point x="408.963" y="67.2108" type="line"/>
      <point x="327.612" y="67.2108" type="line"/>
      <point x="604.342" y="700" type="line"/>
      <point x="733.61" y="700" type="line"/>
      <point x="428.904" y="0" type="line"/>
    </contour>
  </outline>
</glyph>
<glyph name="W" format="2">
  <advance width="1144"/>
  <unicode hex="0057"/>
  <anchor x="627.377" y="700" name="t.uni0308"/>
  <anchor x="627.377" y="0" name="b.uni0324_3"/>
  <outline>
    <contour>
      <point x="259.248" y="0" type="line"/>
      <point x="27.4122" y="700" type="line"/>
      <point x="161.586" y="700" type="line"/>
      <point x="368.704" y="67.2108" type="line"/>
      <point x="301.553" y="67.2108" type="line"/>
      <point x="517.059" y="700" type="line"/>
      <point x="637.422" y="700" type="line"/>
      <point x="846.022" y="67.2108" type="line"/>
      <point x="781.259" y="67.2108" type="line"/>
      <point x="992.895" y="700" type="line"/>
      <point x="1116.77" y="700" type="line"/>
      <point x="884.939" y="0" type="line"/>
      <point x="746.859" y="0" type="line"/>
      <point x="555.588" y="571.061" type="line"/>
      <point x="592.246" y="571.061" type="line"/>
      <point x="398.198" y="0" type="line"/>
    </contour>
  </outline>
</glyph>
<glyph name="bracketleft" format="2">
  <advance width="350"/>
  <unicode hex="005B"/>
  <outline>
    <contour>
      <point x="94.4361" y="-194" type="line"/>
      <point x="94.4361" y="742" type="line"/>
      <point x="332.963" y="742" type="line"/>
      <point x="332.963" y="641.649" type="line"/>
      <point x="219.446" y="641.649" type="line"/>
      <point x="219.446" y="-93.6486" type="line"/>
      <point x="332.963" y="-93.6486" type="line"/>
      <point x="332.963" y="-194" type="line"/>
    </contour>
  </outline>
</glyph>
<glyph name="backslash" format="2">
  <advance width="371"/>
  <unicode hex="005C"/>
  <outline>
    <contour>
      <point x="401.645" y="-100" type="line"/>
      <point x="289.577" y="-100" type="line"/>
      <point x="-40.4233" y="842" type="line"/>
      <point x="71.6453" y="842" type="line"/>
    </contour>
  </outline>
</glyph>
<glyph name="bracketright" format="2">
  <advance width="350"/>
  <unicode hex="005D"/>
  <outline>
    <contour>
      <point x="255.492" y="-194" type="line"/>
      <point x="16.9649" y="-194" type="line"/>
      <point x="16.9649" y="-93.6486" type="line"/>
      <point x="130.482" y="-93.6486" type="line"/>
      <point x="130.482" y="641.649" type="line"/>
      <point x="16.9649" y="641.649" type="line"/>
      <point x="16.9649" y="742" type="line"/>
      <point x="255.492" y="742" type="line"/>
    </contour>
  </outline>
</glyph>
<glyph name="asciicircum" format="2">
  <advance width="591"/>
  <unicode hex="005E"/>
  <outline>
    <contour>
      <point x="66.4713" y="141.612" type="line"/>
      <point x="245.377" y="558.388" type="line"/>
      <point x="346.764" y="558.388" type="line"/>
      <point x="524.799" y="141.612" type="line"/>
      <point x="427.059" y="141.612" type="line"/>
      <point x="268.835" y="522.8" type="line"/>
      <point x="322.434" y="522.8" type="line"/>
      <point x="164.211" y="141.612" type="line"/>
    </contour>
  </outline>
</glyph>
<glyph name="b" format="2">
  <advance width="686"/>
  <unicode hex="0062"/>
  <outline>
    <contour>
      <point x="378.434" y="-6.51757" type="qcurve" smooth="yes"/>
      <point x="310.399" y="-6.51757"/>
      <point x="203.599" y="52.6118"/>
      <point x="143.446" y="174.259"/>
      <point x="143.446" y="267.035" type="qcurve" smooth="yes"/>
      <point x="143.446" y="360.553"/>
      <point x="205.728" y="481.2"/>
      <point x="312.658" y="540.458"/>
      <point x="378.434" y="540.458" type="qcurve" smooth="yes"/>
      <point x="456.529" y="540.458"/>
      <point x="578.27" y="472.458"/>
      <point x="648.529" y="349.811"/>
      <point x="648.529" y="267.035" type="qcurve" smooth="yes"/>
      <point x="648.529" y="184.259"/>
      <point x="578.27" y="61.6118"/>
      <point x="456.529" y="-6.51757"/>
    </contour>
    <contour>
      <point x="82.2125" y="0" type="line"/>
      <point x="82.2125" y="742" type="line"/>
      <point x="207.222" y="742" type="line"/>
      <point x="207.222" y="409.575" type="line"/>
      <point x="197.222" y="267.906" type="line"/>
      <point x="201.446" y="126.236" type="line"/>
      <point x="201.446" y="0" type="line"/>
    </contour>
    <contour>
      <point x="363.612" y="99.8338" type="qcurve" smooth="yes"/>
      <point x="408.636" y="99.8338"/>
      <point x="479.978" y="140.375"/>
      <point x="522.26" y="216.364"/>
      <point x="522.26" y="267.035" type="qcurve" smooth="yes"/>
      <point x="522.26" y="318.706"/>
      <point x="479.978" y="393.566"/>
      <point x="408.636" y="434.107"/>
      <point x="363.612" y="434.107" type="qcurve" smooth="yes"/>
      <point x="318.588" y="434.107"/>
      <point x="247.246" y="393.566"/>
      <point x="204.963" y="318.706"/>
      <point x="204.963" y="267.035" type="qcurve" smooth="yes"/>
      <point x="204.963" y="216.364"/>
      <point x="247.246" y="140.375"/>
      <point x="318.588" y="99.8338"/>
    </contour>
  </outline>
</glyph>
<glyph name="c" format="2">
  <advance width="581"/>
  <unicode hex="0063"/>
  <anchor x="336.189" y="560.059" name="t.uni0308"/>
  <anchor x="325.577" y="0" name="b.uni0324_3"/>
  <outline>
    <contour>
      <point x="326.588" y="-6.51757" type="qcurve" smooth="yes"/>
      <point x="243.035" y="-6.51757"/>
      <point x="111.835" y="63.7412"/>
      <point x="37.5415" y="187.518"/>
      <point x="37.5415" y="267.035" type="qcurve" smooth="yes"/>
      <point x="37.5415" y="347.423"/>
      <point x="111.835" y="470.2"/>
      <point x="243.035" y="540.458"/>
      <point x="326.588" y="540.458" type="qcurve" smooth="yes"/>
      <point x="404.823" y="540.458"/>
      <point x="524.187" y="477.094"/>
      <point x="554.669" y="415.895" type="qcurve"/>
      <point x="458.895" y="359.495" type="line"/>
      <point x="434.93" y="397.495"/>
      <point x="365.906" y="434.107"/>
      <point x="325.588" y="434.107" type="qcurve" smooth="yes"/>
      <point x="279.693" y="434.107"/>
      <point x="206.222" y="393.566"/>
      <point x="163.81" y="318.706"/>
      <point x="163.81" y="267.035" type="qcurve" smooth="yes"/>
      <point x="163.81" y="215.364"/>
      <point x="206.222" y="140.375"/>
      <point x="279.693" y="99.8338"/>
      <point x="325.588" y="99.8338" type="qcurve" smooth="yes"/>
      <point x="365.906" y="99.8338"/>
      <point x="434.93" y="135.575"/>
      <point x="458.895" y="174.446" type="qcurve"/>
      <point x="554.669" y="118.046" type="line"/>
      <point x="524.187" y="57.7172"/>
      <point x="404.823" y="-6.51757"/>
    </contour>
  </outline>
</glyph>
<glyph name="d" format="2">
  <advance width="687"/>
  <unicode hex="0064"/>
  <anchor x="493.741" y="644.353" name="t.uni0307_1"/>
  <anchor x="753.248" y="742" name="t.uni031B_2"/>
  <anchor x="401.153" y="0" name="b.uni0324_3"/>
  <outline>
    <contour>
      <point x="308.283" y="-6.51757" type="qcurve" smooth="yes"/>
      <point x="231.189" y="-6.51757"/>
      <point x="108.447" y="61.6118"/>
      <point x="38.1885" y="184.259"/>
      <point x="38.1885" y="267.035" type="qcurve" smooth="yes"/>
      <point x="38.1885" y="349.811"/>
      <point x="108.447" y="472.458"/>
      <point x="231.189" y="540.458"/>
      <point x="308.283" y="540.458" type="qcurve" smooth="yes"/>
      <point x="375.059" y="540.458"/>
      <point x="480.989" y="481.2"/>
      <point x="543.272" y="360.553"/>
      <point x="543.272" y="267.035" type="qcurve" smooth="yes"/>
      <point x="543.272" y="174.259"/>
      <point x="483.118" y="52.6118"/>
      <point x="377.318" y="-6.51757"/>
    </contour>
    <contour>
      <point x="323.105" y="99.8338" type="qcurve" smooth="yes"/>
      <point x="368.129" y="99.8338"/>
      <point x="439.471" y="140.375"/>
      <point x="481.754" y="216.364"/>
      <point x="481.754" y="267.035" type="qcurve" smooth="yes"/>
      <point x="481.754" y="318.706"/>
      <point x="439.471" y="393.566"/>
      <point x="368.129" y="434.107"/>
      <point x="323.105" y="434.107" type="qcurve" smooth="yes"/>
      <point x="278.081" y="434.107"/>
      <point x="206.74" y="393.566"/>
      <point x="164.457" y="318.706"/>
      <point x="164.457" y="267.035" type="qcurve" smooth="yes"/>
      <point x="164.457" y="216.364"/>
      <point x="206.74" y="140.375"/>
      <point x="278.081" y="99.8338"/>
    </contour>
    <contour>
      <point x="485.272" y="0" type="line"/>
      <point x="485.272" y="126.236" type="line"/>
      <point x="489.495" y="267.906" type="line"/>
      <point x="479.495" y="409.575" type="line"/>
      <point x="479.495" y="742" type="line"/>
      <point x="604.505" y="742" type="line"/>
      <point x="604.505" y="0" type="line"/>
    </contour>
  </outline>
</glyph>
<glyph name="e" format="2">
  <advance width="622"/>
  <unicode hex="0065"/>
  <anchor x="340.059" y="560.059" name="t.uni0308"/>
  <anchor x="340.059" y="0" name="b.uni0324_3"/>
  <anchor x="579.989" y="0" name="m.uni0328_4"/>
  <outline>
    <contour>
      <point x="332.847" y="-6.51757" type="qcurve" smooth="yes"/>
      <point x="244.165" y="-6.51757"/>
      <point x="110.835" y="64"/>
      <point x="37.5415" y="187.776"/>
      <point x="37.5415" y="267.035" type="qcurve" smooth="yes"/>
      <point x="37.5415" y="346.553"/>
      <point x="108.965" y="470.2"/>
      <point x="234.294" y="540.458"/>
      <point x="313.588" y="540.458" type="qcurve" smooth="yes"/>
      <point x="391.976" y="540.458"/>
      <point x="514.176" y="472.105"/>
      <point x="584.117" y="347.847"/>
      <point x="584.117" y="263.553" type="qcurve" smooth="yes"/>
      <point x="584.117" y="255.906"/>
      <point x="582.987" y="235.612"/>
      <point x="581.987" y="227.094" type="qcurve"/>
      <point x="137.481" y="227.094" type="line"/>
      <point x="137.481" y="309.976" type="line"/>
      <point x="515.965" y="309.976" type="line"/>
      <point x="466.66" y="283.588" type="line"/>
      <point x="467.53" y="329.518"/>
      <point x="427.989" y="399.765"/>
      <point x="359.259" y="439.566"/>
      <point x="313.847" y="439.566" type="qcurve" smooth="yes"/>
      <point x="268.434" y="439.566"/>
      <point x="198.704" y="399.765"/>
      <point x="160.163" y="328.647"/>
      <point x="160.163" y="280.976" type="qcurve" smooth="yes"/>
      <point x="160.163" y="260.906" type="line" smooth="yes"/>
      <point x="160.163" y="212.847"/>
      <point x="203.834" y="139.34"/>
      <point x="283.693" y="98.6693"/>
      <point x="336.364" y="98.6693" type="qcurve" smooth="yes"/>
      <point x="381.329" y="98.6693"/>
      <point x="452.965" y="127.375"/>
      <point x="480.835" y="156.952" type="qcurve"/>
      <point x="548.34" y="79.7412" type="line"/>
      <point x="511.823" y="37.6118"/>
      <point x="402.658" y="-6.51757"/>
    </contour>
  </outline>
</glyph>
<glyph name="f" format="2">
  <advance width="369"/>
  <unicode hex="0066"/>
  <outline>
    <contour>
      <point x="98.5064" y="0" type="line"/>
      <point x="98.5064" y="563.53" type="line" smooth="yes"/>
      <point x="98.5064" y="647.765"/>
      <point x="197.647" y="748.518"/>
      <point x="290.27" y="748.518" type="qcurve" smooth="yes"/>
      <point x="322.788" y="748.518"/>
      <point x="381.858" y="734.647"/>
      <point x="402.505" y="719.776" type="qcurve"/>
      <point x="367.658" y="626.331" type="line"/>
      <point x="354.046" y="636.554"/>
      <point x="318.47" y="648.037"/>
      <point x="299.246" y="648.037" type="qcurve" smooth="yes"/>
      <point x="260.446" y="648.037"/>
      <point x="219.998" y="604.978"/>
      <point x="219.998" y="562.401" type="qcurve" smooth="yes"/>
      <point x="219.998" y="501.577" type="line"/>
      <point x="223.516" y="446.013" type="line"/>
      <point x="223.516" y="0" type="line"/>
    </contour>
    <contour>
      <point x="11.3179" y="430.355" type="line"/>
      <point x="11.3179" y="530.059" type="line"/>
      <point x="366.858" y="530.059" type="line"/>
      <point x="366.858" y="430.355" type="line"/>
    </contour>
  </outline>
</glyph>
<glyph name="g" format="2">
  <advance width="694"/>
  <unicode hex="0067"/>
  <anchor x="369.8" y="560.059" name="t.uni0308"/>
  <outline>
    <contour>
      <point x="323.647" y="-200.518" type="qcurve" smooth="yes"/>
      <point x="249.612" y="-200.518"/>
      <point x="109.353" y="-162.165"/>
      <point x="63.5767" y="-124.682" type="qcurve"/>
      <point x="119.553" y="-30.754" type="line"/>
      <point x="155.035" y="-60.1071"/>
      <point x="261.871" y="-95.2013"/>
      <point x="317.189" y="-95.2013" type="qcurve" smooth="yes"/>
      <point x="405.471" y="-95.2013"/>
      <point x="487.236" y="-14.4361"/>
      <point x="487.236" y="66.6821" type="qcurve" smooth="yes"/>
      <point x="487.236" y="162.307" type="line"/>
      <point x="497.236" y="282.682" type="line"/>
      <point x="493.013" y="403.928" type="line"/>
      <point x="493.013" y="533.941" type="line"/>
      <point x="612.246" y="533.941" type="line"/>
      <point x="612.246" y="81.1406" type="line" smooth="yes"/>
      <point x="612.246" y="-63.9297"/>
      <point x="464.105" y="-200.518"/>
    </contour>
    <contour>
      <point x="308.377" y="23.9057" type="qcurve" smooth="yes"/>
      <point x="231.542" y="23.9057"/>
      <point x="108.93" y="88.9057"/>
      <point x="37.5415" y="205.165"/>
      <point x="37.5415" y="282.682" type="qcurve" smooth="yes"/>
      <point x="37.5415" y="360.2"/>
      <point x="108.93" y="476.458"/>
      <point x="231.542" y="540.458"/>
      <point x="308.377" y="540.458" type="qcurve" smooth="yes"/>
      <point x="375.895" y="540.458"/>
      <point x="484.307" y="486.2"/>
      <point x="549.201" y="371.811"/>
      <point x="549.201" y="282.682" type="qcurve" smooth="yes"/>
      <point x="549.201" y="193.553"/>
      <point x="484.307" y="79.1645"/>
      <point x="375.895" y="23.9057"/>
    </contour>
    <contour>
      <point x="326.588" y="130.257" type="qcurve" smooth="yes"/>
      <point x="374.482" y="130.257"/>
      <point x="447.824" y="168.799"/>
      <point x="489.236" y="237.529"/>
      <point x="489.236" y="282.682" type="qcurve" smooth="yes"/>
      <point x="489.236" y="327.965"/>
      <point x="447.824" y="396.566"/>
      <point x="374.482" y="434.107"/>
      <point x="326.588" y="434.107" type="qcurve" smooth="yes"/>
      <point x="279.693" y="434.107"/>
      <point x="205.351" y="396.566"/>
      <point x="163.81" y="327.965"/>
      <point x="163.81" y="282.682" type="qcurve" smooth="yes"/>
      <point x="163.81" y="237.529"/>
      <point x="205.351" y="168.799"/>
      <point x="279.693" y="130.257"/>
    </contour>
  </outline>
</glyph>
<glyph name="h" format="2">
  <advance width="685"/>
  <unicode hex="0068"/>
  <anchor x="177.8" y="742" name="t.uni0308"/>
  <anchor x="223.577" y="644.353" name="t.uni0307_1"/>
  <anchor x="341.342" y="560.059" name="t.uni031B_2"/>
  <anchor x="362.835" y="0" name="b.uni0324_3"/>
  <outline>
    <contour>
      <point x="384.728" y="540.458" type="qcurve" smooth="yes"/>
      <point x="449.47" y="540.458"/>
      <point x="549.728" y="490.329"/>
      <point x="607.858" y="386.682"/>
      <point x="607.858" y="305.906" type="qcurve" smooth="yes"/>
      <point x="607.858" y="0" type="line"/>
      <point x="482.848" y="0" type="line"/>
      <point x="482.848" y="289.542" type="line" smooth="yes"/>
      <point x="482.848" y="360.566"/>
      <point x="416.377" y="430.554"/>
      <point x="355.776" y="430.554" type="qcurve" smooth="yes"/>
      <point x="311.882" y="430.554"/>
      <point x="244.152" y="394.754"/>
      <point x="207.222" y="324.118"/>
      <point x="207.222" y="270.059" type="qcurve" smooth="yes"/>
      <point x="207.222" y="0" type="line"/>
      <point x="82.2125" y="0" type="line"/>
      <point x="82.2125" y="742" type="line"/>
      <point x="207.222" y="742" type="line"/>
      <point x="207.222" y="389.612" type="line"/>
      <point x="180.211" y="433.871" type="line"/>
      <point x="207.858" y="485.423"/>
      <point x="315.117" y="540.458"/>
    </contour>
  </outline>
</glyph>
<glyph name="k" format="2">
  <advance width="636"/>
  <unicode hex="006B"/>
  <anchor x="177.8" y="742" name="t.uni0308"/>
  <anchor x="336.342" y="560.059" name="t.uni031B_2"/>
  <anchor x="329.094" y="0" name="b.uni0324_3"/>
  <outline>
    <contour>
      <point x="184.152" y="118.73" type="line"/>
      <point x="187.411" y="275.904" type="line"/>
      <point x="466.083" y="533.941" type="line"/>
      <point x="616.422" y="533.941" type="line"/>
      <point x="378.61" y="296.318" type="line"/>
      <point x="312.623" y="241.013" type="line"/>
    </contour>
    <contour>
      <point x="82.2125" y="0" type="line"/>
      <point x="82.2125" y="742" type="line"/>
      <point x="207.222" y="742" type="line"/>
      <point x="207.222" y="0" type="line"/>
    </contour>
    <contour>
      <point x="485.048" y="0" type="line"/>
      <point x="289.776" y="241.366" type="line"/>
      <point x="368.704" y="340.976" type="line"/>
      <point x="637.033" y="0" type="line"/>
    </contour>
  </outline>
</glyph>
<glyph name="l" format="2">
  <advance width="289"/>
  <unicode hex="006C"/>
  <anchor x="177.8" y="742" name="t.uni0308"/>
  <anchor x="478.684" y="378.706" name="t.periodcentered.loclCAT"/>
  <anchor x="177.8" y="378.706" name="t.uni0307_1"/>
  <anchor x="387.789" y="742" name="t.uni031B_2"/>
  <anchor x="177.8" y="0" name="b.uni0324_3"/>
  <outline>
    <contour>
      <point x="82.2125" y="0" type="line"/>
      <point x="82.2125" y="742" type="line"/>
      <point x="207.222" y="742" type="line"/>
      <point x="207.222" y="0" type="line"/>
    </contour>
  </outline>
</glyph>
<glyph name="m" format="2">
  <advance width="1053"/>
  <unicode hex="006D"/>
  <anchor x="512.035" y="0" name="b.uni0324_3"/>
  <outline>
    <contour>
      <point x="755.717" y="540.458" type="qcurve" smooth="yes"/>
      <point x="820.329" y="540.458"/>
      <point x="919.329" y="490.329"/>
      <point x="975.458" y="386.682"/>
      <point x="975.458" y="305.906" type="qcurve" smooth="yes"/>
      <point x="975.458" y="0" type="line"/>
      <point x="850.449" y="0" type="line"/>
      <point x="850.449" y="289.542" type="line" smooth="yes"/>
      <point x="850.449" y="360.566"/>
      <point x="787.719" y="430.554"/>
      <point x="730.248" y="430.554" type="qcurve" smooth="yes"/>
      <point x="689.353" y="430.554"/>
      <point x="626.011" y="394.883"/>
      <point x="591.34" y="324.895"/>
      <point x="591.34" y="271.353" type="qcurve" smooth="yes"/>
      <point x="591.34" y="0" type="line"/>
      <point x="466.331" y="0" type="line"/>
      <point x="466.331" y="289.542" type="line" smooth="yes"/>
      <point x="466.331" y="360.566"/>
      <point x="403.859" y="430.554"/>
      <point x="346.129" y="430.554" type="qcurve" smooth="yes"/>
      <point x="305.235" y="430.554"/>
      <point x="241.893" y="394.883"/>
      <point x="207.222" y="324.895"/>
      <point x="207.222" y="271.353" type="qcurve" smooth="yes"/>
      <point x="207.222" y="0" type="line"/>
      <point x="82.2125" y="0" type="line"/>
      <point x="82.2125" y="533.941" type="line"/>
      <point x="201.446" y="533.941" type="line"/>
      <point x="201.446" y="391.741" type="line"/>
      <point x="180.081" y="434" type="line"/>
      <point x="206.728" y="485.553"/>
      <point x="309.858" y="540.458"/>
      <point x="376.47" y="540.458" type="qcurve" smooth="yes"/>
      <point x="451.081" y="540.458"/>
      <point x="562.081" y="466.329"/>
      <point x="580.211" y="390.553" type="qcurve"/>
      <point x="531.235" y="407.647" type="line"/>
      <point x="556.882" y="467.811"/>
      <point x="677.105" y="540.458"/>
    </contour>
  </outline>
</glyph>
<glyph name="o" format="2">
  <advance width="645"/>
  <unicode hex="006F"/>
  <anchor x="348.189" y="560.059" name="t.uni0308"/>
  <anchor x="348.189" y="280.094" name="t.uni0307_1"/>
  <anchor x="419.811" y="559.189" name="t.uni031B_2"/>
  <anchor x="348.189" y="0" name="b.uni0324_3"/>
  <anchor x="485.989" y="0" name="m.uni0328_4"/>
  <outline>
    <contour>
      <point x="322.458" y="-6.51757" type="qcurve" smooth="yes"/>
      <point x="239.906" y="-6.51757"/>
      <point x="111.706" y="63.8706"/>
      <point x="37.5415" y="187.518"/>
      <point x="37.5415" y="267.035" type="qcurve" smooth="yes"/>
      <point x="37.5415" y="347.423"/>
      <point x="111.706" y="470.2"/>
      <point x="239.906" y="540.458"/>
      <point x="322.458" y="540.458" type="qcurve" smooth="yes"/>
      <point x="405.011" y="540.458"/>
      <point x="534.211" y="470.2"/>
      <point x="607.375" y="347.423"/>
      <point x="607.375" y="267.035" type="qcurve" smooth="yes"/>
      <point x="607.375" y="187.518"/>
      <point x="534.211" y="63.8706"/>
      <point x="405.011" y="-6.51757"/>
    </contour>
    <contour>
      <point x="322.458" y="99.8338" type="qcurve" smooth="yes"/>
      <point x="368.353" y="99.8338"/>
      <point x="439.695" y="140.375"/>
      <point x="481.107" y="216.364"/>
      <point x="481.107" y="267.035" type="qcurve" smooth="yes"/>
      <point x="481.107" y="318.706"/>
      <point x="439.695" y="393.566"/>
      <point x="368.353" y="434.107"/>
      <point x="323.329" y="434.107" type="qcurve" smooth="yes"/>
      <point x="277.434" y="434.107"/>
      <point x="206.093" y="393.566"/>
      <point x="163.81" y="318.706"/>
      <point x="163.81" y="267.035" type="qcurve" smooth="yes"/>
      <point x="163.81" y="216.364"/>
      <point x="206.093" y="140.375"/>
      <point x="277.434" y="99.8338"/>
    </contour>
  </outline>
</glyph>
<glyph name="p" format="2">
  <advance width="686"/>
  <unicode hex="0070"/>
  <anchor x="360.259" y="560.059" name="t.uni0308"/>
  <anchor x="432.283" y="0" name="b.uni0324_3"/>
  <outline>
    <contour>
      <point x="378.434" y="-6.51757" type="qcurve" smooth="yes"/>
      <point x="312.658" y="-6.51757"/>
      <point x="205.728" y="52.7412"/>
      <point x="143.446" y="174.259"/>
      <point x="143.446" y="266.906" type="qcurve" smooth="yes"/>
      <point x="143.446" y="360.682"/>
      <point x="203.599" y="481.329"/>
      <point x="310.399" y="540.458"/>
      <point x="378.434" y="540.458" type="qcurve" smooth="yes"/>
      <point x="456.529" y="540.458"/>
      <point x="578.27" y="472.329"/>
      <point x="648.529" y="349.682"/>
      <point x="648.529" y="266.906" type="qcurve" smooth="yes"/>
      <point x="648.529" y="184.129"/>
      <point x="578.27" y="61.4824"/>
      <point x="456.529" y="-6.51757"/>
    </contour>
    <contour>
      <point x="82.2125" y="-194" type="line"/>
      <point x="82.2125" y="533.941" type="line"/>
      <point x="201.446" y="533.941" type="line"/>
      <point x="201.446" y="407.704" type="line"/>
      <point x="197.222" y="266.035" type="line"/>
      <point x="207.222" y="124.366" type="line"/>
      <point x="207.222" y="-194" type="line"/>
    </contour>
    <contour>
      <point x="363.612" y="99.8338" type="qcurve" smooth="yes"/>
      <point x="408.636" y="99.8338"/>
      <point x="479.978" y="140.375"/>
      <point x="522.26" y="216.235"/>
      <point x="522.26" y="266.906" type="qcurve" smooth="yes"/>
      <point x="522.26" y="318.577"/>
      <point x="479.978" y="393.566"/>
      <point x="408.636" y="434.107"/>
      <point x="363.612" y="434.107" type="qcurve" smooth="yes"/>
      <point x="318.588" y="434.107"/>
      <point x="247.246" y="393.566"/>
      <point x="204.963" y="318.577"/>
      <point x="204.963" y="266.906" type="qcurve" smooth="yes"/>
      <point x="204.963" y="216.235"/>
      <point x="247.246" y="140.375"/>
      <point x="318.588" y="99.8338"/>
    </contour>
  </outline>
</glyph>
<glyph name="q" format="2">
  <advance width="686"/>
  <unicode hex="0071"/>
  <anchor x="352.059" y="560.059" name="t.uni0308"/>
  <anchor x="281.906" y="0" name="b.uni0324_3"/>
  <outline>
    <contour>
      <point x="307.636" y="-6.51757" type="qcurve" smooth="yes"/>
      <point x="230.542" y="-6.51757"/>
      <point x="107.8" y="61.4824"/>
      <point x="37.5415" y="184.129"/>
      <point x="37.5415" y="266.906" type="qcurve" smooth="yes"/>
      <point x="37.5415" y="349.682"/>
      <point x="107.8" y="472.329"/>
      <point x="230.542" y="540.458"/>
      <point x="307.636" y="540.458" type="qcurve" smooth="yes"/>
      <point x="376.671" y="540.458"/>
      <point x="482.471" y="481.329"/>
      <point x="542.625" y="360.682"/>
      <point x="542.625" y="266.906" type="qcurve" smooth="yes"/>
      <point x="542.625" y="174.259"/>
      <point x="480.342" y="52.7412"/>
      <point x="374.412" y="-6.51757"/>
    </contour>
    <contour>
      <point x="322.458" y="99.8338" type="qcurve" smooth="yes"/>
      <point x="367.482" y="99.8338"/>
      <point x="438.824" y="140.375"/>
      <point x="481.107" y="216.235"/>
      <point x="481.107" y="266.906" type="qcurve" smooth="yes"/>
      <point x="481.107" y="318.577"/>
      <point x="438.824" y="393.566"/>
      <point x="367.482" y="434.107"/>
      <point x="322.458" y="434.107" type="qcurve" smooth="yes"/>
      <point x="277.434" y="434.107"/>
      <point x="206.093" y="393.566"/>
      <point x="163.81" y="318.577"/>
      <point x="163.81" y="266.906" type="qcurve" smooth="yes"/>
      <point x="163.81" y="216.235"/>
      <point x="206.093" y="140.375"/>
      <point x="277.434" y="99.8338"/>
    </contour>
    <contour>
      <point x="478.848" y="-194" type="line"/>
      <point x="478.848" y="124.366" type="line"/>
      <point x="488.848" y="266.035" type="line"/>
      <point x="484.625" y="407.704" type="line"/>
      <point x="484.625" y="533.941" type="line"/>
      <point x="603.858" y="533.941" type="line"/>
      <point x="603.858" y="-194" type="line"/>
    </contour>
  </outline>
</glyph>
<glyph name="r" format="2">
  <advance width="420"/>
  <unicode hex="0072"/>
  <anchor x="251.965" y="560.059" name="t.uni0308"/>
  <anchor x="177.8" y="0" name="b.uni0324_3"/>
  <outline>
    <contour>
      <point x="82.2125" y="0" type="line"/>
      <point x="82.2125" y="533.941" type="line"/>
      <point x="201.446" y="533.941" type="line"/>
      <point x="201.446" y="387.224" type="line"/>
      <point x="187.34" y="429.871" type="line"/>
      <point x="210.599" y="484.294"/>
      <point x="314.505" y="540.458"/>
      <point x="390.634" y="540.458" type="qcurve"/>
      <point x="390.634" y="421.425" type="line"/>
      <point x="382.599" y="422.554"/>
      <point x="369.176" y="423.684"/>
      <point x="362.399" y="423.684" type="qcurve" smooth="yes"/>
      <point x="291.375" y="423.684"/>
      <point x="207.222" y="341.083"/>
      <point x="207.222" y="258.671" type="qcurve" smooth="yes"/>
      <point x="207.222" y="0" type="line"/>
    </contour>
  </outline>
</glyph>
<glyph name="s" format="2">
  <advance width="515"/>
  <unicode hex="0073"/>
  <anchor x="292.542" y="560.059" name="t.uni0308"/>
  <anchor x="292.542" y="0" name="b.uni0324_3"/>
  <outline>
    <contour>
      <point x="247.458" y="-6.51757" type="qcurve" smooth="yes"/>
      <point x="180.07" y="-6.51757"/>
      <point x="57.1294" y="27.8355"/>
      <point x="21.2236" y="52.7061" type="qcurve"/>
      <point x="69.2939" y="147.728" type="line"/>
      <point x="104.811" y="124.728"/>
      <point x="205.2" y="95.246"/>
      <point x="255.07" y="95.246" type="qcurve" smooth="yes"/>
      <point x="314.353" y="95.246"/>
      <point x="366.859" y="126.658"/>
      <point x="366.859" y="154.329" type="qcurve" smooth="yes"/>
      <point x="366.859" y="175.906"/>
      <point x="331.118" y="199.094"/>
      <point x="272.506" y="211.189"/>
      <point x="202.024" y="221.059"/>
      <point x="131.412" y="238.189"/>
      <point x="72.8003" y="270.706"/>
      <point x="37.0591" y="327.353"/>
      <point x="37.0591" y="373.482" type="qcurve" smooth="yes"/>
      <point x="37.0591" y="423.741"/>
      <point x="94.8355" y="499.035"/>
      <point x="199.811" y="540.458"/>
      <point x="271.788" y="540.458" type="qcurve" smooth="yes"/>
      <point x="325.693" y="540.458"/>
      <point x="436.117" y="515.847"/>
      <point x="472.152" y="493.717" type="qcurve"/>
      <point x="424.081" y="398.695" type="line"/>
      <point x="386.434" y="421.695"/>
      <point x="308.917" y="438.695"/>
      <point x="271.305" y="438.695" type="qcurve" smooth="yes"/>
      <point x="214.375" y="438.695"/>
      <point x="158.998" y="405.283"/>
      <point x="158.998" y="378.741" type="qcurve" smooth="yes"/>
      <point x="158.998" y="355.423"/>
      <point x="194.74" y="331.235"/>
      <point x="253.351" y="317.399"/>
      <point x="323.834" y="307.529"/>
      <point x="394.316" y="290.27"/>
      <point x="452.928" y="258.623"/>
      <point x="488.669" y="202.847"/>
      <point x="488.669" y="157.588" type="qcurve" smooth="yes"/>
      <point x="488.669" y="107.717"/>
      <point x="430.152" y="34.0351"/>
      <point x="322.434" y="-6.51757"/>
    </contour>
  </outline>
</glyph>
<glyph name="t" format="2">
  <advance width="424"/>
  <unicode hex="0074"/>
  <anchor x="208.895" y="686.542" name="t.uni0308"/>
  <anchor x="220.93" y="241.847" name="t.uni0307_1"/>
  <anchor x="387.307" y="742" name="t.uni031B_2"/>
  <anchor x="286.189" y="0" name="b.uni0324_3"/>
  <outline>
    <contour>
      <point x="282.658" y="-6.51757" type="qcurve" smooth="yes"/>
      <point x="194.906" y="-6.51757"/>
      <point x="98.5064" y="84.1997"/>
      <point x="98.5064" y="172.823" type="qcurve" smooth="yes"/>
      <point x="98.5064" y="651.717" type="line"/>
      <point x="223.516" y="651.717" type="line"/>
      <point x="223.516" y="175.693" type="line" smooth="yes"/>
      <point x="223.516" y="137.634"/>
      <point x="262.704" y="95.7044"/>
      <point x="298.375" y="95.7044" type="qcurve" smooth="yes"/>
      <point x="339.564" y="95.7044"/>
      <point x="367.658" y="117.669" type="qcurve"/>
      <point x="403.375" y="28.5767" type="line"/>
      <point x="380.858" y="10.9649"/>
      <point x="316.564" y="-6.51757"/>
    </contour>
    <contour>
      <point x="11.3179" y="430.355" type="line"/>
      <point x="11.3179" y="530.059" type="line"/>
      <point x="366.858" y="530.059" type="line"/>
      <point x="366.858" y="430.355" type="line"/>
    </contour>
  </outline>
</glyph>
<glyph name="u" format="2">
  <advance width="681"/>
  <unicode hex="0075"/>
  <anchor x="354.965" y="560.059" name="t.uni0308"/>
  <anchor x="533.259" y="560.059" name="t.uni031B_2"/>
  <anchor x="354.965" y="0" name="b.uni0324_3"/>
  <anchor x="685.436" y="0" name="m.uni0328_4"/>
  <outline>
    <contour>
      <point x="308.471" y="-6.51757" type="qcurve" smooth="yes"/>
      <point x="239.989" y="-6.51757"/>
      <point x="135.859" y="43.8706"/>
      <point x="77.6007" y="149.035"/>
      <point x="77.6007" y="229.329" type="qcurve" smooth="yes"/>
      <point x="77.6007" y="533.941" type="line"/>
      <point x="202.61" y="533.941" type="line"/>
      <point x="202.61" y="245.693" type="line" smooth="yes"/>
      <point x="202.61" y="173.764"/>
      <point x="268.47" y="103.387"/>
      <point x="328.458" y="103.387" type="qcurve" smooth="yes"/>
      <point x="371.965" y="103.387"/>
      <point x="437.436" y="139.187"/>
      <point x="474.236" y="210.823"/>
      <point x="474.236" y="263.882" type="qcurve" smooth="yes"/>
      <point x="474.236" y="533.941" type="line"/>
      <point x="599.246" y="533.941" type="line"/>
      <point x="599.246" y="0" type="line"/>
      <point x="480.013" y="0" type="line"/>
      <point x="480.013" y="144.07" type="line"/>
      <point x="501.248" y="100.2" type="line"/>
      <point x="473.989" y="48.3882"/>
      <point x="370.471" y="-6.51757"/>
    </contour>
  </outline>
</glyph>
<glyph name="w" format="2">
  <advance width="919"/>
  <unicode hex="0077"/>
  <anchor x="517.73" y="558.318" name="t.uni0308"/>
  <anchor x="517.73" y="0" name="b.uni0324_3"/>
  <outline>
    <contour>
      <point x="199.671" y="0" type="line"/>
      <point x="3.57668" y="533.941" type="line"/>
      <point x="121.81" y="533.941" type="line"/>
      <point x="290.187" y="62.9521" type="line"/>
      <point x="234.2" y="62.9521" type="line"/>
      <point x="409.577" y="533.941" type="line"/>
      <point x="515.387" y="533.941" type="line"/>
      <point x="686.375" y="62.9521" type="line"/>
      <point x="630.776" y="62.9521" type="line"/>
      <point x="804.153" y="533.941" type="line"/>
      <point x="915.093" y="533.941" type="line"/>
      <point x="718.128" y="0" type="line"/>
      <point x="598.248" y="0" type="line"/>
      <point x="442.329" y="417.296" type="line"/>
      <point x="478.728" y="417.296" type="line"/>
      <point x="319.551" y="0" type="line"/>
    </contour>
  </outline>
</glyph>
<glyph name="x" format="2">
  <advance width="573"/>
  <unicode hex="0078"/>
  <outline>
    <contour>
      <point x="9.28276" y="0" type="line"/>
      <point x="243.776" y="305.788" type="line"/>
      <point x="242.129" y="239.342" type="line"/>
      <point x="17.8946" y="533.941" type="line"/>
      <point x="157.104" y="533.941" type="line"/>
      <point x="313.799" y="324.211" type="line"/>
      <point x="260.717" y="324.176" type="line"/>
      <point x="418.965" y="533.941" type="line"/>
      <point x="554.104" y="533.941" type="line"/>
      <point x="327.998" y="239.024" type="line"/>
      <point x="328.869" y="305.693" type="line"/>
      <point x="563.457" y="0" type="line"/>
      <point x="421.989" y="0" type="line"/>
      <point x="256.941" y="222.601" type="line"/>
      <point x="309.281" y="215.695" type="line"/>
      <point x="147.198" y="0" type="line"/>
    </contour>
  </outline>
</glyph>
<glyph name="y" format="2">
  <advance width="578"/>
  <unicode hex="0079"/>
  <anchor x="340.859" y="560.059" name="t.uni0308"/>
  <anchor x="597.519" y="0" name="b.uni0324_3"/>
  <outline>
    <contour>
      <point x="126.47" y="-200.518" type="qcurve" smooth="yes"/>
      <point x="86.6933" y="-200.518"/>
      <point x="9.3642" y="-175.259"/>
      <point x="-16.8946" y="-151.518" type="qcurve"/>
      <point x="32.8578" y="-60.0719" type="line"/>
      <point x="51.599" y="-77.425"/>
      <point x="99.8227" y="-96.9074"/>
      <point x="125.046" y="-96.9074" type="qcurve" smooth="yes"/>
      <point x="158.529" y="-96.9074"/>
      <point x="200.976" y="-63.2013"/>
      <point x="218.811" y="-22.5304" type="qcurve" smooth="yes"/>
      <point x="249.647" y="46.7875" type="line"/>
      <point x="260.423" y="61.8227" type="line"/>
      <point x="461.542" y="533.941" type="line"/>
      <point x="582.387" y="533.941" type="line"/>
      <point x="332.139" y="-43.2125" type="line"/>
      <point x="307.363" y="-103.412"/>
      <point x="245.775" y="-172.612"/>
      <point x="171.411" y="-200.518"/>
    </contour>
    <contour>
      <point x="236.059" y="-18.9057" type="line"/>
      <point x="-4.55271" y="533.941" type="line"/>
      <point x="124.716" y="533.941" type="line"/>
      <point x="320.928" y="73.1166" type="line"/>
    </contour>
  </outline>
</glyph>
<glyph name="z" format="2">
  <advance width="532"/>
  <unicode hex="007A"/>
  <anchor x="307.412" y="560.059" name="t.uni0308"/>
  <anchor x="303.059" y="0" name="b.uni0324_3"/>
  <outline>
    <contour>
      <point x="37.8355" y="0" type="line"/>
      <point x="37.8355" y="78.6342" type="line"/>
      <point x="367.142" y="476.636" type="line"/>
      <point x="390.212" y="434.236" type="line"/>
      <point x="44.0943" y="434.236" type="line"/>
      <point x="44.0943" y="533.941" type="line"/>
      <point x="490.505" y="533.941" type="line"/>
      <point x="490.505" y="455.307" type="line"/>
      <point x="161.198" y="57.3051" type="line"/>
      <point x="136.387" y="99.7044" type="line"/>
      <point x="498.893" y="99.7044" type="line"/>
      <point x="498.893" y="0" type="line"/>
    </contour>
  </outline>
</glyph>
<glyph name="braceleft" format="2">
  <advance width="370"/>
  <unicode hex="007B"/>
  <outline>
    <contour>
      <point x="302.634" y="-194" type="line" smooth="yes"/>
      <point x="218.847" y="-194"/>
      <point x="133.189" y="-109.859"/>
      <point x="133.189" y="-30.6246" type="qcurve" smooth="yes"/>
      <point x="133.189" y="174.601" type="line" smooth="yes"/>
      <point x="133.189" y="200.212"/>
      <point x="109.189" y="222.954"/>
      <point x="88.4473" y="222.954" type="qcurve" smooth="yes"/>
      <point x="54.5767" y="222.954" type="line"/>
      <point x="54.5767" y="325.046" type="line"/>
      <point x="88.4473" y="325.046" type="line" smooth="yes"/>
      <point x="109.189" y="325.046"/>
      <point x="133.189" y="348.788"/>
      <point x="133.189" y="373.399" type="qcurve" smooth="yes"/>
      <point x="133.189" y="578.625" type="line" smooth="yes"/>
      <point x="133.189" y="658.73"/>
      <point x="218.847" y="742"/>
      <point x="302.634" y="742" type="qcurve" smooth="yes"/>
      <point x="353.128" y="742" type="line"/>
      <point x="353.128" y="641.649" type="line"/>
      <point x="331.81" y="641.649" type="line" smooth="yes"/>
      <point x="295.069" y="641.649"/>
      <point x="258.198" y="602.166"/>
      <point x="258.198" y="565.684" type="qcurve" smooth="yes"/>
      <point x="258.198" y="375.788" type="line" smooth="yes"/>
      <point x="258.198" y="336.458"/>
      <point x="237.516" y="292"/>
      <point x="194.634" y="271.224"/>
      <point x="160.658" y="266.353" type="qcurve"/>
      <point x="160.658" y="281.647" type="line"/>
      <point x="194.634" y="277.647"/>
      <point x="237.516" y="256"/>
      <point x="258.198" y="211.542"/>
      <point x="258.198" y="172.212" type="qcurve" smooth="yes"/>
      <point x="258.198" y="-17.6837" type="line" smooth="yes"/>
      <point x="258.198" y="-54.1662"/>
      <point x="295.069" y="-93.6486"/>
      <point x="331.81" y="-93.6486" type="qcurve" smooth="yes"/>
      <point x="353.128" y="-93.6486" type="line"/>
      <point x="353.128" y="-194" type="line"/>
    </contour>
  </outline>
</glyph>
<glyph name="bar" format="2">
  <advance width="303"/>
  <unicode hex="007C"/>
  <outline>
    <contour>
      <point x="94.4361" y="-194" type="line"/>
      <point x="94.4361" y="742" type="line"/>
      <point x="209.022" y="742" type="line"/>
      <point x="209.022" y="-194" type="line"/>
    </contour>
  </outline>
</glyph>
<glyph name="braceright" format="2">
  <advance width="370"/>
  <unicode hex="007D"/>
  <outline>
    <contour>
      <point x="67.4585" y="-194" type="qcurve" smooth="yes"/>
      <point x="16.9649" y="-194" type="line"/>
      <point x="16.9649" y="-93.6486" type="line"/>
      <point x="38.2828" y="-93.6486" type="line" smooth="yes"/>
      <point x="75.8946" y="-93.6486"/>
      <point x="112.765" y="-54.1662"/>
      <point x="112.765" y="-17.6837" type="qcurve" smooth="yes"/>
      <point x="112.765" y="172.212" type="line" smooth="yes"/>
      <point x="112.765" y="211.542"/>
      <point x="133.577" y="256"/>
      <point x="176.329" y="277.647"/>
      <point x="209.434" y="281.647" type="qcurve"/>
      <point x="209.434" y="266.353" type="line"/>
      <point x="176.329" y="271.224"/>
      <point x="133.577" y="292"/>
      <point x="112.765" y="336.458"/>
      <point x="112.765" y="375.788" type="qcurve" smooth="yes"/>
      <point x="112.765" y="565.684" type="line" smooth="yes"/>
      <point x="112.765" y="602.166"/>
      <point x="75.8946" y="641.649"/>
      <point x="38.2828" y="641.649" type="qcurve" smooth="yes"/>
      <point x="16.9649" y="641.649" type="line"/>
      <point x="16.9649" y="742" type="line"/>
      <point x="67.4585" y="742" type="line" smooth="yes"/>
      <point x="152.117" y="742"/>
      <point x="237.775" y="658.73"/>
      <point x="237.775" y="578.625" type="qcurve" smooth="yes"/>
      <point x="237.775" y="373.399" type="line" smooth="yes"/>
      <point x="237.775" y="348.788"/>
      <point x="261.775" y="325.046"/>
      <point x="281.645" y="325.046" type="qcurve" smooth="yes"/>
      <point x="315.516" y="325.046" type="line"/>
      <point x="315.516" y="222.954" type="line"/>
      <point x="281.645" y="222.954" type="line" smooth="yes"/>
      <point x="261.775" y="222.954"/>
      <point x="237.775" y="200.212"/>
      <point x="237.775" y="174.601" type="qcurve" smooth="yes"/>
      <point x="237.775" y="-30.6246" type="line" smooth="yes"/>
      <point x="237.775" y="-109.859"/>
      <point x="152.117" y="-194"/>
    </contour>
  </outline>
</glyph>
<glyph name="asciitilde" format="2">
  <advance width="590"/>
  <unicode hex="007E"/>
  <outline>
    <contour>
      <point x="395.941" y="257.636" type="qcurve" smooth="yes"/>
      <point x="360.2" y="257.636"/>
      <point x="305.588" y="285.859"/>
      <point x="260.976" y="321.824"/>
      <point x="221.623" y="350.048"/>
      <point x="200.27" y="350.048" type="qcurve" smooth="yes"/>
      <point x="170.434" y="350.048"/>
      <point x="135.599" y="304.859"/>
      <point x="133.599" y="266.153" type="qcurve"/>
      <point x="53.9297" y="266.153" type="line"/>
      <point x="55.9297" y="356.224"/>
      <point x="134.388" y="443.623"/>
      <point x="194.458" y="443.623" type="qcurve" smooth="yes"/>
      <point x="230.2" y="443.623"/>
      <point x="284.941" y="415.399"/>
      <point x="329.423" y="379.434"/>
      <point x="368.776" y="351.211"/>
      <point x="390.129" y="351.211" type="qcurve" smooth="yes"/>
      <point x="420.835" y="351.211"/>
      <point x="455.8" y="397.27"/>
      <point x="456.8" y="435.976" type="qcurve"/>
      <point x="536.47" y="435.976" type="line"/>
      <point x="534.599" y="345.906"/>
      <point x="456.882" y="257.636"/>
    </contour>
  </outline>
</glyph>
<glyph name="exclamdown" format="2">
  <advance width="278"/>
  <unicode hex="00A1"/>
  <outline>
    <contour>
      <point x="188.669" y="301.636" type="line"/>
      <point x="213.645" y="-154" type="line"/>
      <point x="65.5304" y="-154" type="line"/>
      <point x="89.6358" y="301.636" type="line"/>
    </contour>
    <contour>
      <point x="139.588" y="540.458" type="qcurve" smooth="yes"/>
      <point x="175.081" y="540.458"/>
      <point x="219.351" y="494.835"/>
      <point x="219.351" y="462.248" type="qcurve" smooth="yes"/>
      <point x="219.351" y="430.53"/>
      <point x="175.081" y="386.037"/>
      <point x="139.588" y="386.037" type="qcurve" smooth="yes"/>
      <point x="105.094" y="386.037"/>
      <point x="58.9537" y="430.53"/>
      <point x="58.9537" y="462.248" type="qcurve" smooth="yes"/>
      <point x="58.9537" y="494.835"/>
      <point x="105.094" y="540.458"/>
    </contour>
  </outline>
</glyph>
<glyph name="cent" format="2">
  <advance width="581"/>
  <unicode hex="00A2"/>
  <outline>
    <contour>
      <point x="277.8" y="-120" type="line"/>
      <point x="277.8" y="653.941" type="line"/>
      <point x="358.728" y="653.941" type="line"/>
      <point x="358.728" y="-120" type="line"/>
    </contour>
    <contour>
      <point x="326.588" y="-6.51757" type="qcurve" smooth="yes"/>
      <point x="243.035" y="-6.51757"/>
      <point x="111.835" y="63.7412"/>
      <point x="37.5415" y="187.518"/>
      <point x="37.5415" y="267.035" type="qcurve" smooth="yes"/>
      <point x="37.5415" y="347.423"/>
      <point x="111.835" y="470.2"/>
      <point x="243.035" y="540.458"/>
      <point x="326.588" y="540.458" type="qcurve" smooth="yes"/>
      <point x="404.823" y="540.458"/>
      <point x="524.187" y="477.094"/>
      <point x="554.669" y="415.895" type="qcurve"/>
      <point x="458.895" y="359.495" type="line"/>
      <point x="434.93" y="397.495"/>
      <point x="365.906" y="434.107"/>
      <point x="325.588" y="434.107" type="qcurve" smooth="yes"/>
      <point x="279.693" y="434.107"/>
      <point x="206.222" y="393.566"/>
      <point x="163.81" y="318.706"/>
      <point x="163.81" y="267.035" type="qcurve" smooth="yes"/>
      <point x="163.81" y="215.364"/>
      <point x="206.222" y="140.375"/>
      <point x="279.693" y="99.8338"/>
      <point x="325.588" y="99.8338" type="qcurve" smooth="yes"/>
      <point x="365.906" y="99.8338"/>
      <point x="434.93" y="135.575"/>
      <point x="458.895" y="174.446" type="qcurve"/>
      <point x="554.669" y="118.046" type="line"/>
      <point x="524.187" y="57.7172"/>
      <point x="404.823" y="-6.51757"/>
    </contour>
  </outline>
</glyph>
<glyph name="currency" format="2">
  <advance width="700"/>
  <unicode hex="00A4"/>
  <outline>
    <contour>
      <point x="141.542" y="451.824" type="line"/>
      <point x="28.4473" y="564.919" type="line"/>
      <point x="98.599" y="640.294" type="line"/>
      <point x="212.564" y="527.2" type="line"/>
    </contour>
    <contour>
      <point x="98.599" y="-5.29392" type="line"/>
      <point x="28.4473" y="70.0814" type="line"/>
      <point x="141.542" y="183.176" type="line"/>
      <point x="212.564" y="107.8" type="line"/>
    </contour>
    <contour>
      <point x="600.401" y="-5.29392" type="line"/>
      <point x="486.436" y="107.8" type="line"/>
      <point x="557.458" y="183.176" type="line"/>
      <point x="671.423" y="70.0814" type="line"/>
    </contour>
    <contour>
      <point x="557.458" y="451.824" type="line"/>
      <point x="486.436" y="527.2" type="line"/>
      <point x="600.401" y="640.294" type="line"/>
      <point x="671.423" y="564.919" type="line"/>
    </contour>
    <contour>
      <point x="349.871" y="58.5527" type="qcurve" smooth="yes"/>
      <point x="295.259" y="58.5527"/>
      <point x="197.906" y="99.4233"/>
      <point x="124.553" y="171.035"/>
      <point x="82.8115" y="265.776"/>
      <point x="82.8115" y="319.518" type="qcurve" smooth="yes"/>
      <point x="82.8115" y="374.259"/>
      <point x="124.553" y="468.871"/>
      <point x="197.906" y="541.353"/>
      <point x="295.259" y="582.224"/>
      <point x="349.871" y="582.224" type="qcurve" smooth="yes"/>
      <point x="405.482" y="582.224"/>
      <point x="502.706" y="541.353"/>
      <point x="576.189" y="468.871"/>
      <point x="617.8" y="374.259"/>
      <point x="617.8" y="319.518" type="qcurve" smooth="yes"/>
      <point x="617.8" y="265.776"/>
      <point x="576.059" y="171.035"/>
      <point x="502.706" y="99.4233"/>
      <point x="405.482" y="58.5527"/>
    </contour>
    <contour>
      <point x="349.871" y="159.551" type="qcurve" smooth="yes"/>
      <point x="396.248" y="159.551"/>
      <point x="472.296" y="203.187"/>
      <point x="518.673" y="275.752"/>
      <point x="518.673" y="319.518" type="qcurve" smooth="yes"/>
      <point x="518.673" y="364.153"/>
      <point x="472.296" y="437.589"/>
      <point x="396.248" y="481.355"/>
      <point x="349.871" y="481.355" type="qcurve" smooth="yes"/>
      <point x="304.364" y="481.355"/>
      <point x="228.316" y="437.589"/>
      <point x="182.939" y="364.153"/>
      <point x="182.939" y="319.518" type="qcurve" smooth="yes"/>
      <point x="182.939" y="275.752"/>
      <point x="228.316" y="203.187"/>
      <point x="304.364" y="159.551"/>
    </contour>
  </outline>
</glyph>
<glyph name="yen" format="2">
  <advance width="721"/>
  <unicode hex="00A5"/>
  <outline>
    <contour>
      <point x="295.73" y="0" type="line"/>
      <point x="295.73" y="305.259" type="line"/>
      <point x="325.353" y="220.848" type="line"/>
      <point x="-8.71724" y="700" type="line"/>
      <point x="129.233" y="700" type="line"/>
      <point x="403.834" y="306.364" type="line"/>
      <point x="323.353" y="306.364" type="line"/>
      <point x="599.083" y="700" type="line"/>
      <point x="729.963" y="700" type="line"/>
      <point x="396.152" y="220.848" type="line"/>
      <point x="425.516" y="305.259" type="line"/>
      <point x="425.516" y="0" type="line"/>
    </contour>
    <contour>
      <point x="96.5527" y="103.53" type="line"/>
      <point x="96.5527" y="173.741" type="line"/>
      <point x="624.693" y="173.741" type="line"/>
      <point x="624.693" y="103.53" type="line"/>
    </contour>
    <contour>
      <point x="96.5527" y="241.53" type="line"/>
      <point x="96.5527" y="311.741" type="line"/>
      <point x="624.693" y="311.741" type="line"/>
      <point x="624.693" y="241.53" type="line"/>
    </contour>
  </outline>
</glyph>
<glyph name="brokenbar" format="2">
  <advance width="303"/>
  <unicode hex="00A6"/>
  <outline>
    <contour>
      <point x="94.4361" y="392" type="line"/>
      <point x="94.4361" y="742" type="line"/>
      <point x="209.022" y="742" type="line"/>
      <point x="209.022" y="392" type="line"/>
    </contour>
    <contour>
      <point x="94.4361" y="-194" type="line"/>
      <point x="94.4361" y="156" type="line"/>
      <point x="209.022" y="156" type="line"/>
      <point x="209.022" y="-194" type="line"/>
    </contour>
  </outline>
</glyph>
<glyph name="section" format="2">
  <advance width="511"/>
  <unicode hex="00A7"/>
  <outline>
    <contour>
      <point x="364.399" y="146.741" type="qcurve"/>
      <point x="287.871" y="208.693" type="line"/>
      <point x="323.671" y="215.823"/>
      <point x="370.177" y="259.494"/>
      <point x="370.177" y="292.035" type="qcurve" smooth="yes"/>
      <point x="370.177" y="318.482"/>
      <point x="335.566" y="349.412"/>
      <point x="279.212" y="367.377"/>
      <point x="211.989" y="382.859"/>
      <point x="144.636" y="402.859"/>
      <point x="88.2828" y="436.248"/>
      <point x="53.6709" y="491.765"/>
      <point x="53.6709" y="535.895" type="qcurve" smooth="yes"/>
      <point x="53.6709" y="586.542"/>
      <point x="110.189" y="663.224"/>
      <point x="218.518" y="706.518"/>
      <point x="294.494" y="706.518" type="qcurve" smooth="yes"/>
      <point x="325.235" y="706.518"/>
      <point x="397.399" y="695.776"/>
      <point x="464.47" y="674.035"/>
      <point x="486.375" y="658.035" type="qcurve"/>
      <point x="448.752" y="566.495" type="line"/>
      <point x="411.976" y="590.366"/>
      <point x="329.847" y="610.848"/>
      <point x="286.235" y="610.848" type="qcurve" smooth="yes"/>
      <point x="224.952" y="610.848"/>
      <point x="164.61" y="573.566"/>
      <point x="164.61" y="540.412" type="qcurve" smooth="yes"/>
      <point x="164.61" y="516.965"/>
      <point x="198.222" y="488.035"/>
      <point x="254.575" y="471.07"/>
      <point x="321.799" y="455.588"/>
      <point x="389.022" y="434.588"/>
      <point x="445.375" y="398.329"/>
      <point x="478.987" y="339.2"/>
      <point x="478.987" y="294.07" type="qcurve" smooth="yes"/>
      <point x="478.987" y="243.2"/>
      <point x="415.858" y="164.647"/>
    </contour>
    <contour>
      <point x="236.976" y="-106.518" type="qcurve" smooth="yes"/>
      <point x="197.458" y="-106.518"/>
      <point x="115.294" y="-90.7764"/>
      <point x="45.7412" y="-63.2939"/>
      <point x="23.8355" y="-45.5527" type="qcurve"/>
      <point x="61.4585" y="46.8578" type="line"/>
      <point x="94.3642" y="22.1166"/>
      <point x="191.752" y="-10.8483"/>
      <point x="240.2" y="-10.8483" type="qcurve" smooth="yes"/>
      <point x="290.224" y="-10.8483"/>
      <point x="347.436" y="26.5639"/>
      <point x="347.436" y="59.5878" type="qcurve" smooth="yes"/>
      <point x="347.436" y="85.1645"/>
      <point x="312.824" y="114.224"/>
      <point x="257.471" y="132.059"/>
      <point x="190.118" y="146.542"/>
      <point x="122.024" y="166.412"/>
      <point x="66.6709" y="200.412"/>
      <point x="32.0591" y="257.412"/>
      <point x="32.0591" y="301.283" type="qcurve" smooth="yes"/>
      <point x="32.0591" y="357.542"/>
      <point x="95.3179" y="435.482"/>
      <point x="146.647" y="453.388" type="qcurve"/>
      <point x="221.434" y="391.436" type="line"/>
      <point x="186.505" y="384.436"/>
      <point x="140.869" y="341.506"/>
      <point x="140.869" y="308.965" type="qcurve" smooth="yes"/>
      <point x="140.869" y="282.518"/>
      <point x="175.481" y="251.588"/>
      <point x="231.834" y="232.752"/>
      <point x="300.057" y="218.141"/>
      <point x="367.411" y="198.141"/>
      <point x="423.764" y="163.882"/>
      <point x="458.375" y="107.364"/>
      <point x="458.375" y="63.2348" type="qcurve" smooth="yes"/>
      <point x="458.375" y="13.5878"/>
      <point x="404.117" y="-63.2236"/>
      <point x="304.434" y="-106.518"/>
    </contour>
  </outline>
</glyph>
<glyph name="copyright" format="2">
  <advance width="794"/>
  <unicode hex="00A9"/>
  <outline>
    <contour>
      <point x="395.8" y="-3" type="qcurve" smooth="yes"/>
      <point x="320.8" y="-3"/>
      <point x="192.8" y="51"/>
      <point x="96.8003" y="148"/>
      <point x="43.8003" y="276"/>
      <point x="43.8003" y="350" type="qcurve" smooth="yes"/>
      <point x="43.8003" y="424"/>
      <point x="97.8003" y="552"/>
      <point x="193.8" y="649"/>
      <point x="322.8" y="703"/>
      <point x="397.8" y="703" type="qcurve" smooth="yes"/>
      <point x="472.8" y="703"/>
      <point x="601.8" y="650"/>
      <point x="696.8" y="554"/>
      <point x="749.8" y="427"/>
      <point x="749.8" y="352" type="qcurve" smooth="yes"/>
      <point x="749.8" y="277"/>
      <point x="695.8" y="148"/>
      <point x="598.8" y="51"/>
      <point x="470.8" y="-3"/>
    </contour>
    <contour>
      <point x="395.8" y="51.9169" type="qcurve" smooth="yes"/>
      <point x="458.765" y="51.9169"/>
      <point x="566.824" y="98.1406"/>
      <point x="647.272" y="179.717"/>
      <point x="692.366" y="288.906"/>
      <point x="692.366" y="352" type="qcurve" smooth="yes"/>
      <point x="692.366" y="415.094"/>
      <point x="648.272" y="523.283"/>
      <point x="568.954" y="602.989"/>
      <point x="461.765" y="648.083"/>
      <point x="397.8" y="648.083" type="qcurve" smooth="yes"/>
      <point x="333.835" y="648.083"/>
      <point x="224.906" y="602.859"/>
      <point x="145.329" y="521.283"/>
      <point x="101.235" y="412.965"/>
      <point x="101.235" y="350" type="qcurve" smooth="yes"/>
      <point x="101.235" y="287.035"/>
      <point x="145.329" y="178.717"/>
      <point x="224.776" y="97.1406"/>
      <point x="332.835" y="51.9169"/>
    </contour>
    <contour>
      <point x="407.447" y="145.906" type="qcurve" smooth="yes"/>
      <point x="346.189" y="145.906"/>
      <point x="250.059" y="197.776"/>
      <point x="195.8" y="290.259"/>
      <point x="195.8" y="350" type="qcurve" smooth="yes"/>
      <point x="195.8" y="409.741"/>
      <point x="250.059" y="502.224"/>
      <point x="346.189" y="554.094"/>
      <point x="407.447" y="554.094" type="qcurve" smooth="yes"/>
      <point x="464" y="554.094"/>
      <point x="551.165" y="507.153"/>
      <point x="573.518" y="467.212" type="qcurve"/>
      <point x="501.236" y="418.754" type="line"/>
      <point x="484.272" y="445.107"/>
      <point x="435.636" y="469.201"/>
      <point x="406.447" y="469.201" type="qcurve" smooth="yes"/>
      <point x="374.294" y="469.201"/>
      <point x="322.564" y="439.66"/>
      <point x="291.893" y="386.542"/>
      <point x="291.893" y="350" type="qcurve" smooth="yes"/>
      <point x="291.893" y="313.458"/>
      <point x="322.564" y="260.34"/>
      <point x="374.294" y="230.799"/>
      <point x="406.447" y="230.799" type="qcurve" smooth="yes"/>
      <point x="435.636" y="230.799"/>
      <point x="484.272" y="254.893"/>
      <point x="501.236" y="281.246" type="qcurve"/>
      <point x="573.518" y="234.529" type="line"/>
      <point x="551.165" y="193.847"/>
      <point x="464" y="145.906"/>
    </contour>
  </outline>
</glyph>
<glyph name="ordfeminine" format="2">
  <advance width="408"/>
  <unicode hex="00AA"/>
  <outline>
    <contour>
      <point x="268.377" y="426.094" type="line"/>
      <point x="268.377" y="490.059" type="line"/>
      <point x="261.73" y="502.447" type="line"/>
      <point x="261.73" y="614.93" type="line" smooth="yes"/>
      <point x="261.73" y="649.989"/>
      <point x="221.153" y="682.695"/>
      <point x="179.93" y="682.695" type="qcurve" smooth="yes"/>
      <point x="151.224" y="682.695"/>
      <point x="94.5176" y="665.342"/>
      <point x="74.9057" y="649.859" type="qcurve"/>
      <point x="43.4473" y="706.294" type="line"/>
      <point x="70.2236" y="726.035"/>
      <point x="151.129" y="748.518"/>
      <point x="190.259" y="748.518" type="qcurve" smooth="yes"/>
      <point x="267.458" y="748.518"/>
      <point x="349.434" y="681.224"/>
      <point x="349.434" y="611.283" type="qcurve" smooth="yes"/>
      <point x="349.434" y="426.094" type="line"/>
    </contour>
    <contour>
      <point x="159.93" y="421.835" type="qcurve" smooth="yes"/>
      <point x="96.8003" y="421.835"/>
      <point x="32.6709" y="477.482"/>
      <point x="32.6709" y="517.741" type="qcurve" smooth="yes"/>
      <point x="32.6709" y="559.647"/>
      <point x="99.4824" y="612.259"/>
      <point x="173.647" y="612.259" type="qcurve" smooth="yes"/>
      <point x="273.118" y="612.259" type="line"/>
      <point x="273.118" y="560.8" type="line"/>
      <point x="186.329" y="560.8" type="line" smooth="yes"/>
      <point x="148.788" y="560.8"/>
      <point x="115.728" y="540.094"/>
      <point x="115.728" y="521.129" type="qcurve" smooth="yes"/>
      <point x="115.728" y="500.682"/>
      <point x="150.141" y="479.847"/>
      <point x="179.811" y="479.847" type="qcurve" smooth="yes"/>
      <point x="210.224" y="479.847"/>
      <point x="251.506" y="501.553"/>
      <point x="261.73" y="521.776" type="qcurve"/>
      <point x="274.636" y="473.682" type="line"/>
      <point x="264.895" y="451.612"/>
      <point x="205.8" y="421.835"/>
    </contour>
  </outline>
</glyph>
<glyph name="logicalnot" format="2">
  <advance width="590"/>
  <unicode hex="00AC"/>
  <outline>
    <contour>
      <point x="525.823" y="401.046" type="line"/>
      <point x="525.823" y="123.73" type="line"/>
      <point x="418.954" y="123.73" type="line"/>
      <point x="418.954" y="300.695" type="line"/>
      <point x="64.5767" y="300.695" type="line"/>
      <point x="64.5767" y="401.046" type="line"/>
    </contour>
  </outline>
</glyph>
<glyph name="registered" format="2">
  <advance width="794"/>
  <unicode hex="00AE"/>
  <outline>
    <contour>
      <point x="395.8" y="-3" type="qcurve" smooth="yes"/>
      <point x="320.8" y="-3"/>
      <point x="192.8" y="51"/>
      <point x="96.8003" y="148"/>
      <point x="43.8003" y="276"/>
      <point x="43.8003" y="350" type="qcurve" smooth="yes"/>
      <point x="43.8003" y="424"/>
      <point x="97.8003" y="552"/>
      <point x="193.8" y="649"/>
      <point x="322.8" y="703"/>
      <point x="397.8" y="703" type="qcurve" smooth="yes"/>
      <point x="472.8" y="703"/>
      <point x="601.8" y="650"/>
      <point x="696.8" y="554"/>
      <point x="749.8" y="427"/>
      <point x="749.8" y="352" type="qcurve" smooth="yes"/>
      <point x="749.8" y="277"/>
      <point x="695.8" y="148"/>
      <point x="598.8" y="51"/>
      <point x="470.8" y="-3"/>
    </contour>
    <contour>
      <point x="502.46" y="153.294" type="line"/>
      <point x="404.366" y="304" type="line"/>
      <point x="490.294" y="304" type="line"/>
      <point x="588.388" y="153.294" type="line"/>
    </contour>
    <contour>
      <point x="395.8" y="51.9169" type="qcurve" smooth="yes"/>
      <point x="458.765" y="51.9169"/>
      <point x="566.824" y="98.1406"/>
      <point x="647.272" y="179.717"/>
      <point x="692.366" y="288.906"/>
      <point x="692.366" y="352" type="qcurve" smooth="yes"/>
      <point x="692.366" y="415.094"/>
      <point x="648.272" y="523.283"/>
      <point x="568.954" y="602.989"/>
      <point x="461.765" y="648.083"/>
      <point x="397.8" y="648.083" type="qcurve" smooth="yes"/>
      <point x="333.835" y="648.083"/>
      <point x="224.906" y="602.859"/>
      <point x="145.329" y="521.283"/>
      <point x="101.235" y="412.965"/>
      <point x="101.235" y="350" type="qcurve" smooth="yes"/>
      <point x="101.235" y="287.035"/>
      <point x="145.329" y="178.717"/>
      <point x="224.776" y="97.1406"/>
      <point x="332.835" y="51.9169"/>
    </contour>
    <contour>
      <point x="249.083" y="153.294" type="line"/>
      <point x="249.083" y="546.706" type="line"/>
      <point x="413.283" y="546.706" type="line" smooth="yes"/>
      <point x="491.189" y="546.706"/>
      <point x="578.965" y="472.447"/>
      <point x="578.965" y="410.189" type="qcurve" smooth="yes"/>
      <point x="578.965" y="344.542"/>
      <point x="491.189" y="272.8"/>
      <point x="413.283" y="272.8" type="qcurve" smooth="yes"/>
      <point x="334.752" y="272.8" type="line"/>
      <point x="334.752" y="153.294" type="line"/>
    </contour>
    <contour>
      <point x="333.882" y="340.458" type="line"/>
      <point x="407.765" y="340.458" type="line" smooth="yes"/>
      <point x="449.53" y="340.458"/>
      <point x="495.907" y="377.259"/>
      <point x="495.907" y="410.189" type="qcurve" smooth="yes"/>
      <point x="495.907" y="443.118"/>
      <point x="449.53" y="479.048"/>
      <point x="407.765" y="479.048" type="qcurve" smooth="yes"/>
      <point x="333.882" y="479.048" type="line"/>
    </contour>
  </outline>
</glyph>
<glyph name="degree" format="2">
  <advance width="419"/>
  <unicode hex="00B0"/>
  <outline>
    <contour>
      <point x="208.871" y="373.377" type="qcurve" smooth="yes"/>
      <point x="161.353" y="373.377"/>
      <point x="84.0591" y="417.895"/>
      <point x="39.1534" y="493.8"/>
      <point x="39.1534" y="540.447" type="qcurve" smooth="yes"/>
      <point x="39.1534" y="587.094"/>
      <point x="84.0591" y="663"/>
      <point x="161.353" y="707.518"/>
      <point x="208.871" y="707.518" type="qcurve" smooth="yes"/>
      <point x="256.518" y="707.518"/>
      <point x="333.682" y="663"/>
      <point x="378.588" y="587.094"/>
      <point x="378.588" y="540.447" type="qcurve" smooth="yes"/>
      <point x="378.588" y="493.8"/>
      <point x="333.682" y="417.895"/>
      <point x="256.518" y="373.377"/>
    </contour>
    <contour>
      <point x="208.871" y="439.07" type="qcurve" smooth="yes"/>
      <point x="237.835" y="439.07"/>
      <point x="283.153" y="466.165"/>
      <point x="309.248" y="511.482"/>
      <point x="309.248" y="540.447" type="qcurve" smooth="yes"/>
      <point x="309.248" y="569.412"/>
      <point x="283.153" y="615.601"/>
      <point x="237.835" y="641.824"/>
      <point x="208.871" y="641.824" type="qcurve" smooth="yes"/>
      <point x="180.776" y="641.824"/>
      <point x="134.588" y="615.601"/>
      <point x="108.494" y="570.283"/>
      <point x="108.494" y="540.447" type="qcurve" smooth="yes"/>
      <point x="108.494" y="510.612"/>
      <point x="134.588" y="465.294"/>
      <point x="180.776" y="439.07"/>
    </contour>
  </outline>
</glyph>
<glyph name="plusminus" format="2">
  <advance width="590"/>
  <unicode hex="00B1"/>
  <outline>
    <contour>
      <point x="64.5767" y="0" type="line"/>
      <point x="64.5767" y="100.351" type="line"/>
      <point x="525.823" y="100.351" type="line"/>
      <point x="525.823" y="0" type="line"/>
    </contour>
    <contour>
      <point x="241.765" y="196.693" type="line"/>
      <point x="241.765" y="632.963" type="line"/>
      <point x="348.634" y="632.963" type="line"/>
      <point x="348.634" y="196.693" type="line"/>
    </contour>
    <contour>
      <point x="64.5767" y="365.235" type="line"/>
      <point x="64.5767" y="464.422" type="line"/>
      <point x="525.823" y="464.422" type="line"/>
      <point x="525.823" y="365.235" type="line"/>
    </contour>
  </outline>
</glyph>
<glyph name="paragraph" format="2">
  <advance width="666"/>
  <unicode hex="00B6"/>
  <outline>
    <contour>
      <point x="227.259" y="-100" type="line"/>
      <point x="227.259" y="371.307" type="line"/>
      <point x="166.259" y="372.436"/>
      <point x="71.353" y="418.083"/>
      <point x="16.7061" y="501.248"/>
      <point x="16.7061" y="557.153" type="qcurve" smooth="yes"/>
      <point x="16.7061" y="613.93"/>
      <point x="73.8706" y="697.224"/>
      <point x="177.811" y="742"/>
      <point x="247.105" y="742" type="qcurve" smooth="yes"/>
      <point x="572.01" y="742" type="line"/>
      <point x="572.01" y="-100" type="line"/>
      <point x="469.235" y="-100" type="line"/>
      <point x="469.235" y="647.943" type="line"/>
      <point x="330.033" y="647.943" type="line"/>
      <point x="330.033" y="-100" type="line"/>
    </contour>
  </outline>
</glyph>
<glyph name="periodcentered" format="2">
  <advance width="284"/>
  <unicode hex="00B7"/>
  <outline>
    <contour>
      <point x="142.399" y="194.695" type="qcurve" smooth="yes"/>
      <point x="107.906" y="194.695"/>
      <point x="60.024" y="241.447"/>
      <point x="60.024" y="278.682" type="qcurve" smooth="yes"/>
      <point x="60.024" y="315.917"/>
      <point x="107.906" y="361.54"/>
      <point x="142.399" y="361.54" type="qcurve" smooth="yes"/>
      <point x="177.893" y="361.54"/>
      <point x="223.904" y="315.917"/>
      <point x="223.904" y="278.682" type="qcurve" smooth="yes"/>
      <point x="223.904" y="241.447"/>
      <point x="177.893" y="194.695"/>
    </contour>
  </outline>
</glyph>
<glyph name="ordmasculine" format="2">
  <advance width="422"/>
  <unicode hex="00BA"/>
  <outline>
    <contour>
      <point x="212.165" y="421.835" type="qcurve" smooth="yes"/>
      <point x="158.259" y="421.835"/>
      <point x="75.8355" y="463.965"/>
      <point x="28.1885" y="538.353"/>
      <point x="28.1885" y="585.612" type="qcurve" smooth="yes"/>
      <point x="28.1885" y="633"/>
      <point x="75.8355" y="706.388"/>
      <point x="158.259" y="748.518"/>
      <point x="211.165" y="748.518" type="qcurve" smooth="yes"/>
      <point x="265.07" y="748.518"/>
      <point x="347.364" y="706.388"/>
      <point x="394.141" y="633"/>
      <point x="394.141" y="585.612" type="qcurve" smooth="yes"/>
      <point x="394.141" y="538.353"/>
      <point x="347.364" y="463.965"/>
      <point x="265.07" y="421.835"/>
    </contour>
    <contour>
      <point x="211.165" y="492.658" type="qcurve" smooth="yes"/>
      <point x="254.93" y="492.658"/>
      <point x="308.436" y="544.423"/>
      <point x="308.436" y="585.612" type="qcurve" smooth="yes"/>
      <point x="308.436" y="627.8"/>
      <point x="254.93" y="677.695"/>
      <point x="211.165" y="677.695" type="qcurve" smooth="yes"/>
      <point x="168.27" y="677.695"/>
      <point x="113.893" y="627.8"/>
      <point x="113.893" y="585.612" type="qcurve" smooth="yes"/>
      <point x="113.893" y="544.423"/>
      <point x="168.27" y="492.658"/>
    </contour>
  </outline>
</glyph>
<glyph name="questiondown" format="2">
  <advance width="581"/>
  <unicode hex="00BF"/>
  <outline>
    <contour>
      <point x="306.129" y="-163.776" type="qcurve" smooth="yes"/>
      <point x="232.482" y="-163.776"/>
      <point x="121.542" y="-120.776"/>
      <point x="60.8594" y="-41"/>
      <point x="60.8594" y="14.1645" type="qcurve" smooth="yes"/>
      <point x="60.8594" y="53.9057"/>
      <point x="85.6007" y="111.906"/>
      <point x="125.212" y="155.776"/>
      <point x="167.824" y="193.518"/>
      <point x="207.436" y="229.741"/>
      <point x="232.177" y="273.059"/>
      <point x="232.177" y="301.636" type="qcurve"/>
      <point x="358.952" y="301.636" type="line"/>
      <point x="358.952" y="265.542"/>
      <point x="334.728" y="211.447"/>
      <point x="297.022" y="168.224"/>
      <point x="253.575" y="131.129"/>
      <point x="215.869" y="95.2939"/>
      <point x="191.645" y="55.1054"/>
      <point x="191.645" y="30.5287" type="qcurve" smooth="yes"/>
      <point x="191.645" y="-5.53038"/>
      <point x="259.375" y="-55.6486"/>
      <point x="316.976" y="-55.6486" type="qcurve" smooth="yes"/>
      <point x="372.482" y="-55.6486"/>
      <point x="453.73" y="-15.1662"/>
      <point x="480.177" y="21.0575" type="qcurve"/>
      <point x="576.34" y="-41.8243" type="line"/>
      <point x="534.858" y="-99.024"/>
      <point x="399.141" y="-163.776"/>
    </contour>
    <contour>
      <point x="295.129" y="386.037" type="qcurve" smooth="yes"/>
      <point x="260.636" y="386.037"/>
      <point x="215.366" y="430.53"/>
      <point x="215.366" y="462.248" type="qcurve" smooth="yes"/>
      <point x="215.366" y="494.835"/>
      <point x="260.636" y="540.458"/>
      <point x="295.129" y="540.458" type="qcurve" smooth="yes"/>
      <point x="330.623" y="540.458"/>
      <point x="374.893" y="494.835"/>
      <point x="374.893" y="462.248" type="qcurve" smooth="yes"/>
      <point x="374.893" y="430.53"/>
      <point x="330.623" y="386.037"/>
    </contour>
  </outline>
</glyph>
<glyph name="AE" format="2">
  <advance width="1063"/>
  <unicode hex="00C6"/>
  <anchor x="672.107" y="700" name="t.uni0308"/>
  <anchor x="672.107" y="0" name="b.uni0324_3"/>
  <outline>
    <contour>
      <point x="-5.07028" y="0" type="line"/>
      <point x="401.366" y="700" type="line"/>
      <point x="530.893" y="700" type="line"/>
      <point x="530.893" y="590.778" type="line"/>
      <point x="418.083" y="590.778" type="line"/>
      <point x="497.399" y="647.342" type="line"/>
      <point x="128.716" y="0" type="line"/>
    </contour>
    <contour>
      <point x="186.788" y="162.048" type="line"/>
      <point x="191.141" y="264.141" type="line"/>
      <point x="530.893" y="264.141" type="line"/>
      <point x="530.893" y="162.048" type="line"/>
    </contour>
    <contour>
      <point x="606.692" y="408.658" type="line"/>
      <point x="955.257" y="408.658" type="line"/>
      <point x="955.257" y="302.212" type="line"/>
      <point x="605.821" y="302.212" type="line"/>
    </contour>
    <contour>
      <point x="616.597" y="109.222" type="line"/>
      <point x="1011.87" y="109.222" type="line"/>
      <point x="1011.87" y="0" type="line"/>
      <point x="487.329" y="0" type="line"/>
      <point x="487.329" y="700" type="line"/>
      <point x="997.998" y="700" type="line"/>
      <point x="997.998" y="590.778" type="line"/>
      <point x="616.597" y="590.778" type="line"/>
    </contour>
  </outline>
</glyph>
<glyph name="multiply" format="2">
  <advance width="590"/>
  <unicode hex="00D7"/>
  <outline>
    <contour>
      <point x="98.7301" y="222.165" type="line"/>
      <point x="423.906" y="550.823" type="line"/>
      <point x="492.54" y="477.835" type="line"/>
      <point x="166.494" y="149.177" type="line"/>
    </contour>
    <contour>
      <point x="98.7301" y="477.835" type="line"/>
      <point x="166.494" y="550.823" type="line"/>
      <point x="492.54" y="222.165" type="line"/>
      <point x="423.906" y="149.177" type="line"/>
    </contour>
  </outline>
</glyph>
<glyph name="Thorn" format="2">
  <advance width="726"/>
  <unicode hex="00DE"/>
  <outline>
    <contour>
      <point x="195.375" y="119.8" type="line"/>
      <point x="195.375" y="229.54" type="line"/>
      <point x="376.388" y="229.54" type="line" smooth="yes"/>
      <point x="461.954" y="229.54"/>
      <point x="549.002" y="303.141"/>
      <point x="549.002" y="369" type="qcurve" smooth="yes"/>
      <point x="549.002" y="435.73"/>
      <point x="461.954" y="508.46"/>
      <point x="376.388" y="508.46" type="qcurve" smooth="yes"/>
      <point x="195.375" y="508.46" type="line"/>
      <point x="195.375" y="618.2" type="line"/>
      <point x="381.811" y="618.2" type="line" smooth="yes"/>
      <point x="474.588" y="618.2"/>
      <point x="608.011" y="557.682"/>
      <point x="679.917" y="446.518"/>
      <point x="679.917" y="369.871" type="qcurve" smooth="yes"/>
      <point x="679.917" y="292.353"/>
      <point x="608.011" y="180.318"/>
      <point x="474.588" y="119.8"/>
      <point x="381.811" y="119.8" type="qcurve" smooth="yes"/>
    </contour>
    <contour>
      <point x="94.4361" y="0" type="line"/>
      <point x="94.4361" y="700.129" type="line"/>
      <point x="224.222" y="700.129" type="line"/>
      <point x="224.222" y="0" type="line"/>
    </contour>
  </outline>
</glyph>
<glyph name="germandbls" format="2">
  <advance width="684"/>
  <unicode hex="00DF"/>
  <outline>
    <contour>
      <point x="400.399" y="-6.51757" type="qcurve" smooth="yes"/>
      <point x="370.27" y="-6.51757"/>
      <point x="306.235" y="1.61182"/>
      <point x="282.752" y="9.48243" type="qcurve"/>
      <point x="300.399" y="111.834" type="line"/>
      <point x="319.882" y="104.963"/>
      <point x="362.329" y="98.9632"/>
      <point x="391.647" y="98.9632" type="qcurve" smooth="yes"/>
      <point x="431.671" y="98.9632"/>
      <point x="488.66" y="124.022"/>
      <point x="520.589" y="173.27"/>
      <point x="520.589" y="207.682" type="qcurve" smooth="yes"/>
      <point x="520.589" y="259.8"/>
      <point x="443.412" y="315.401"/>
      <point x="379.294" y="315.401" type="qcurve" smooth="yes"/>
      <point x="323.811" y="315.401" type="line"/>
      <point x="323.811" y="418.364" type="line"/>
      <point x="390.153" y="419.494"/>
      <point x="466.107" y="484.353"/>
      <point x="466.107" y="537.989" type="qcurve" smooth="yes"/>
      <point x="466.107" y="585.401"/>
      <point x="402.248" y="643.296"/>
      <point x="343.647" y="643.296" type="qcurve" smooth="yes"/>
      <point x="280.176" y="643.296"/>
      <point x="207.222" y="571.212"/>
      <point x="207.222" y="501.259" type="qcurve" smooth="yes"/>
      <point x="207.222" y="0" type="line"/>
      <point x="82.2125" y="0" type="line"/>
      <point x="82.2125" y="488.542" type="line" smooth="yes"/>
      <point x="82.2125" y="575.318"/>
      <point x="151.024" y="690.741"/>
      <point x="269.612" y="748.518"/>
      <point x="343.518" y="748.518" type="qcurve" smooth="yes"/>
      <point x="419.717" y="748.518"/>
      <point x="528.305" y="694.741"/>
      <point x="586.47" y="602.706"/>
      <point x="586.47" y="545.189" type="qcurve" smooth="yes"/>
      <point x="586.47" y="498.93"/>
      <point x="550.176" y="427.153"/>
      <point x="491.458" y="377.506"/>
      <point x="421.577" y="351.118"/>
      <point x="387.248" y="351.118" type="qcurve"/>
      <point x="419.835" y="401.847" type="line"/>
      <point x="484.458" y="401.847"/>
      <point x="586.823" y="355.588"/>
      <point x="646.858" y="267.811"/>
      <point x="646.858" y="204.294" type="qcurve" smooth="yes"/>
      <point x="646.858" y="137.776"/>
      <point x="583.599" y="43"/>
      <point x="472.564" y="-6.51757"/>
    </contour>
  </outline>
</glyph>
<glyph name="ae" format="2">
  <advance width="993"/>
  <unicode hex="00E6"/>
  <anchor x="486.706" y="560.059" name="t.uni0308"/>
  <anchor x="480.224" y="0" name="b.uni0324_3"/>
  <outline>
    <contour>
      <point x="259.553" y="-6.51757" type="qcurve" smooth="yes"/>
      <point x="158.353" y="-6.51757"/>
      <point x="43.8946" y="84.5176"/>
      <point x="43.8946" y="157.553" type="qcurve" smooth="yes"/>
      <point x="43.8946" y="199.717"/>
      <point x="87.4473" y="268.976"/>
      <point x="185.388" y="311.458"/>
      <point x="266.035" y="311.458" type="qcurve" smooth="yes"/>
      <point x="420.177" y="311.458" type="line"/>
      <point x="420.177" y="228.577" type="line"/>
      <point x="275.046" y="228.577" type="line" smooth="yes"/>
      <point x="211.928" y="228.577"/>
      <point x="166.869" y="187.906"/>
      <point x="166.869" y="159.941" type="qcurve" smooth="yes"/>
      <point x="166.869" y="124.141"/>
      <point x="221.858" y="84.2108"/>
      <point x="270.752" y="84.2108" type="qcurve" smooth="yes"/>
      <point x="334.224" y="84.2108"/>
      <point x="404.177" y="148.588"/>
      <point x="404.177" y="200.871" type="qcurve" smooth="yes"/>
      <point x="404.177" y="320.059" type="line" smooth="yes"/>
      <point x="404.177" y="374.601"/>
      <point x="337.765" y="436.013"/>
      <point x="271.577" y="436.013" type="qcurve" smooth="yes"/>
      <point x="226.482" y="436.013"/>
      <point x="139.294" y="407.789"/>
      <point x="108.811" y="383.436" type="qcurve"/>
      <point x="60.3179" y="474.105" type="line"/>
      <point x="103.094" y="506.717"/>
      <point x="222.035" y="540.458"/>
      <point x="285.294" y="540.458" type="qcurve" smooth="yes"/>
      <point x="375.741" y="540.458"/>
      <point x="488.423" y="472.046"/>
      <point x="507.623" y="405.728" type="qcurve"/>
      <point x="449.224" y="410.081" type="line"/>
      <point x="482.388" y="470.529"/>
      <point x="605.035" y="540.458"/>
      <point x="683.259" y="540.458" type="qcurve" smooth="yes"/>
      <point x="741.259" y="540.458"/>
      <point x="840.294" y="500.847"/>
      <point x="913.847" y="428.976"/>
      <point x="955.011" y="329.2"/>
      <point x="955.011" y="269.035" type="qcurve" smooth="yes"/>
      <point x="955.011" y="257.388"/>
      <point x="953.882" y="237.094"/>
      <point x="951.882" y="228.577" type="qcurve"/>
      <point x="508.093" y="228.577" type="line"/>
      <point x="508.093" y="311.458" type="line"/>
      <point x="879.649" y="311.458" type="line"/>
      <point x="834.166" y="283.588" type="line"/>
      <point x="835.037" y="335.612"/>
      <point x="791.272" y="404.118"/>
      <point x="720.93" y="439.566"/>
      <point x="681.871" y="439.566" type="qcurve" smooth="yes"/>
      <point x="643.682" y="439.566"/>
      <point x="573.081" y="404.118"/>
      <point x="528.316" y="333.871"/>
      <point x="528.316" y="280.976" type="qcurve" smooth="yes"/>
      <point x="528.316" y="260.906" type="line" smooth="yes"/>
      <point x="528.316" y="212.847"/>
      <point x="571.858" y="139.34"/>
      <point x="650.847" y="98.6693"/>
      <point x="704.388" y="98.6693" type="qcurve" smooth="yes"/>
      <point x="748.706" y="98.6693"/>
      <point x="819.248" y="127.375"/>
      <point x="848.989" y="156.952" type="qcurve"/>
      <point x="917.364" y="79.7412" type="line"/>
      <point x="879.847" y="36.7412"/>
      <point x="769.423" y="-6.51757"/>
      <point x="700.518" y="-6.51757" type="qcurve" smooth="yes"/>
      <point x="638.647" y="-6.51757"/>
      <point x="530.129" y="29.9649"/>
      <point x="447.965" y="108.059"/>
      <point x="424.189" y="169.8" type="qcurve"/>
      <point x="499.329" y="168.93" type="line"/>
      <point x="485.035" y="101.318"/>
      <point x="410.294" y="24.0943"/>
      <point x="311.07" y="-6.51757"/>
    </contour>
  </outline>
</glyph>
<glyph name="eth" format="2">
  <advance width="648"/>
  <unicode hex="00F0"/>
  <outline>
    <contour>
      <point x="297.811" y="-9.90575" type="qcurve" smooth="yes"/>
      <point x="224.647" y="-9.90575"/>
      <point x="106.706" y="45.8706"/>
      <point x="37.5415" y="148.035"/>
      <point x="37.5415" y="217.682" type="qcurve" smooth="yes"/>
      <point x="37.5415" y="286.553"/>
      <point x="105.412" y="387.423"/>
      <point x="221.895" y="442.553"/>
      <point x="293.248" y="442.553" type="qcurve" smooth="yes"/>
      <point x="349.471" y="442.553"/>
      <point x="439.401" y="405.364"/>
      <point x="503.236" y="334.728"/>
      <point x="517.883" y="284.057" type="qcurve"/>
      <point x="473.46" y="264.47" type="line"/>
      <point x="479.554" y="289.917"/>
      <point x="483.037" y="343.07"/>
      <point x="483.037" y="371.329" type="qcurve" smooth="yes"/>
      <point x="483.037" y="458.741"/>
      <point x="426.107" y="574.377"/>
      <point x="319.954" y="632.566"/>
      <point x="245.859" y="632.566" type="qcurve" smooth="yes"/>
      <point x="204.93" y="632.566"/>
      <point x="133.094" y="620.212"/>
      <point x="104.835" y="610.212" type="qcurve"/>
      <point x="86.4473" y="712.27" type="line"/>
      <point x="120.224" y="722.011"/>
      <point x="201.189" y="733.623"/>
      <point x="247.671" y="733.623" type="qcurve" smooth="yes"/>
      <point x="357.906" y="733.623"/>
      <point x="520.788" y="645.588"/>
      <point x="610.599" y="471.776"/>
      <point x="610.599" y="343.224" type="qcurve" smooth="yes"/>
      <point x="610.599" y="233.835"/>
      <point x="535.917" y="75.8355"/>
      <point x="396.588" y="-9.90575"/>
    </contour>
    <contour>
      <point x="307.105" y="92.1517" type="qcurve" smooth="yes"/>
      <point x="354.353" y="92.1517"/>
      <point x="422.307" y="126.564"/>
      <point x="458.107" y="182.941"/>
      <point x="458.107" y="216.259" type="qcurve" smooth="yes"/>
      <point x="458.107" y="252.189"/>
      <point x="419.695" y="308.566"/>
      <point x="354.353" y="340.495"/>
      <point x="311.458" y="340.495" type="qcurve" smooth="yes"/>
      <point x="243.764" y="340.495"/>
      <point x="163.939" y="272.765"/>
      <point x="163.939" y="216.259" type="qcurve" smooth="yes"/>
      <point x="163.939" y="178.588"/>
      <point x="200.61" y="123.081"/>
      <point x="265.211" y="92.1517"/>
    </contour>
    <contour>
      <point x="153.577" y="469.153" type="line"/>
      <point x="123.8" y="542.741" type="line"/>
      <point x="551.599" y="711.035" type="line"/>
      <point x="581.375" y="636.577" type="line"/>
    </contour>
  </outline>
</glyph>
<glyph name="divide" format="2">
  <advance width="590"/>
  <unicode hex="00F7"/>
  <outline>
    <contour>
      <point x="64.5767" y="299.824" type="line"/>
      <point x="64.5767" y="400.176" type="line"/>
      <point x="525.823" y="400.176" type="line"/>
      <point x="525.823" y="299.824" type="line"/>
    </contour>
    <contour>
      <point x="295.2" y="75.7189" type="qcurve" smooth="yes"/>
      <point x="266.482" y="75.7189"/>
      <point x="225.859" y="116.824"/>
      <point x="225.859" y="148.283" type="qcurve" smooth="yes"/>
      <point x="225.859" y="179.871"/>
      <point x="266.482" y="218.847"/>
      <point x="295.2" y="218.847" type="qcurve" smooth="yes"/>
      <point x="324.788" y="218.847"/>
      <point x="365.411" y="179.871"/>
      <point x="365.411" y="148.283" type="qcurve" smooth="yes"/>
      <point x="365.411" y="116.824"/>
      <point x="324.788" y="75.7189"/>
    </contour>
    <contour>
      <point x="295.2" y="481.153" type="qcurve" smooth="yes"/>
      <point x="266.482" y="481.153"/>
      <point x="225.859" y="522.259"/>
      <point x="225.859" y="552.847" type="qcurve" smooth="yes"/>
      <point x="225.859" y="584.434"/>
      <point x="266.482" y="624.281"/>
      <point x="295.2" y="624.281" type="qcurve" smooth="yes"/>
      <point x="324.788" y="624.281"/>
      <point x="365.411" y="584.434"/>
      <point x="365.411" y="552.847" type="qcurve" smooth="yes"/>
      <point x="365.411" y="522.259"/>
      <point x="324.788" y="481.153"/>
    </contour>
  </outline>
</glyph>
<glyph name="eogonek" format="2">
  <advance width="622"/>
  <unicode hex="0119"/>
  <anchor x="352.8" y="560.059" name="t.uni0308"/>
  <anchor x="352.8" y="0" name="b.uni0324_3"/>
  <outline>
    <contour>
      <point x="442.235" y="-227.811" type="qcurve" smooth="yes"/>
      <point x="382.035" y="-227.811"/>
      <point x="312.965" y="-166.776"/>
      <point x="312.965" y="-116.612" type="qcurve" smooth="yes"/>
      <point x="312.965" y="-80.4473"/>
      <point x="354.07" y="-3.3179"/>
      <point x="396.105" y="24.8706" type="qcurve"/>
      <point x="433.776" y="7.57668" type="line"/>
      <point x="411.165" y="0.964861"/>
      <point x="360.329" y="-6.51757"/>
      <point x="332.847" y="-6.51757" type="qcurve" smooth="yes"/>
      <point x="244.165" y="-6.51757"/>
      <point x="110.835" y="64"/>
      <point x="37.5415" y="187.776"/>
      <point x="37.5415" y="267.035" type="qcurve" smooth="yes"/>
      <point x="37.5415" y="346.553"/>
      <point x="108.965" y="470.2"/>
      <point x="234.294" y="540.458"/>
      <point x="313.588" y="540.458" type="qcurve" smooth="yes"/>
      <point x="391.976" y="540.458"/>
      <point x="514.176" y="472.105"/>
      <point x="584.117" y="347.847"/>
      <point x="584.117" y="263.553" type="qcurve" smooth="yes"/>
      <point x="584.117" y="255.906"/>
      <point x="582.987" y="235.612"/>
      <point x="581.987" y="227.094" type="qcurve"/>
      <point x="137.481" y="227.094" type="line"/>
      <point x="137.481" y="309.976" type="line"/>
      <point x="515.965" y="309.976" type="line"/>
      <point x="466.66" y="283.588" type="line"/>
      <point x="467.53" y="329.518"/>
      <point x="427.989" y="399.765"/>
      <point x="359.259" y="439.566"/>
      <point x="313.847" y="439.566" type="qcurve" smooth="yes"/>
      <point x="268.434" y="439.566"/>
      <point x="198.704" y="399.765"/>
      <point x="160.163" y="328.647"/>
      <point x="160.163" y="280.976" type="qcurve" smooth="yes"/>
      <point x="160.163" y="260.906" type="line" smooth="yes"/>
      <point x="160.163" y="212.847"/>
      <point x="203.834" y="139.34"/>
      <point x="283.693" y="98.6693"/>
      <point x="336.364" y="98.6693" type="qcurve" smooth="yes"/>
      <point x="381.329" y="98.6693"/>
      <point x="452.965" y="127.375"/>
      <point x="480.835" y="156.952" type="qcurve"/>
      <point x="548.47" y="79.7412" type="line"/>
      <point x="540.211" y="69.7412"/>
      <point x="520.081" y="52.4824"/>
      <point x="508.952" y="43.6118" type="qcurve" smooth="yes"/>
      <point x="465.434" y="9.38818"/>
      <point x="416.564" y="-44.4473"/>
      <point x="397.081" y="-87.5415"/>
      <point x="397.081" y="-107.283" type="qcurve" smooth="yes"/>
      <point x="397.081" y="-133.506"/>
      <point x="430.434" y="-159.765"/>
      <point x="456.434" y="-159.765" type="qcurve" smooth="yes"/>
      <point x="472.305" y="-159.765"/>
      <point x="505.046" y="-150.765"/>
      <point x="516.917" y="-144.024" type="qcurve"/>
      <point x="537.823" y="-204.811" type="line"/>
      <point x="518.952" y="-214.811"/>
      <point x="469.011" y="-227.811"/>
    </contour>
  </outline>
</glyph>
<glyph name="IJ" format="2">
  <advance width="722"/>
  <unicode hex="0132"/>
  <anchor x="155.07" y="700" name="t.uni0308"/>
  <outline>
    <contour>
      <point x="327.129" y="-9.90575" type="qcurve" smooth="yes"/>
      <point x="251.93" y="-9.90575"/>
      <point x="122.566" y="30.8706"/>
      <point x="74.5304" y="63.7764" type="qcurve"/>
      <point x="123.965" y="165.481" type="line"/>
      <point x="168.741" y="135.351"/>
      <point x="273.871" y="103.222"/>
      <point x="327.447" y="103.222" type="qcurve" smooth="yes"/>
      <point x="413.342" y="103.222"/>
      <point x="503.813" y="201.564"/>
      <point x="503.813" y="304.165" type="qcurve" smooth="yes"/>
      <point x="503.813" y="700" type="line"/>
      <point x="633.599" y="700" type="line"/>
      <point x="633.599" y="311.07" type="line" smooth="yes"/>
      <point x="633.599" y="206.294"/>
      <point x="557.046" y="63"/>
      <point x="419.941" y="-9.90575"/>
    </contour>
    <contour>
      <point x="88.4361" y="315.105" type="line"/>
      <point x="88.4361" y="700" type="line"/>
      <point x="218.222" y="700" type="line"/>
      <point x="218.222" y="315.105" type="line"/>
    </contour>
  </outline>
</glyph>
<glyph name="kgreenlandic" format="2">
  <advance width="625"/>
  <unicode hex="0138"/>
  <anchor x="343.895" y="560.059" name="t.uni0308"/>
  <anchor x="343.895" y="0" name="b.uni0324_3"/>
  <outline>
    <contour>
      <point x="184.152" y="118.73" type="line"/>
      <point x="187.411" y="275.904" type="line"/>
      <point x="466.083" y="533.941" type="line"/>
      <point x="616.422" y="533.941" type="line"/>
      <point x="378.61" y="296.318" type="line"/>
      <point x="312.623" y="241.013" type="line"/>
    </contour>
    <contour>
      <point x="82.2125" y="0" type="line"/>
      <point x="82.2125" y="533.941" type="line"/>
      <point x="207.222" y="533.941" type="line"/>
      <point x="207.222" y="0" type="line"/>
    </contour>
    <contour>
      <point x="485.048" y="0" type="line"/>
      <point x="289.776" y="241.366" type="line"/>
      <point x="368.704" y="340.976" type="line"/>
      <point x="637.033" y="0" type="line"/>
    </contour>
  </outline>
</glyph>
<glyph name="Eng" format="2">
  <advance width="810"/>
  <unicode hex="014A"/>
  <outline>
    <contour>
      <point x="94.4361" y="0" type="line"/>
      <point x="94.4361" y="700" type="line"/>
      <point x="201.375" y="700" type="line"/>
      <point x="640.083" y="160.821" type="line"/>
      <point x="608.719" y="0" type="line"/>
      <point x="170.011" y="539.179" type="line"/>
      <point x="223.446" y="539.179" type="line"/>
      <point x="223.446" y="0" type="line"/>
    </contour>
    <contour>
      <point x="482.765" y="-200.518" type="qcurve" smooth="yes"/>
      <point x="429.248" y="-200.518"/>
      <point x="334.601" y="-164.329"/>
      <point x="299.695" y="-128.623" type="qcurve"/>
      <point x="361.553" y="-35.9186" type="line"/>
      <point x="384.647" y="-61.8483"/>
      <point x="443.895" y="-91.3898"/>
      <point x="480.177" y="-91.3898" type="qcurve" smooth="yes"/>
      <point x="586.649" y="-91.3898"/>
      <point x="586.649" y="38.2699" type="qcurve" smooth="yes"/>
      <point x="586.649" y="700" type="line"/>
      <point x="715.658" y="700" type="line"/>
      <point x="715.658" y="56.7284" type="line" smooth="yes"/>
      <point x="715.658" y="-75.2828"/>
      <point x="597.647" y="-200.518"/>
    </contour>
  </outline>
</glyph>
<glyph name="eng" format="2">
  <advance width="685"/>
  <unicode hex="014B"/>
  <outline>
    <contour>
      <point x="384.728" y="540.458" type="qcurve" smooth="yes"/>
      <point x="449.47" y="540.458"/>
      <point x="549.728" y="490.329"/>
      <point x="607.858" y="386.682"/>
      <point x="607.858" y="305.906" type="qcurve" smooth="yes"/>
      <point x="607.858" y="-10.3067" type="line" smooth="yes"/>
      <point x="607.858" y="-98.024"/>
      <point x="511.458" y="-200.518"/>
      <point x="421.965" y="-200.518" type="qcurve" smooth="yes"/>
      <point x="387.189" y="-200.518"/>
      <point x="323.765" y="-185.647"/>
      <point x="302.118" y="-170.035" type="qcurve"/>
      <point x="338.706" y="-76.5895" type="line"/>
      <point x="367.059" y="-98.2956"/>
      <point x="411.471" y="-98.2956" type="qcurve" smooth="yes"/>
      <point x="445.401" y="-98.2956"/>
      <point x="482.848" y="-55.2365"/>
      <point x="482.848" y="-12.6598" type="qcurve" smooth="yes"/>
      <point x="482.848" y="289.542" type="line" smooth="yes"/>
      <point x="482.848" y="360.566"/>
      <point x="416.377" y="430.554"/>
      <point x="355.776" y="430.554" type="qcurve" smooth="yes"/>
      <point x="311.882" y="430.554"/>
      <point x="244.152" y="394.754"/>
      <point x="207.222" y="324.118"/>
      <point x="207.222" y="270.059" type="qcurve" smooth="yes"/>
      <point x="207.222" y="0" type="line"/>
      <point x="82.2125" y="0" type="line"/>
      <point x="82.2125" y="533.941" type="line"/>
      <point x="201.446" y="533.941" type="line"/>
      <point x="201.446" y="389.612" type="line"/>
      <point x="180.211" y="433.871" type="line"/>
      <point x="207.858" y="485.423"/>
      <point x="315.117" y="540.458"/>
    </contour>
  </outline>
</glyph>
<glyph name="OE" format="2">
  <advance width="1131"/>
  <unicode hex="0152"/>
  <anchor x="672.506" y="700" name="t.uni0308"/>
  <anchor x="672.506" y="0" name="b.uni0324_3"/>
  <outline>
    <contour>
      <point x="425.741" y="0" type="line" smooth="yes"/>
      <point x="312.224" y="0"/>
      <point x="140.318" y="87.6118"/>
      <point x="43.8003" y="244.612"/>
      <point x="43.8003" y="349.259" type="qcurve" smooth="yes"/>
      <point x="43.8003" y="454.647"/>
      <point x="140.318" y="612.388"/>
      <point x="312.224" y="700"/>
      <point x="425.741" y="700" type="qcurve" smooth="yes"/>
      <point x="587.776" y="700" type="line"/>
      <point x="587.776" y="590.002" type="line"/>
      <point x="432.259" y="590.002" type="line" smooth="yes"/>
      <point x="354.529" y="590.002"/>
      <point x="238.481" y="530.236"/>
      <point x="174.716" y="422.283"/>
      <point x="174.716" y="350.129" type="qcurve" smooth="yes"/>
      <point x="174.716" y="276.976"/>
      <point x="238.481" y="169.764"/>
      <point x="354.529" y="109.998"/>
      <point x="432.259" y="109.998" type="qcurve" smooth="yes"/>
      <point x="587.776" y="109.998" type="line"/>
      <point x="587.776" y="0" type="line"/>
    </contour>
    <contour>
      <point x="674.128" y="408.658" type="line"/>
      <point x="1022.69" y="408.658" type="line"/>
      <point x="1022.69" y="302.212" type="line"/>
      <point x="674.128" y="302.212" type="line"/>
    </contour>
    <contour>
      <point x="684.033" y="109.222" type="line"/>
      <point x="1079.31" y="109.222" type="line"/>
      <point x="1079.31" y="0" type="line"/>
      <point x="554.765" y="0" type="line"/>
      <point x="554.765" y="700" type="line"/>
      <point x="1065.43" y="700" type="line"/>
      <point x="1065.43" y="590.778" type="line"/>
      <point x="684.033" y="590.778" type="line"/>
    </contour>
  </outline>
</glyph>
<glyph name="oe" format="2">
  <advance width="1065"/>
  <unicode hex="0153"/>
  <anchor x="537.388" y="560.059" name="t.uni0308"/>
  <anchor x="537.388" y="0" name="b.uni0324_3"/>
  <outline>
    <contour>
      <point x="321.941" y="-6.51757" type="qcurve" smooth="yes"/>
      <point x="239.776" y="-6.51757"/>
      <point x="111.706" y="63.8706"/>
      <point x="37.5415" y="187.518"/>
      <point x="37.5415" y="267.035" type="qcurve" smooth="yes"/>
      <point x="37.5415" y="347.423"/>
      <point x="111.706" y="470.2"/>
      <point x="239.776" y="540.458"/>
      <point x="321.941" y="540.458" type="qcurve" smooth="yes"/>
      <point x="404.105" y="540.458"/>
      <point x="526.27" y="470.2"/>
      <point x="593.658" y="347.423"/>
      <point x="593.658" y="267.035" type="qcurve" smooth="yes"/>
      <point x="593.658" y="187.518"/>
      <point x="526.27" y="63.8706"/>
      <point x="404.105" y="-6.51757"/>
    </contour>
    <contour>
      <point x="322.458" y="99.8338" type="qcurve" smooth="yes"/>
      <point x="368.353" y="99.8338"/>
      <point x="439.695" y="140.375"/>
      <point x="481.107" y="216.364"/>
      <point x="481.107" y="267.035" type="qcurve" smooth="yes"/>
      <point x="481.107" y="318.706"/>
      <point x="439.695" y="393.566"/>
      <point x="368.353" y="434.107"/>
      <point x="322.458" y="434.107" type="qcurve" smooth="yes"/>
      <point x="277.434" y="434.107"/>
      <point x="206.093" y="393.566"/>
      <point x="163.81" y="318.706"/>
      <point x="163.81" y="267.035" type="qcurve" smooth="yes"/>
      <point x="163.81" y="216.364"/>
      <point x="206.093" y="140.375"/>
      <point x="277.434" y="99.8338"/>
    </contour>
    <contour>
      <point x="776.542" y="-6.51757" type="qcurve" smooth="yes"/>
      <point x="688.118" y="-6.51757"/>
      <point x="559.436" y="64"/>
      <point x="489.789" y="187.776"/>
      <point x="489.789" y="267.035" type="qcurve" smooth="yes"/>
      <point x="489.789" y="346.553"/>
      <point x="557.566" y="470.2"/>
      <point x="678.248" y="540.458"/>
      <point x="757.283" y="540.458" type="qcurve" smooth="yes"/>
      <point x="835.542" y="540.458"/>
      <point x="957.741" y="472.105"/>
      <point x="1027.94" y="347.976"/>
      <point x="1027.94" y="263.941" type="qcurve" smooth="yes"/>
      <point x="1027.94" y="255.776"/>
      <point x="1026.81" y="235.612"/>
      <point x="1025.68" y="227.094" type="qcurve"/>
      <point x="583.764" y="227.094" type="line"/>
      <point x="583.764" y="309.976" type="line"/>
      <point x="953.449" y="309.976" type="line"/>
      <point x="909.967" y="283.588" type="line"/>
      <point x="910.837" y="329.518"/>
      <point x="871.554" y="399.765"/>
      <point x="802.824" y="439.566"/>
      <point x="757.283" y="439.566" type="qcurve" smooth="yes"/>
      <point x="711.871" y="439.566"/>
      <point x="642.882" y="399.765"/>
      <point x="603.47" y="328.647"/>
      <point x="603.47" y="280.976" type="qcurve" smooth="yes"/>
      <point x="603.47" y="260.906" type="line" smooth="yes"/>
      <point x="603.47" y="212.847"/>
      <point x="647.011" y="139.34"/>
      <point x="727.129" y="98.6693"/>
      <point x="779.93" y="98.6693" type="qcurve" smooth="yes"/>
      <point x="824.248" y="98.6693"/>
      <point x="896.142" y="127.375"/>
      <point x="924.142" y="156.952" type="qcurve"/>
      <point x="992.035" y="79.7412" type="line"/>
      <point x="955.388" y="37.6118"/>
      <point x="845.318" y="-6.51757"/>
    </contour>
  </outline>
</glyph>
<glyph name="Uogonek" format="2">
  <advance width="789"/>
  <unicode hex="0172"/>
  <outline>
    <contour>
      <point x="573.26" y="700" type="line"/>
      <point x="700.788" y="700" type="line"/>
      <point x="700.788" y="305.423" type="line" smooth="yes"/>
      <point x="700.788" y="182.294"/>
      <point x="600.752" y="38.3882"/>
      <point x="517.364" y="7.87061" type="qcurve" smooth="yes"/>
      <point x="460.011" y="-13.1294"/>
      <point x="399.011" y="-54.353"/>
      <point x="375.882" y="-93.1885"/>
      <point x="375.882" y="-110.93" type="qcurve" smooth="yes"/>
      <point x="375.882" y="-134.024"/>
      <point x="408.717" y="-159.765"/>
      <point x="434.976" y="-159.765" type="qcurve" smooth="yes"/>
      <point x="451.105" y="-159.765"/>
      <point x="483.847" y="-150.765"/>
      <point x="495.717" y="-144.024" type="qcurve"/>
      <point x="516.623" y="-204.811" type="line"/>
      <point x="497.752" y="-214.811"/>
      <point x="447.811" y="-227.811"/>
      <point x="421.035" y="-227.811" type="qcurve" smooth="yes"/>
      <point x="359.965" y="-227.811"/>
      <point x="291.765" y="-168.647"/>
      <point x="291.765" y="-121.353" type="qcurve" smooth="yes"/>
      <point x="291.765" y="-92.1885"/>
      <point x="321.189" y="-35.2828"/>
      <point x="385.741" y="16.4585"/>
      <point x="438.741" y="36.8115" type="qcurve"/>
      <point x="438.518" y="-7.90575" type="line"/>
      <point x="428.129" y="-8.90575"/>
      <point x="405.871" y="-9.90575"/>
      <point x="394.612" y="-9.90575" type="qcurve" smooth="yes"/>
      <point x="251.024" y="-9.90575"/>
      <point x="88.4361" y="151.906"/>
      <point x="88.4361" y="305.423" type="qcurve" smooth="yes"/>
      <point x="88.4361" y="700" type="line"/>
      <point x="218.222" y="700" type="line"/>
      <point x="218.222" y="309.811" type="line" smooth="yes"/>
      <point x="218.222" y="201.952"/>
      <point x="311.046" y="103.61"/>
      <point x="395.741" y="103.61" type="qcurve" smooth="yes"/>
      <point x="480.566" y="103.61"/>
      <point x="573.26" y="201.952"/>
      <point x="573.26" y="309.811" type="qcurve" smooth="yes"/>
    </contour>
  </outline>
</glyph>
<glyph name="longs" format="2">
  <advance width="319"/>
  <unicode hex="017F"/>
  <outline>
    <contour>
      <point x="108.895" y="0" type="line"/>
      <point x="108.895" y="563.53" type="line" smooth="yes"/>
      <point x="108.895" y="647.765"/>
      <point x="208.035" y="748.518"/>
      <point x="300.658" y="748.518" type="qcurve" smooth="yes"/>
      <point x="333.176" y="748.518"/>
      <point x="392.246" y="734.647"/>
      <point x="412.893" y="719.776" type="qcurve"/>
      <point x="378.046" y="626.331" type="line"/>
      <point x="364.434" y="636.554"/>
      <point x="328.858" y="648.037"/>
      <point x="309.634" y="648.037" type="qcurve" smooth="yes"/>
      <point x="272.575" y="648.037"/>
      <point x="233.904" y="604.978"/>
      <point x="233.904" y="562.401" type="qcurve" smooth="yes"/>
      <point x="233.904" y="0" type="line"/>
    </contour>
    <contour>
      <point x="21.7061" y="430.355" type="line"/>
      <point x="21.7061" y="530.059" type="line"/>
      <point x="172.305" y="530.059" type="line"/>
      <point x="172.305" y="430.355" type="line"/>
    </contour>
  </outline>
</glyph>
<glyph name="uni018F" format="2">
  <advance width="817"/>
  <unicode hex="018F"/>
  <outline>
    <contour>
      <point x="409" y="-9.90575" type="qcurve" smooth="yes"/>
      <point x="330.224" y="-9.90575"/>
      <point x="196.318" y="43.9649"/>
      <point x="97.9297" y="142.094"/>
      <point x="43.8003" y="275.871"/>
      <point x="43.8003" y="355.647" type="qcurve" smooth="yes"/>
      <point x="43.8003" y="387.553" type="line"/>
      <point x="656.967" y="387.553" type="line"/>
      <point x="656.967" y="286.283" type="line"/>
      <point x="131.799" y="286.283" type="line"/>
      <point x="173.845" y="344.824" type="line"/>
      <point x="173.845" y="288.8"/>
      <point x="207.516" y="197.976"/>
      <point x="269.634" y="133.599"/>
      <point x="355.717" y="98.6693"/>
      <point x="409" y="98.6693" type="qcurve" smooth="yes"/>
      <point x="462.283" y="98.6693"/>
      <point x="548.366" y="132.728"/>
      <point x="609.613" y="197.105"/>
      <point x="642.414" y="285.318"/>
      <point x="642.414" y="339.601" type="qcurve" smooth="yes"/>
      <point x="642.414" y="355.647" type="line" smooth="yes"/>
      <point x="642.414" y="407.318"/>
      <point x="605.355" y="495.307"/>
      <point x="539.719" y="560.201"/>
      <point x="451.859" y="596.39"/>
      <point x="400.93" y="596.39" type="qcurve" smooth="yes"/>
      <point x="361.741" y="596.39"/>
      <point x="284.294" y="578.26"/>
      <point x="215.2" y="542.131"/>
      <point x="187.976" y="514.39" type="qcurve"/>
      <point x="109.919" y="601.671" type="line"/>
      <point x="142.919" y="635.059"/>
      <point x="233.601" y="683.612"/>
      <point x="342.542" y="709.906"/>
      <point x="402.059" y="709.906" type="qcurve" smooth="yes"/>
      <point x="483.094" y="709.906"/>
      <point x="618.776" y="656.906"/>
      <point x="718.811" y="559.776"/>
      <point x="773.329" y="428.388"/>
      <point x="773.329" y="350.871" type="qcurve" smooth="yes"/>
      <point x="773.329" y="272.482"/>
      <point x="718.941" y="140.965"/>
      <point x="620.423" y="43.9649"/>
      <point x="487.518" y="-9.90575"/>
    </contour>
  </outline>
</glyph>
<glyph name="florin" format="2">
  <advance width="464"/>
  <unicode hex="0192"/>
  <outline>
    <contour>
      <point x="24.5878" y="-200.518" type="qcurve" smooth="yes"/>
      <point x="-10.1885" y="-200.518"/>
      <point x="-72.4824" y="-184.776"/>
      <point x="-93.1294" y="-169.165" type="qcurve"/>
      <point x="-48.8594" y="-76.5895" type="line"/>
      <point x="-21.377" y="-98.2956"/>
      <point x="18.5527" y="-98.2956" type="qcurve" smooth="yes"/>
      <point x="53.353" y="-98.2956"/>
      <point x="98.2828" y="-55.2365"/>
      <point x="103.153" y="-12.6598" type="qcurve" smooth="yes"/>
      <point x="175.342" y="563.53" type="line"/>
      <point x="184.859" y="647.895"/>
      <point x="293.776" y="748.518"/>
      <point x="382.917" y="748.518" type="qcurve" smooth="yes"/>
      <point x="415.434" y="748.518"/>
      <point x="477.858" y="733.776"/>
      <point x="497.375" y="717.165" type="qcurve"/>
      <point x="452.235" y="624.589" type="line"/>
      <point x="439.494" y="634.813"/>
      <point x="405.788" y="646.296"/>
      <point x="386.564" y="646.296" type="qcurve" smooth="yes"/>
      <point x="348.634" y="646.296"/>
      <point x="301.575" y="603.236"/>
      <point x="295.834" y="560.66" type="qcurve" smooth="yes"/>
      <point x="288.481" y="501.577" type="line"/>
      <point x="286.222" y="446.013" type="line"/>
      <point x="228.033" y="-15.5304" type="line" smooth="yes"/>
      <point x="217.645" y="-99.7652"/>
      <point x="111.47" y="-200.518"/>
    </contour>
    <contour>
      <point x="69.7652" y="417.296" type="line"/>
      <point x="81.9297" y="517" type="line"/>
      <point x="436.599" y="517" type="line"/>
      <point x="425.305" y="417.296" type="line"/>
    </contour>
  </outline>
</glyph>
<glyph name="Ohorn" format="2">
  <advance width="842"/>
  <unicode hex="01A0"/>
  <anchor x="426.612" y="700" name="t.uni0308"/>
  <anchor x="426.612" y="0" name="b.uni0324_3"/>
  <outline>
    <contour>
      <point x="421.388" y="-9.90575" type="qcurve" smooth="yes"/>
      <point x="339.871" y="-9.90575"/>
      <point x="201.835" y="44.0943"/>
      <point x="100.189" y="141.353"/>
      <point x="43.8003" y="272.741"/>
      <point x="43.8003" y="350" type="qcurve" smooth="yes"/>
      <point x="43.8003" y="428.259"/>
      <point x="100.189" y="559.518"/>
      <point x="202.965" y="656.776"/>
      <point x="343.259" y="709.906"/>
      <point x="426.165" y="709.906" type="qcurve" smooth="yes"/>
      <point x="484.388" y="709.906"/>
      <point x="573.518" y="696.035"/>
      <point x="613.224" y="696.035" type="qcurve" smooth="yes"/>
      <point x="655.412" y="696.035"/>
      <point x="701.989" y="731.259"/>
      <point x="701.989" y="765.353" type="qcurve" smooth="yes"/>
      <point x="701.989" y="783.224"/>
      <point x="690.118" y="814.094"/>
      <point x="681.989" y="826.706" type="qcurve"/>
      <point x="757.752" y="855.165" type="line"/>
      <point x="772.141" y="835.776"/>
      <point x="787.788" y="787.741"/>
      <point x="787.788" y="760.706" type="qcurve" smooth="yes"/>
      <point x="787.788" y="692.601"/>
      <point x="692.906" y="617.53"/>
      <point x="607.835" y="617.53" type="qcurve" smooth="yes"/>
      <point x="574.506" y="617.53"/>
      <point x="505.048" y="626.048"/>
      <point x="473.625" y="630.177" type="qcurve"/>
      <point x="633.505" y="649.377" type="line"/>
      <point x="682.34" y="621.118"/>
      <point x="756.399" y="531.024"/>
      <point x="798.105" y="415.965"/>
      <point x="798.105" y="350" type="qcurve" smooth="yes"/>
      <point x="798.105" y="271.871"/>
      <point x="741.717" y="140.482"/>
      <point x="640.07" y="43.2236"/>
      <point x="503.035" y="-9.90575"/>
    </contour>
    <contour>
      <point x="421.388" y="103.61" type="qcurve" smooth="yes"/>
      <point x="474.412" y="103.61"/>
      <point x="563.625" y="140.669"/>
      <point x="630.131" y="206.564"/>
      <point x="667.19" y="296.811"/>
      <point x="667.19" y="350" type="qcurve" smooth="yes"/>
      <point x="667.19" y="403.189"/>
      <point x="630.131" y="493.436"/>
      <point x="563.625" y="559.331"/>
      <point x="474.412" y="596.39"/>
      <point x="421.388" y="596.39" type="qcurve" smooth="yes"/>
      <point x="368.364" y="596.39"/>
      <point x="278.281" y="560.201"/>
      <point x="211.775" y="493.436"/>
      <point x="174.716" y="404.059"/>
      <point x="174.716" y="350" type="qcurve" smooth="yes"/>
      <point x="174.716" y="296.811"/>
      <point x="211.775" y="206.564"/>
      <point x="278.281" y="139.799"/>
      <point x="368.364" y="103.61"/>
    </contour>
  </outline>
</glyph>
<glyph name="ohorn" format="2">
  <advance width="645"/>
  <unicode hex="01A1"/>
  <anchor x="352.059" y="560.059" name="t.uni0308"/>
  <anchor x="352.059" y="0" name="b.uni0324_3"/>
  <outline>
    <contour>
      <point x="322.458" y="-6.51757" type="qcurve" smooth="yes"/>
      <point x="239.906" y="-6.51757"/>
      <point x="111.706" y="63.8706"/>
      <point x="37.5415" y="187.518"/>
      <point x="37.5415" y="267.035" type="qcurve" smooth="yes"/>
      <point x="37.5415" y="347.423"/>
      <point x="111.706" y="470.2"/>
      <point x="241.035" y="540.458"/>
      <point x="323.717" y="540.458" type="qcurve" smooth="yes"/>
      <point x="350.458" y="540.458"/>
      <point x="388.235" y="537.2"/>
      <point x="423.235" y="533.07"/>
      <point x="443.329" y="533.07" type="qcurve" smooth="yes"/>
      <point x="479.647" y="533.07"/>
      <point x="513.353" y="571.294"/>
      <point x="513.353" y="599.294" type="qcurve" smooth="yes"/>
      <point x="513.353" y="617.165"/>
      <point x="501.224" y="648.035"/>
      <point x="492.224" y="660.647" type="qcurve"/>
      <point x="567.987" y="689.105" type="line"/>
      <point x="581.505" y="669.717"/>
      <point x="599.152" y="621.682"/>
      <point x="599.152" y="594.647" type="qcurve" smooth="yes"/>
      <point x="599.152" y="551.965"/>
      <point x="558.952" y="488.248"/>
      <point x="484.717" y="453.695"/>
      <point x="433.294" y="453.695" type="qcurve" smooth="yes"/>
      <point x="414.482" y="453.695"/>
      <point x="376.506" y="458.083"/>
      <point x="356.859" y="461.342" type="qcurve"/>
      <point x="434.728" y="519.553" type="line"/>
      <point x="513.375" y="490.035"/>
      <point x="607.375" y="356.906"/>
      <point x="607.375" y="267.035" type="qcurve" smooth="yes"/>
      <point x="607.375" y="187.518"/>
      <point x="534.081" y="63.8706"/>
      <point x="405.011" y="-6.51757"/>
    </contour>
    <contour>
      <point x="322.458" y="99.8338" type="qcurve" smooth="yes"/>
      <point x="367.482" y="99.8338"/>
      <point x="438.824" y="140.375"/>
      <point x="481.107" y="216.364"/>
      <point x="481.107" y="267.035" type="qcurve" smooth="yes"/>
      <point x="481.107" y="318.706"/>
      <point x="439.695" y="393.566"/>
      <point x="368.353" y="434.107"/>
      <point x="322.458" y="434.107" type="qcurve" smooth="yes"/>
      <point x="277.434" y="434.107"/>
      <point x="206.093" y="393.566"/>
      <point x="163.81" y="318.706"/>
      <point x="163.81" y="267.035" type="qcurve" smooth="yes"/>
      <point x="163.81" y="216.364"/>
      <point x="206.093" y="140.375"/>
      <point x="277.434" y="99.8338"/>
    </contour>
  </outline>
</glyph>
<glyph name="uni01E5" format="2">
  <advance width="704"/>
  <unicode hex="01E5"/>
  <outline>
    <contour>
      <point x="323.129" y="-200.518" type="qcurve" smooth="yes"/>
      <point x="249.353" y="-200.518"/>
      <point x="109.094" y="-161.906"/>
      <point x="63.5767" y="-124.682" type="qcurve"/>
      <point x="119.553" y="-32.0479" type="line"/>
      <point x="154.776" y="-61.2716"/>
      <point x="261.482" y="-96.4952"/>
      <point x="317.447" y="-96.4952" type="qcurve" smooth="yes"/>
      <point x="405.083" y="-96.4952"/>
      <point x="487.236" y="-15.9888"/>
      <point x="487.236" y="65.3882" type="qcurve" smooth="yes"/>
      <point x="487.236" y="161.013" type="line"/>
      <point x="497.236" y="282.682" type="line"/>
      <point x="493.013" y="403.928" type="line"/>
      <point x="493.013" y="533.941" type="line"/>
      <point x="612.246" y="533.941" type="line"/>
      <point x="612.246" y="81.1406" type="line" smooth="yes"/>
      <point x="612.246" y="-63.2828"/>
      <point x="464.752" y="-200.518"/>
    </contour>
    <contour>
      <point x="278.542" y="-50.1773" type="line"/>
      <point x="278.542" y="24.599" type="line"/>
      <point x="676.117" y="25.599" type="line"/>
      <point x="676.117" y="-50.0479" type="line"/>
    </contour>
    <contour>
      <point x="307.083" y="53.6933" type="qcurve" smooth="yes"/>
      <point x="229.212" y="53.6933"/>
      <point x="107.377" y="115.434"/>
      <point x="37.5415" y="225.658"/>
      <point x="37.5415" y="297.882" type="qcurve" smooth="yes"/>
      <point x="37.5415" y="370.105"/>
      <point x="107.377" y="479.458"/>
      <point x="229.083" y="540.329"/>
      <point x="306.954" y="540.329" type="qcurve" smooth="yes"/>
      <point x="374.083" y="540.329"/>
      <point x="483.272" y="488.329"/>
      <point x="549.201" y="381.847"/>
      <point x="549.201" y="297.623" type="qcurve" smooth="yes"/>
      <point x="549.201" y="213.529"/>
      <point x="483.401" y="105.434"/>
      <point x="374.212" y="53.6933"/>
    </contour>
    <contour>
      <point x="326.588" y="153.327" type="qcurve" smooth="yes"/>
      <point x="374.741" y="153.327"/>
      <point x="448.083" y="189.74"/>
      <point x="489.236" y="254.599"/>
      <point x="489.236" y="297.882" type="qcurve" smooth="yes"/>
      <point x="489.236" y="341.294"/>
      <point x="448.083" y="405.153"/>
      <point x="374.741" y="441.566"/>
      <point x="326.588" y="441.566" type="qcurve" smooth="yes"/>
      <point x="279.305" y="441.566"/>
      <point x="204.963" y="405.153"/>
      <point x="163.81" y="341.294"/>
      <point x="163.81" y="297.882" type="qcurve" smooth="yes"/>
      <point x="163.81" y="254.599"/>
      <point x="204.963" y="189.74"/>
      <point x="279.305" y="153.327"/>
    </contour>
  </outline>
</glyph>
<glyph name="uni01EA" format="2">
  <advance width="842"/>
  <unicode hex="01EA"/>
  <anchor x="426.612" y="700" name="t.uni0308"/>
  <outline>
    <contour>
      <point x="435.494" y="-227.811" type="qcurve" smooth="yes"/>
      <point x="374.423" y="-227.811"/>
      <point x="306.224" y="-168.647"/>
      <point x="306.224" y="-121.353" type="qcurve" smooth="yes"/>
      <point x="306.224" y="-92.1885"/>
      <point x="334.776" y="-34.4122"/>
      <point x="400.2" y="17.3291"/>
      <point x="453.2" y="36.8115" type="qcurve"/>
      <point x="460.847" y="-7.77635" type="line"/>
      <point x="448.811" y="-8.77635"/>
      <point x="429.776" y="-9.90575"/>
      <point x="421.388" y="-9.90575" type="qcurve" smooth="yes"/>
      <point x="339.871" y="-9.90575"/>
      <point x="202.706" y="43.2236"/>
      <point x="100.189" y="140.482"/>
      <point x="43.8003" y="271.871"/>
      <point x="43.8003" y="350" type="qcurve" smooth="yes"/>
      <point x="43.8003" y="428.259"/>
      <point x="100.189" y="559.518"/>
      <point x="202.706" y="656.776"/>
      <point x="339.871" y="709.906"/>
      <point x="421.388" y="709.906" type="qcurve" smooth="yes"/>
      <point x="503.035" y="709.906"/>
      <point x="640.07" y="656.776"/>
      <point x="741.717" y="559.518"/>
      <point x="798.105" y="428.259"/>
      <point x="798.105" y="350" type="qcurve" smooth="yes"/>
      <point x="798.105" y="261.388"/>
      <point x="727.623" y="120.776"/>
      <point x="607.399" y="26.5176"/>
      <point x="532.658" y="5.87061" type="qcurve" smooth="yes"/>
      <point x="487.011" y="-6.77635"/>
      <point x="422.917" y="-43.3882"/>
      <point x="390.34" y="-86.9649"/>
      <point x="390.34" y="-110.93" type="qcurve" smooth="yes"/>
      <point x="390.34" y="-134.024"/>
      <point x="423.176" y="-159.765"/>
      <point x="449.434" y="-159.765" type="qcurve" smooth="yes"/>
      <point x="465.564" y="-159.765"/>
      <point x="498.305" y="-150.765"/>
      <point x="510.176" y="-144.024" type="qcurve"/>
      <point x="531.081" y="-204.811" type="line"/>
      <point x="512.211" y="-214.811"/>
      <point x="462.27" y="-227.811"/>
    </contour>
    <contour>
      <point x="421.388" y="103.61" type="qcurve" smooth="yes"/>
      <point x="474.412" y="103.61"/>
      <point x="563.625" y="139.799"/>
      <point x="630.131" y="206.564"/>
      <point x="667.19" y="296.811"/>
      <point x="667.19" y="350" type="qcurve" smooth="yes"/>
      <point x="667.19" y="404.059"/>
      <point x="630.131" y="493.436"/>
      <point x="563.625" y="560.201"/>
      <point x="474.412" y="596.39"/>
      <point x="421.388" y="596.39" type="qcurve" smooth="yes"/>
      <point x="368.364" y="596.39"/>
      <point x="278.281" y="560.201"/>
      <point x="211.775" y="493.436"/>
      <point x="174.716" y="404.059"/>
      <point x="174.716" y="350" type="qcurve" smooth="yes"/>
      <point x="174.716" y="296.811"/>
      <point x="211.775" y="206.564"/>
      <point x="278.281" y="139.799"/>
      <point x="368.364" y="103.61"/>
    </contour>
  </outline>
</glyph>
<glyph name="uni01EB" format="2">
  <advance width="645"/>
  <unicode hex="01EB"/>
  <anchor x="348.189" y="560.059" name="t.uni0308"/>
  <anchor x="348.189" y="280.094" name="t.uni0307_1"/>
  <anchor x="418.941" y="559.189" name="t.uni031B_2"/>
  <anchor x="348.189" y="0" name="b.uni0324_3"/>
  <outline>
    <contour>
      <point x="351.847" y="-227.811" type="qcurve" smooth="yes"/>
      <point x="290.776" y="-227.811"/>
      <point x="222.577" y="-168.647"/>
      <point x="222.577" y="-123.094" type="qcurve" smooth="yes"/>
      <point x="222.577" y="-93.0591"/>
      <point x="251.129" y="-34.5415"/>
      <point x="314.811" y="16.6821"/>
      <point x="366.07" y="35.5176" type="qcurve"/>
      <point x="374.682" y="-2.51757" type="line"/>
      <point x="359.2" y="-4.38818"/>
      <point x="334.458" y="-6.51757"/>
      <point x="322.458" y="-6.51757" type="qcurve" smooth="yes"/>
      <point x="239.906" y="-6.51757"/>
      <point x="111.706" y="63.8706"/>
      <point x="37.5415" y="187.518"/>
      <point x="37.5415" y="267.035" type="qcurve" smooth="yes"/>
      <point x="37.5415" y="347.423"/>
      <point x="111.706" y="470.2"/>
      <point x="239.906" y="540.458"/>
      <point x="322.458" y="540.458" type="qcurve" smooth="yes"/>
      <point x="405.011" y="540.458"/>
      <point x="534.211" y="470.2"/>
      <point x="607.375" y="347.423"/>
      <point x="607.375" y="267.035" type="qcurve" smooth="yes"/>
      <point x="607.375" y="178.518"/>
      <point x="516.434" y="46.6118"/>
      <point x="439.882" y="14.4824" type="qcurve" smooth="yes"/>
      <point x="386.529" y="-7.87061"/>
      <point x="329.176" y="-50.9649"/>
      <point x="306.693" y="-91.1885"/>
      <point x="306.693" y="-109.93" type="qcurve" smooth="yes"/>
      <point x="306.693" y="-133.765"/>
      <point x="339.529" y="-159.765"/>
      <point x="365.788" y="-159.765" type="qcurve" smooth="yes"/>
      <point x="381.917" y="-159.765"/>
      <point x="414.658" y="-150.765"/>
      <point x="426.529" y="-144.024" type="qcurve"/>
      <point x="447.434" y="-204.811" type="line"/>
      <point x="428.564" y="-214.811"/>
      <point x="378.623" y="-227.811"/>
    </contour>
    <contour>
      <point x="322.458" y="99.8338" type="qcurve" smooth="yes"/>
      <point x="368.353" y="99.8338"/>
      <point x="439.695" y="140.375"/>
      <point x="481.107" y="216.364"/>
      <point x="481.107" y="267.035" type="qcurve" smooth="yes"/>
      <point x="481.107" y="318.706"/>
      <point x="439.695" y="393.566"/>
      <point x="368.353" y="434.107"/>
      <point x="322.458" y="434.107" type="qcurve" smooth="yes"/>
      <point x="277.434" y="434.107"/>
      <point x="206.093" y="393.566"/>
      <point x="163.81" y="318.706"/>
      <point x="163.81" y="267.035" type="qcurve" smooth="yes"/>
      <point x="163.81" y="216.364"/>
      <point x="206.093" y="140.375"/>
      <point x="277.434" y="99.8338"/>
    </contour>
  </outline>
</glyph>
<glyph name="uni0237" format="2">
  <advance width="295"/>
  <unicode hex="0237"/>
  <anchor x="185.8" y="560.059" name="t.uni0308"/>
  <outline>
    <contour>
      <point x="26.7172" y="-200.518" type="qcurve" smooth="yes"/>
      <point x="-8.05911" y="-200.518"/>
      <point x="-71.4824" y="-185.647"/>
      <point x="-93.1294" y="-170.035" type="qcurve"/>
      <point x="-56.5415" y="-76.5895" type="line"/>
      <point x="-28.1885" y="-98.2956"/>
      <point x="16.2236" y="-98.2956" type="qcurve" smooth="yes"/>
      <point x="50.1534" y="-98.2956"/>
      <point x="87.6007" y="-55.2365"/>
      <point x="87.6007" y="-12.6598" type="qcurve" smooth="yes"/>
      <point x="87.6007" y="533.941" type="line"/>
      <point x="212.61" y="533.941" type="line"/>
      <point x="212.61" y="-10.3067" type="line" smooth="yes"/>
      <point x="212.61" y="-98.024"/>
      <point x="116.211" y="-200.518"/>
    </contour>
  </outline>
</glyph>
<glyph name="uni0259" format="2">
  <advance width="622"/>
  <unicode hex="0259"/>
  <anchor x="339.059" y="560.059" name="t.uni0308"/>
  <anchor x="339.059" y="0" name="b.uni0324_3"/>
  <anchor x="99.1294" y="560.059" name="m.uni0328_4"/>
  <outline>
    <contour>
      <point x="288.811" y="540.458" type="qcurve" smooth="yes"/>
      <point x="378.494" y="540.458"/>
      <point x="510.823" y="469.941"/>
      <point x="584.117" y="347.165"/>
      <point x="584.117" y="266.906" type="qcurve" smooth="yes"/>
      <point x="584.117" y="187.388"/>
      <point x="512.693" y="63.7412"/>
      <point x="387.494" y="-6.51757"/>
      <point x="308.07" y="-6.51757" type="qcurve" smooth="yes"/>
      <point x="229.682" y="-6.51757"/>
      <point x="107.482" y="61.8355"/>
      <point x="37.5415" y="187.094"/>
      <point x="37.5415" y="270.388" type="qcurve" smooth="yes"/>
      <point x="37.5415" y="278.035"/>
      <point x="38.6709" y="298.329"/>
      <point x="39.6709" y="306.847" type="qcurve"/>
      <point x="484.177" y="306.847" type="line"/>
      <point x="484.177" y="223.965" type="line"/>
      <point x="105.693" y="223.965" type="line"/>
      <point x="154.998" y="250.353" type="line"/>
      <point x="154.998" y="204.553"/>
      <point x="193.669" y="134.176"/>
      <point x="262.529" y="94.3754"/>
      <point x="307.811" y="94.3754" type="qcurve" smooth="yes"/>
      <point x="353.224" y="94.3754"/>
      <point x="422.954" y="134.176"/>
      <point x="461.495" y="206.294"/>
      <point x="461.495" y="252.965" type="qcurve" smooth="yes"/>
      <point x="461.495" y="273.035" type="line" smooth="yes"/>
      <point x="461.495" y="322.094"/>
      <point x="417.824" y="394.601"/>
      <point x="338.835" y="435.272"/>
      <point x="285.294" y="435.272" type="qcurve" smooth="yes"/>
      <point x="240.458" y="435.272"/>
      <point x="169.564" y="406.566"/>
      <point x="140.823" y="376.989" type="qcurve"/>
      <point x="73.3179" y="454.2" type="line"/>
      <point x="109.835" y="496.458"/>
      <point x="219.871" y="540.458"/>
    </contour>
  </outline>
</glyph>
<glyph name="uni02BE" format="2">
  <advance width="600"/>
  <unicode hex="02BE"/>
  <outline>
    <contour>
      <point x="299.129" y="593.482" type="qcurve"/>
      <point x="299.129" y="645.623" type="line"/>
      <point x="327.353" y="645.623"/>
      <point x="362.706" y="680.847"/>
      <point x="362.706" y="707.458" type="qcurve" smooth="yes"/>
      <point x="362.706" y="734.941"/>
      <point x="326.482" y="770.165"/>
      <point x="299.129" y="770.165" type="qcurve"/>
      <point x="299.129" y="823.176" type="line"/>
      <point x="333.906" y="823.176"/>
      <point x="387.329" y="791.529"/>
      <point x="418.235" y="739.364"/>
      <point x="418.235" y="707.458" type="qcurve" smooth="yes"/>
      <point x="418.235" y="675.682"/>
      <point x="387.329" y="624.259"/>
      <point x="333.906" y="593.482"/>
    </contour>
  </outline>
</glyph>
<glyph name="uni02BF" format="2">
  <advance width="600"/>
  <unicode hex="02BF"/>
  <outline>
    <contour>
      <point x="299.129" y="593.482" type="line"/>
      <point x="265.353" y="593.482"/>
      <point x="210.93" y="624.259"/>
      <point x="180.024" y="675.682"/>
      <point x="180.024" y="707.458" type="qcurve" smooth="yes"/>
      <point x="180.024" y="739.364"/>
      <point x="210.93" y="791.529"/>
      <point x="265.353" y="823.176"/>
      <point x="299.129" y="823.176" type="qcurve"/>
      <point x="299.129" y="770.165" type="line"/>
      <point x="272.776" y="770.165"/>
      <point x="236.423" y="734.941"/>
      <point x="236.423" y="707.458" type="qcurve" smooth="yes"/>
      <point x="236.423" y="680.847"/>
      <point x="271.906" y="645.623"/>
      <point x="299.129" y="645.623" type="qcurve"/>
    </contour>
  </outline>
</glyph>
<glyph name="uni02C8" format="2">
  <advance width="178"/>
  <unicode hex="02C8"/>
  <outline>
    <contour>
      <point x="47.2828" y="506.577" type="line"/>
      <point x="47.2828" y="700.129" type="line"/>
      <point x="131.211" y="700.129" type="line"/>
      <point x="131.211" y="506.577" type="line"/>
    </contour>
  </outline>
</glyph>
<glyph name="uni02C9" format="2">
  <advance width="600"/>
  <unicode hex="02C9"/>
  <outline>
    <contour>
      <point x="126.566" y="638.447" type="line"/>
      <point x="126.566" y="712.917" type="line"/>
      <point x="473.434" y="712.917" type="line"/>
      <point x="473.434" y="638.447" type="line"/>
    </contour>
  </outline>
</glyph>
<glyph name="uni02CA" format="2">
  <advance width="600"/>
  <unicode hex="02CA"/>
  <outline>
    <contour>
      <point x="215.895" y="607" type="line"/>
      <point x="351.377" y="744.364" type="line"/>
      <point x="498.47" y="744.364" type="line"/>
      <point x="324.105" y="607" type="line"/>
    </contour>
  </outline>
</glyph>
<glyph name="uni02CB" format="2">
  <advance width="600"/>
  <unicode hex="02CB"/>
  <outline>
    <contour>
      <point x="275.895" y="607" type="line"/>
      <point x="101.53" y="744.364" type="line"/>
      <point x="248.623" y="744.364" type="line"/>
      <point x="384.105" y="607" type="line"/>
    </contour>
  </outline>
</glyph>
<glyph name="uni02CC" format="2">
  <advance width="180"/>
  <unicode hex="02CC"/>
  <outline>
    <contour>
      <point x="47.2828" y="-223.553" type="line"/>
      <point x="47.2828" y="-30" type="line"/>
      <point x="132.599" y="-30" type="line"/>
      <point x="132.599" y="-223.553" type="line"/>
    </contour>
  </outline>
</glyph>
<glyph name="gravecomb" format="2">
  <unicode hex="0300"/>
  <anchor x="300" y="560.059" name="_t.uni0308"/>
  <anchor x="300" y="560.059" name="_t.uni0308_2"/>
  <anchor x="300" y="560.059" name="_m.uni0308"/>
  <anchor x="300" y="802.66" name="m.uni0308"/>
  <outline>
    <contour>
      <point x="275.895" y="607" type="line"/>
      <point x="101.53" y="744.364" type="line"/>
      <point x="248.623" y="744.364" type="line"/>
      <point x="384.105" y="607" type="line"/>
    </contour>
  </outline>
</glyph>
<glyph name="acutecomb" format="2">
  <unicode hex="0301"/>
  <anchor x="300" y="560.059" name="_t.uni0308"/>
  <anchor x="300" y="560.059" name="_t.uni0308_2"/>
  <anchor x="300" y="560.059" name="_m.uni0308"/>
  <anchor x="300" y="802.66" name="m.uni0308"/>
  <outline>
    <contour>
      <point x="226.412" y="607" type="line"/>
      <point x="271.871" y="744.364" type="line"/>
      <point x="402.928" y="744.364" type="line"/>
      <point x="318.588" y="607" type="line"/>
    </contour>
  </outline>
</glyph>
<glyph name="uni0302" format="2">
  <unicode hex="0302"/>
  <anchor x="300" y="560.059" name="_t.uni0308"/>
  <anchor x="300" y="560.059" name="_t.uni0308_2"/>
  <anchor x="300" y="560.059" name="_m.uni0308"/>
  <anchor x="300" y="792.66" name="m.uni0308"/>
  <outline>
    <contour>
      <point x="109.083" y="607" type="line"/>
      <point x="243.177" y="744.364" type="line"/>
      <point x="356.823" y="744.364" type="line"/>
      <point x="490.917" y="607" type="line"/>
      <point x="388.353" y="607" type="line"/>
      <point x="251.577" y="722.2" type="line"/>
      <point x="348.423" y="722.2" type="line"/>
      <point x="211.647" y="607" type="line"/>
    </contour>
  </outline>
</glyph>
<glyph name="tildecomb" format="2">
  <unicode hex="0303"/>
  <anchor x="300" y="560.059" name="_t.uni0308"/>
  <anchor x="300" y="560.059" name="_t.uni0308_2"/>
  <anchor x="300" y="560.059" name="_m.uni0308"/>
  <anchor x="300" y="792.66" name="m.uni0308"/>
  <outline>
    <contour>
      <point x="372.294" y="606.577" type="qcurve" smooth="yes"/>
      <point x="347.776" y="606.577"/>
      <point x="309.129" y="626.318"/>
      <point x="277.612" y="652.8"/>
      <point x="250.482" y="672.542"/>
      <point x="236.482" y="672.542" type="qcurve" smooth="yes"/>
      <point x="214.871" y="672.542"/>
      <point x="189.129" y="641.318"/>
      <point x="187.129" y="613.094" type="qcurve"/>
      <point x="120.177" y="613.094" type="line"/>
      <point x="122.177" y="674.682"/>
      <point x="179.377" y="746.917"/>
      <point x="227.706" y="746.917" type="qcurve" smooth="yes"/>
      <point x="252.224" y="746.917"/>
      <point x="291.741" y="727.176"/>
      <point x="323.259" y="700.693"/>
      <point x="350.518" y="680.952"/>
      <point x="363.518" y="680.952" type="qcurve" smooth="yes"/>
      <point x="385.259" y="680.952"/>
      <point x="411.871" y="711.176"/>
      <point x="412.871" y="738.27" type="qcurve"/>
      <point x="479.823" y="738.27" type="line"/>
      <point x="478.823" y="679.682"/>
      <point x="420.623" y="606.577"/>
    </contour>
  </outline>
</glyph>
<glyph name="uni0304" format="2">
  <unicode hex="0304"/>
  <anchor x="300" y="560.059" name="_t.uni0308"/>
  <anchor x="300" y="560.059" name="_t.uni0308_2"/>
  <anchor x="300" y="560.059" name="_m.uni0308"/>
  <anchor x="300" y="772.66" name="m.uni0308"/>
  <outline>
    <contour>
      <point x="126.566" y="638.447" type="line"/>
      <point x="126.566" y="712.917" type="line"/>
      <point x="473.434" y="712.917" type="line"/>
      <point x="473.434" y="638.447" type="line"/>
    </contour>
  </outline>
</glyph>
<glyph name="uni0306" format="2">
  <unicode hex="0306"/>
  <anchor x="300" y="560.059" name="_t.uni0308"/>
  <anchor x="300" y="560.059" name="_t.uni0308_2"/>
  <anchor x="300" y="560.059" name="_m.uni0308"/>
  <anchor x="300" y="792.66" name="m.uni0308"/>
  <outline>
    <contour>
      <point x="300" y="600.482" type="qcurve" smooth="yes"/>
      <point x="227.412" y="600.482"/>
      <point x="129.824" y="677.553"/>
      <point x="126.695" y="744.364" type="qcurve"/>
      <point x="208.588" y="744.364" type="line"/>
      <point x="210.588" y="709.399"/>
      <point x="262.906" y="668.564"/>
      <point x="300" y="668.564" type="qcurve" smooth="yes"/>
      <point x="337.094" y="668.564"/>
      <point x="390.283" y="709.399"/>
      <point x="391.412" y="744.364" type="qcurve"/>
      <point x="473.305" y="744.364" type="line"/>
      <point x="470.176" y="677.553"/>
      <point x="372.588" y="600.482"/>
    </contour>
  </outline>
</glyph>
<glyph name="uni0307" format="2">
  <unicode hex="0307"/>
  <anchor x="300" y="560.059" name="_t.uni0308"/>
  <anchor x="300" y="726.412" name="_t.uni0307_1"/>
  <anchor x="300" y="560.059" name="_t.uni0308_2"/>
  <anchor x="300" y="560.059" name="_m.uni0308"/>
  <anchor x="300" y="872.26" name="m.uni0308"/>
  <outline>
    <contour>
      <point x="300" y="618.765" type="qcurve" smooth="yes"/>
      <point x="269.153" y="618.765"/>
      <point x="228.66" y="659.259"/>
      <point x="228.66" y="690.105" type="qcurve" smooth="yes"/>
      <point x="228.66" y="720.952"/>
      <point x="269.153" y="761.446"/>
      <point x="300" y="761.446" type="qcurve" smooth="yes"/>
      <point x="330.847" y="761.446"/>
      <point x="371.34" y="720.952"/>
      <point x="371.34" y="690.105" type="qcurve" smooth="yes"/>
      <point x="371.34" y="659.259"/>
      <point x="330.847" y="618.765"/>
    </contour>
  </outline>
</glyph>
<glyph name="uni0308" format="2">
  <unicode hex="0308"/>
  <anchor x="300" y="560.059" name="_t.uni0308"/>
  <anchor x="300" y="560.059" name="_t.uni0308_2"/>
  <anchor x="300" y="560.059" name="_m.uni0308"/>
  <anchor x="300" y="786.142" name="m.uni0308"/>
  <outline>
    <contour>
      <point x="397.07" y="618.153" type="qcurve" smooth="yes"/>
      <point x="372.129" y="618.153"/>
      <point x="336.671" y="651.353"/>
      <point x="336.671" y="678.294" type="qcurve" smooth="yes"/>
      <point x="336.671" y="705.235"/>
      <point x="372.129" y="738.564"/>
      <point x="397.07" y="738.564" type="qcurve" smooth="yes"/>
      <point x="422.011" y="738.564"/>
      <point x="457.47" y="705.235"/>
      <point x="457.47" y="678.294" type="qcurve" smooth="yes"/>
      <point x="457.47" y="651.353"/>
      <point x="422.011" y="618.153"/>
    </contour>
    <contour>
      <point x="202.93" y="618.153" type="qcurve" smooth="yes"/>
      <point x="177.989" y="618.153"/>
      <point x="142.53" y="651.353"/>
      <point x="142.53" y="678.294" type="qcurve" smooth="yes"/>
      <point x="142.53" y="705.235"/>
      <point x="177.989" y="738.564"/>
      <point x="202.93" y="738.564" type="qcurve" smooth="yes"/>
      <point x="227.871" y="738.564"/>
      <point x="263.329" y="705.235"/>
      <point x="263.329" y="678.294" type="qcurve" smooth="yes"/>
      <point x="263.329" y="651.353"/>
      <point x="227.871" y="618.153"/>
    </contour>
  </outline>
</glyph>
<glyph name="hookabovecomb" format="2">
  <unicode hex="0309"/>
  <anchor x="300" y="560.059" name="_t.uni0308"/>
  <anchor x="300" y="560.059" name="_t.uni0308_2"/>
  <anchor x="300" y="560.059" name="_m.uni0308"/>
  <anchor x="300" y="872.66" name="m.uni0308"/>
  <outline>
    <contour>
      <point x="324.717" y="597" type="qcurve"/>
      <point x="283.706" y="642.847" type="line"/>
      <point x="312.706" y="656.847"/>
      <point x="337.542" y="688.2"/>
      <point x="337.542" y="707.294" type="qcurve" smooth="yes"/>
      <point x="337.542" y="727.035"/>
      <point x="310.189" y="751.388"/>
      <point x="287.706" y="751.388" type="qcurve" smooth="yes"/>
      <point x="257.094" y="751.388"/>
      <point x="228.094" y="732.259" type="qcurve"/>
      <point x="201.248" y="786.658" type="line"/>
      <point x="222.024" y="802.305"/>
      <point x="274.224" y="817.952"/>
      <point x="300.647" y="817.952" type="qcurve" smooth="yes"/>
      <point x="349.717" y="817.952"/>
      <point x="411.176" y="763.011"/>
      <point x="411.176" y="717.588" type="qcurve" smooth="yes"/>
      <point x="411.176" y="677.294"/>
      <point x="368.623" y="617.388"/>
    </contour>
  </outline>
</glyph>
<glyph name="uni030A" format="2">
  <unicode hex="030A"/>
  <anchor x="300" y="560.059" name="_t.uni0308"/>
  <anchor x="300" y="560.059" name="_t.uni0308_2"/>
  <anchor x="300" y="560.059" name="_m.uni0308"/>
  <anchor x="300" y="876.142" name="m.uni0308"/>
  <outline>
    <contour>
      <point x="299.129" y="593.482" type="qcurve" smooth="yes"/>
      <point x="266.224" y="593.482"/>
      <point x="213.542" y="624.259"/>
      <point x="182.636" y="675.682"/>
      <point x="182.636" y="707.458" type="qcurve" smooth="yes"/>
      <point x="182.636" y="739.364"/>
      <point x="213.542" y="791.529"/>
      <point x="266.224" y="823.176"/>
      <point x="299.129" y="823.176" type="qcurve" smooth="yes"/>
      <point x="333.035" y="823.176"/>
      <point x="385.588" y="791.529"/>
      <point x="416.494" y="739.364"/>
      <point x="416.494" y="707.458" type="qcurve" smooth="yes"/>
      <point x="416.494" y="675.682"/>
      <point x="385.588" y="624.259"/>
      <point x="333.035" y="593.482"/>
    </contour>
    <contour>
      <point x="299.129" y="643.882" type="qcurve" smooth="yes"/>
      <point x="327.353" y="643.882"/>
      <point x="362.706" y="679.976"/>
      <point x="362.706" y="707.458" type="qcurve" smooth="yes"/>
      <point x="362.706" y="734.941"/>
      <point x="326.482" y="771.906"/>
      <point x="299.129" y="771.906" type="qcurve" smooth="yes"/>
      <point x="272.776" y="771.906"/>
      <point x="236.423" y="735.811"/>
      <point x="236.423" y="707.458" type="qcurve" smooth="yes"/>
      <point x="236.423" y="679.976"/>
      <point x="271.906" y="643.882"/>
    </contour>
  </outline>
</glyph>
<glyph name="uni030B" format="2">
  <unicode hex="030B"/>
  <anchor x="300" y="560.059" name="_t.uni0308"/>
  <anchor x="300" y="560.059" name="_t.uni0308_2"/>
  <anchor x="300" y="560.059" name="_m.uni0308"/>
  <anchor x="300" y="802.66" name="m.uni0308"/>
  <outline>
    <contour>
      <point x="344.612" y="607" type="line"/>
      <point x="425.342" y="744.364" type="line"/>
      <point x="549.823" y="744.364" type="line"/>
      <point x="443.246" y="607" type="line"/>
    </contour>
    <contour>
      <point x="156.754" y="607" type="line"/>
      <point x="238.355" y="744.364" type="line"/>
      <point x="362.835" y="744.364" type="line"/>
      <point x="255.388" y="607" type="line"/>
    </contour>
  </outline>
</glyph>
<glyph name="uni030F" format="2">
  <unicode hex="030F"/>
  <anchor x="300" y="560.059" name="_t.uni0308"/>
  <anchor x="300" y="560.059" name="_t.uni0308_2"/>
  <anchor x="300" y="560.059" name="_m.uni0308"/>
  <anchor x="300" y="802.66" name="m.uni0308"/>
  <outline>
    <contour>
      <point x="344.612" y="607" type="line"/>
      <point x="237.165" y="744.364" type="line"/>
      <point x="361.645" y="744.364" type="line"/>
      <point x="443.246" y="607" type="line"/>
    </contour>
    <contour>
      <point x="156.754" y="607" type="line"/>
      <point x="50.1773" y="744.364" type="line"/>
      <point x="174.658" y="744.364" type="line"/>
      <point x="255.388" y="607" type="line"/>
    </contour>
  </outline>
</glyph>
<glyph name="uni0311" format="2">
  <unicode hex="0311"/>
  <anchor x="300" y="560.059" name="_t.uni0308"/>
  <anchor x="300" y="560.059" name="_t.uni0308_2"/>
  <anchor x="300" y="560.059" name="_m.uni0308"/>
  <anchor x="300" y="792.66" name="m.uni0308"/>
  <outline>
    <contour>
      <point x="126.695" y="607" type="line"/>
      <point x="129.824" y="673.811"/>
      <point x="227.412" y="750.882"/>
      <point x="300" y="750.882" type="qcurve" smooth="yes"/>
      <point x="372.588" y="750.882"/>
      <point x="470.176" y="673.811"/>
      <point x="473.305" y="607" type="qcurve"/>
      <point x="391.412" y="607" type="line"/>
      <point x="390.283" y="641.965"/>
      <point x="337.094" y="682.8"/>
      <point x="300" y="682.8" type="qcurve" smooth="yes"/>
      <point x="262.906" y="682.8"/>
      <point x="210.588" y="641.965"/>
      <point x="208.588" y="607" type="qcurve"/>
    </contour>
  </outline>
</glyph>
<glyph name="uni0312" format="2">
  <unicode hex="0312"/>
  <anchor x="300" y="560.059" name="_t.uni0308"/>
  <anchor x="300" y="560.059" name="_t.uni0308_2"/>
  <anchor x="300" y="560.059" name="_m.uni0308"/>
  <anchor x="300" y="846.142" name="m.uni0308"/>
  <outline>
    <contour>
      <point x="300" y="600.482" type="qcurve" smooth="yes"/>
      <point x="266.895" y="600.482"/>
      <point x="233.048" y="630.165"/>
      <point x="233.048" y="652.847" type="qcurve" smooth="yes"/>
      <point x="233.048" y="664.235"/>
      <point x="240.695" y="690.917"/>
      <point x="250.859" y="710.211" type="qcurve"/>
      <point x="291.8" y="802.176" type="line"/>
      <point x="361.046" y="802.176" type="line"/>
      <point x="316.07" y="659.811" type="line"/>
      <point x="300" y="704.952" type="line"/>
      <point x="332.105" y="704.952"/>
      <point x="366.952" y="677.399"/>
      <point x="366.952" y="652.847" type="qcurve" smooth="yes"/>
      <point x="366.952" y="629.294"/>
      <point x="333.105" y="600.482"/>
    </contour>
  </outline>
</glyph>
<glyph name="uni031B" format="2">
  <unicode hex="031B"/>
  <anchor x="300" y="560.059" name="_t.uni031B_2"/>
  <outline>
    <contour>
      <point x="279.577" y="444.695" type="line"/>
      <point x="279.577" y="533.941" type="line"/>
      <point x="301.294" y="533.941" type="line" smooth="yes"/>
      <point x="331.871" y="533.941"/>
      <point x="363.259" y="570.423"/>
      <point x="363.259" y="598.423" type="qcurve" smooth="yes"/>
      <point x="363.259" y="616.294"/>
      <point x="352.259" y="648.035"/>
      <point x="343.259" y="659.776" type="qcurve"/>
      <point x="419.893" y="688.235" type="line"/>
      <point x="434.281" y="669.717"/>
      <point x="449.928" y="621.682"/>
      <point x="449.928" y="593.776" type="qcurve" smooth="yes"/>
      <point x="449.928" y="525.412"/>
      <point x="370.27" y="444.695"/>
      <point x="300" y="444.695" type="qcurve" smooth="yes"/>
    </contour>
  </outline>
</glyph>
<glyph name="dotbelowcomb" format="2">
  <unicode hex="0323"/>
  <anchor x="300" y="-224.083" name="t.uni0324"/>
  <outline>
    <contour>
      <point x="300" y="-203.364" type="qcurve" smooth="yes"/>
      <point x="275.059" y="-203.364"/>
      <point x="239.601" y="-171.165"/>
      <point x="239.601" y="-144.224" type="qcurve" smooth="yes"/>
      <point x="239.601" y="-117.283"/>
      <point x="275.059" y="-83.0831"/>
      <point x="300" y="-83.0831" type="qcurve" smooth="yes"/>
      <point x="324.941" y="-83.0831"/>
      <point x="360.399" y="-117.283"/>
      <point x="360.399" y="-144.224" type="qcurve" smooth="yes"/>
      <point x="360.399" y="-171.165"/>
      <point x="324.941" y="-203.364"/>
    </contour>
  </outline>
</glyph>
<glyph name="uni0324" format="2">
  <unicode hex="0324"/>
  <anchor x="300" y="-202.765" name="t.uni0324"/>
  <outline>
    <contour>
      <point x="391.2" y="-198.717" type="qcurve" smooth="yes"/>
      <point x="367.388" y="-198.717"/>
      <point x="333.189" y="-166.647"/>
      <point x="333.189" y="-140.965" type="qcurve" smooth="yes"/>
      <point x="333.189" y="-116.024"/>
      <point x="367.388" y="-83.0831"/>
      <point x="391.2" y="-83.0831" type="qcurve" smooth="yes"/>
      <point x="415.011" y="-83.0831"/>
      <point x="449.211" y="-116.024"/>
      <point x="449.211" y="-140.965" type="qcurve" smooth="yes"/>
      <point x="449.211" y="-166.647"/>
      <point x="415.011" y="-198.717"/>
    </contour>
    <contour>
      <point x="208.8" y="-198.717" type="qcurve" smooth="yes"/>
      <point x="184.989" y="-198.717"/>
      <point x="151.66" y="-166.647"/>
      <point x="151.66" y="-140.965" type="qcurve" smooth="yes"/>
      <point x="151.66" y="-116.024"/>
      <point x="184.989" y="-83.0831"/>
      <point x="208.8" y="-83.0831" type="qcurve" smooth="yes"/>
      <point x="233.482" y="-83.0831"/>
      <point x="267.682" y="-116.024"/>
      <point x="267.682" y="-140.965" type="qcurve" smooth="yes"/>
      <point x="267.682" y="-166.647"/>
      <point x="233.482" y="-198.717"/>
    </contour>
  </outline>
</glyph>
<glyph name="uni0326" format="2">
  <unicode hex="0326"/>
  <anchor x="300" y="-224.083" name="t.uni0324"/>
  <outline>
    <contour>
      <point x="250.506" y="-264.776" type="line"/>
      <point x="287.189" y="-143.283" type="line"/>
      <point x="300" y="-188.423" type="line"/>
      <point x="271.542" y="-188.423"/>
      <point x="239.601" y="-159.871"/>
      <point x="239.601" y="-136.318" type="qcurve" smooth="yes"/>
      <point x="239.601" y="-112.765"/>
      <point x="272.8" y="-83.0831"/>
      <point x="300" y="-83.0831" type="qcurve" smooth="yes"/>
      <point x="328.07" y="-83.0831"/>
      <point x="360.399" y="-113.636"/>
      <point x="360.399" y="-136.318" type="qcurve" smooth="yes"/>
      <point x="360.399" y="-147.706"/>
      <point x="354.011" y="-176.259"/>
      <point x="344.105" y="-194.553" type="qcurve"/>
      <point x="312.07" y="-264.776" type="line"/>
    </contour>
  </outline>
</glyph>
<glyph name="uni0327" format="2">
  <unicode hex="0327"/>
  <outline>
    <contour>
      <point x="271.189" y="-227.811" type="qcurve" smooth="yes"/>
      <point x="244.447" y="-227.811"/>
      <point x="198.024" y="-216.682"/>
      <point x="179.283" y="-206.811" type="qcurve"/>
      <point x="202.059" y="-148.189" type="line"/>
      <point x="218.283" y="-155.671"/>
      <point x="251.024" y="-163.671"/>
      <point x="269.895" y="-163.671" type="qcurve" smooth="yes"/>
      <point x="298.506" y="-163.671"/>
      <point x="323.118" y="-144.447"/>
      <point x="323.118" y="-128.353" type="qcurve" smooth="yes"/>
      <point x="323.118" y="-113.259"/>
      <point x="298.024" y="-95.2939"/>
      <point x="269.93" y="-95.2939" type="qcurve" smooth="yes"/>
      <point x="239.377" y="-95.2939" type="line"/>
      <point x="265.506" y="7.38818" type="line"/>
      <point x="333.623" y="7.38818" type="line"/>
      <point x="319.623" y="-49.3882" type="line"/>
      <point x="364.011" y="-53.647"/>
      <point x="407.235" y="-100.776"/>
      <point x="407.235" y="-132.871" type="qcurve" smooth="yes"/>
      <point x="407.235" y="-176.776"/>
      <point x="332.518" y="-227.811"/>
    </contour>
  </outline>
</glyph>
